<svg id="Layer_1" data-name="Layer 1" xmlns="http://www.w3.org/2000/svg" xmlns:xlink="http://www.w3.org/1999/xlink" viewBox="0 0 174.72 194.4"><defs><style>.cls-1{fill:none;}.cls-2{clip-path:url(#clip-path);}.cls-3{fill:#fff;}</style><clipPath id="clip-path"><circle class="cls-1" cx="87.36" cy="82.12" r="82.12"/></clipPath></defs><g id="Def_white" data-name="Def white"><g class="cls-2"><path class="cls-3" d="M90.13,2.09h0l0,0Z"/><path class="cls-3" d="M9,76.72H9v0l0,0H9l0,0Z"/><path class="cls-3" d="M36.38,124.16c.64,1.65,1.84,3.3,1.8,4.93A5.64,5.64,0,0,0,40.11,134c3,2.53,6.74,3,10.51,3a20.64,20.64,0,0,0,3.91-.77l-.11-.87c-2.34,0-4.7.06-7,0-3.08-.1-5.83-.85-7.27-4.46,1,.65,2.45.17,2.08,1.95,0,.24.52.84.89.92a23,23,0,0,0,3.51.47c.23,0,.49-.45.73-.69a4,4,0,0,0-1-.47c-1-.16-2-.24-3-.35l.06-.66c8.26,1.5,16.09.12,23.94-3.23-.44-.16-.59-.28-.71-.26-3,.56-5.89,1.17-8.85,1.7-6.14,1.09-12.25,1.41-18.54-1.37.69-.3,1.18-.47,1.62-.72a4.72,4.72,0,0,0,.8-.69c-.27-.18-.61-.58-.81-.52-1.22.39-1.36-.77-1.56-1.28a19.62,19.62,0,0,1-.55-3.2A11,11,0,0,1,40,114.1a39.55,39.55,0,0,1,8.69-9.94,68.83,68.83,0,0,1,7.84-5.27C60.7,96.46,65,94.11,69.32,92c11.23-5.44,23.11-9,35.24-11.75,3.57-.81,7.06-1.94,10.59-2.89,3.91-1,7.82-2.06,11.73-3.08L128,74c-.59.88-1.21,1.83-2,2.08-3.29,1-6.62,1.87-10,2.57-11.78,2.44-23.56,4.95-34.77,9.4A210.89,210.89,0,0,0,61.6,97.24c-6.39,3.33-12.39,7.34-16.91,13.12a43.07,43.07,0,0,0-3.35,5.27,7.75,7.75,0,0,0-.13,8c.56,1,.71,2.39,1.5,3a7.34,7.34,0,0,0,4,1.74,59.42,59.42,0,0,0,11.48-.3c6.27-1,12.45-2.59,18.66-4,2.17-.48,4.33-1,6.49-1.54l0,.24-7.12,2.31.14.48a6.3,6.3,0,0,0,1.15,0c1.72-.34,3.43-.74,5.16-1.07a42.1,42.1,0,0,0,5.17-1c1.43-.48,3.06.3,4.38-.94.43-.4,1.41-.18,2.13-.32,3.86-.74,7.7-1.66,11.6-2.21s8-.75,12.07-1.11l-1.56-.51.1-.69,16.86.86a7,7,0,0,0-2.52-.85c-5.89-.2-11.78-.41-17.67-.4a53.43,53.43,0,0,0-7.52.85c-4.09.58-8.21,1.09-12.24,2-2.11.45-4.08,1.36-6.35,1.11a13.83,13.83,0,0,0-3.79.51c-6.69,1.24-13.35,2.64-20.06,3.69-3.21.5-6.48,1.23-9.77.42a12.33,12.33,0,0,0-5,0,3,3,0,0,1-1.06-.23l3.4-1.19.23-.67a12.52,12.52,0,0,1-1.54-1c-2-1.84-2.58-5.14-1.92-7.79,1-4.24,4.88-6.42,6.93-9.95,1.2-2.06,4.2-3.1,6.42-4.56.21-.14.6,0,1.07,0-.22.38-.25.51-.33.56a32.43,32.43,0,0,0-10.14,8.82,21,21,0,0,0-2.51,5.37c-.26.67.19,1.69-.16,2.22-1.48,2.2.56,3.13,1.38,4.77l1-1.28a8.45,8.45,0,0,0,6.51,2.93c4.29-.1,8.58-.34,12.86-.65,1.91-.14,3.79-.6,5.68-.91a19.89,19.89,0,0,0-4.28-.11c-4,0-8.07.89-12-.57-1.37-.52-3.34-1.26-3.68-2.32-.81-2.57-1.45-5.51.5-8,1.6-2,3.19-4.22,5.26-5.67a72.12,72.12,0,0,1,11-6.33c4.72-2.17,9.68-3.84,14.53-5.72,2-.77,3.95-1.62,6-2.29,1.69-.56,3.44-1,5.18-1.37,3.53-.81,7-1.72,10.61-2.34,8.27-1.44,16.55-2.77,24.84-4a17.69,17.69,0,0,0,9.5-4.93c.54-.5.54-1.58.79-2.39L144,76a8.52,8.52,0,0,0-.92.88,8.12,8.12,0,0,1-4.64,2.9c-4.89,1.12-9.81,2.15-14.73,3.15-1.94.39-4,1.14-5.86.73-3.08-.7-5.81.23-8.64.79-.87.17-1.6,1-2.47,1.22-8,2.07-16.17,3.75-23.82,7.09C78,94.91,73,97,68.15,99.26a43.18,43.18,0,0,0-12.61,9,13.53,13.53,0,0,0-3.79,5.64,3.65,3.65,0,0,1-.6.94,5.73,5.73,0,0,1,1.63-4.75c2.34-2.48,4.94-4.73,7.45-7,1-.9,2.35-1.34,2.68-2.94a2.85,2.85,0,0,1,1.45-1.67c4.53-2.3,9.07-4.59,13.68-6.71a65.58,65.58,0,0,1,7.33-2.69c4.09-1.33,8.17-2.75,12.34-3.77,5.67-1.39,11.43-2.43,17.14-3.64a4.93,4.93,0,0,0,1.06-.46l-.17-.52A232.18,232.18,0,0,0,91.21,86a5.22,5.22,0,0,1,1.79-.8c8-1.74,15.94-3.39,23.88-5.22,4.43-1,8.79-2.32,13.17-3.54.37-.1.65-.53,1-.81l-.23-.4-2.28.39-.1-.48,3.57-.75-.34,1.15c1.87.08,2.1-.19,1.74-1.79,3-2.3,2.81-5.29-.35-7.09a38.33,38.33,0,0,0-14.11-5,95.63,95.63,0,0,0-13.2-.86c-6,.09-12,.46-18,1.14-3.91.44-7.73,1.68-11.61,2.48-7.76,1.61-15.56,3-23.29,4.77C45.6,70.86,38.38,72.57,31,73.1c-1.54.11-3.1,0-4.64,0l-.08-.66C33.82,71,41.7,71,49.14,68.62a1.71,1.71,0,0,0-1.06-.26c-5.14.4-10.3.88-15.4-.24-2.81-.61-5-2-4.49-4.38,1.69,1.74,2.87,4.52,6.23,3.05.11-.05.31.13.47.17A30,30,0,0,0,39,68a7.87,7.87,0,0,0,2.46-.5l-.1-.48-2.27-.82.16-.64a10.5,10.5,0,0,1,1.59.37c.79.31,1.51,1,2.28,1,3.55.2,7.1.27,10.65.29a20.57,20.57,0,0,0,3.16-.51c1.93-.3,3.88-.57,5.81-.9.3,0,.57-.34.85-.53a36.67,36.67,0,0,1,3.1-2,37.49,37.49,0,0,1,12.4-4.39,51.14,51.14,0,0,0,5.76-1.46l-.1-.58L75,58.41a5.82,5.82,0,0,0-.37-.94c-1.13.24-2.25.56-3.36.87l.15.63,2.42-.2,0,.43c-1.28.11-2.55.26-3.82.32-.55,0-1.19-.35-1.65-.17a23.23,23.23,0,0,0-4.27,2,46.79,46.79,0,0,0-4,3.29A5.75,5.75,0,0,1,61.8,62c2.59-2.17,5.68-3.36,8.87-4.49A56.85,56.85,0,0,1,85,54.44c2.52-.22,5.08-.11,7.6-.32,8.4-.71,16.79-1.59,25.2-2.23a38,38,0,0,0,15-4.52c1.55-.82.87-2.35,1.64-3.34,0-.05-.21-.45-.37-.49-1.3-.26-2.62-1.25-3.91.18a3.9,3.9,0,0,1-1.67.81C121.87,46.75,115,47,108.06,47.29c-5.48.26-11,.48-16.43.84a50.36,50.36,0,0,0-7,1c-3.25.67-6.44,1.56-9.66,2.35-2.41.58-4.84,1.09-7.23,1.74-1.61.43-3.18,1-4.76,1.54,2-.86,4-1.8,6-2.47,2.68-.87,5.45-1.48,8.19-2.17,3.12-.78,6.21-1.67,9.37-2.23,2.8-.49,5.68-.57,8.53-.86a15.68,15.68,0,0,0,1.62-.36l-.07-.5a9.32,9.32,0,0,0-1.58-.06c-1.46.15-2.91.42-4.38.55A84,84,0,0,0,71.74,50.1c-3.53,1.18-7.19,2.08-10.53,3.66-4,1.9-8.45,3.71-9.53,9.1-.56-2.11.87-4.65,2.9-6.18,4.83-3.62,10.37-5.75,16-7.48,7.83-2.39,16-3.39,24.11-4,8-.6,16-.76,23.9-1.43a27.69,27.69,0,0,0,12.07-3.7l4.59-2.78c-5.54,6.17-13.19,7.25-20.79,8.5a1.45,1.45,0,0,0,1,.26c3.27-.53,6.52-1.11,9.79-1.64,5.17-.83,9.28-3.54,12.81-7.26a1.91,1.91,0,0,0,.5-2.59l-1,.64c.28-1.6,1-3.44.78-5.1s.41-3.87-1.83-4.84a15.73,15.73,0,0,1-1.37,3.44A18.18,18.18,0,0,1,132,32.13a25.58,25.58,0,0,1-5.42,4,47.12,47.12,0,0,1-16.57,4c-8.37.57-16.77,1-25.08,2.06-10.2,1.34-20.35,3.09-29.57,8.25-3,1.67-5.93,3.26-8.31,5.75a4.74,4.74,0,0,1-1.21.68,22.13,22.13,0,0,1,8.81-7.6A92.88,92.88,0,0,1,67,44.61c6.3-1.59,12.73-2.71,19.16-3.74,4.79-.76,9.64-1.18,14.48-1.54,5.82-.43,11.65,0,17.4-1.79a62.63,62.63,0,0,0,10.16-4.12c4.75-2.5,8.62-8.36,4.94-14.19-.91-1.43.32-2.12,1.45-2.43,4.31-1.15,8.65-2.21,13-3.29a50.5,50.5,0,0,0,5.1-1.22q7.62-2.76,15.15-5.76a64,64,0,0,0,6.24-3c.44-.22.65-.87,1-1.33l-.42-.4L170,3.54l-.14-.36,2.83-1.54-.15-.53a21.91,21.91,0,0,0-4.32.87c-3,1.24-5.86,2.7-8.75,4.14-.92.45-1.68,1.24-2.62,1.62s-2.08.39-3.09.7c-2.57.79-5.1,1.72-7.68,2.49-4.39,1.3-8.81,2.49-13.21,3.77-2.28.66-2.31.79-1.58,2.95.25.75.43,1.52.61,2.29a9.62,9.62,0,0,1-3.51,10.29c-3.92,3.22-8.75,4.39-13.46,5.68a59.29,59.29,0,0,1-9.05,1.33c-7.14.79-14.28,1.49-21.42,2.24l-5,.52,0-.44,14.26-1.84-.07-.52H91.34c1.79-.28,3.58-.26,5.36-.45,4.82-.51,9.67-.9,14.44-1.73a100.93,100.93,0,0,0,12.32-3.1,11,11,0,0,0,6.2-4.52,13.82,13.82,0,0,0,1.9-5.15c.15-1,.46-2.81-1.45-3.24-.08,0-.17-.33-.13-.46.33-1.14-.3-1.79-1.16-2.29-.56-.33-1.31-1-1.73-.8-1,.37-2.17.85-1.86,2.37.09.44.09.91.15,1.43l-1.33-.61-2.29,2c-.2.18-.48.4-.52.63-.34,2.21-2,2.85-3.76,3.87-6.27,3.74-13.34,3.59-20.17,4.49C86.74,31,76.08,32.08,65.82,35c-8.39,2.38-16.72,5.11-24.44,9.5a45.45,45.45,0,0,0-11.7,10.1,7.87,7.87,0,0,1-.68.6l-.39-.36a66.35,66.35,0,0,1,5.69-6.25c5.87-5.08,12.93-8.08,20.13-10.68a93.19,93.19,0,0,1,14-4.31c10.4-2,20.89-3.49,31.35-5.18,5.37-.87,10.87-1.36,15.8-3.82,2.16-1.08,4-2.89,5.87-4.44.41-.33.55-1,.88-1.65l1.69.16c0-.28-.16-.6-.08-.83.93-2.53-.47-4.37-1.85-6.18a9.18,9.18,0,0,0-1.8-1.32c.14,1.16.22,1.8.29,2.43l-.51.26c-1-.95-2.07-1.91-3.11-2.85a1,1,0,0,0-.43-.27,2.31,2.31,0,0,0-1.22-.15c-.19.06-.34.74-.23,1,.78,2.18-.29,3.68-1.72,5.13a4.55,4.55,0,0,0-.62,1.56,4.93,4.93,0,0,0,1.63-.38,13.11,13.11,0,0,0,1.72-1.62c.28-.26.58-.5.87-.75l.49.54-3.71,3.08L111.86,20a2.62,2.62,0,0,0-3.49,1.37c-14.23,4.55-29.07,4.94-43.47,8a2.57,2.57,0,0,1,1.45-.84c5.67-1.15,11.35-2.21,17-3.43S94.48,22.61,100,21.18a26.6,26.6,0,0,0,11.38-5.77c1.46-1.3.06-2.92,1.29-3.93.14-.11.08-.52,0-.78s-.23-.24-.32-.39c-1.62-2.85-4.2-4.38-7.21-5.43-4.06-1.42-8.25-1.37-12.44-1.29-3.26.07-6.52.37-9.77.59-.66.05-1.32.19-2,.28,0-.15-2.17.23-1.52.23-4.94,1.52-9.82,2.1-14.63,3.5-5.75,1.67-11.44,3.59-17.16,5.38-2.75.87-5.57,1.56-8.27,2.56-8,3-15.94,6.09-23.95,9.06a27.57,27.57,0,0,1-4.5.89c.12-.56.34-.83.62-.9a43.19,43.19,0,0,0,5.32-1.36C20.62,22.33,24.26,20.59,28,19c1.59-.68,3-1.8,4.75-2.05.24,0,.45-.31.65-.5a27.54,27.54,0,0,1,3.51-3.25,56.6,56.6,0,0,1,6.41-3.48q6.16-3,12.44-5.71c2-.88,4.1-1.52,6.16-2.28a6.1,6.1,0,0,0-3.44-.25c-4.28,1.61-8.5,3.4-12.72,5.17-.7.3-1.26.92-2,1.26-3,1.48-6,2.87-8.95,4.38-1.49.76-2.88,1.72-4.32,2.59l-.35-.61C36.49,8.72,44.07,5.15,51.88,1.53c-4-1-6.86,1.57-10.25,2.24L45.76,1.7l-.32-.54c-7.35.79-12.18,5.7-17,10.75A3.69,3.69,0,0,1,29,10.72,30.91,30.91,0,0,1,40.51,1.64a8.52,8.52,0,0,0-8.42,2L31.68,3l2-1.22-.3-.35H5.61V48.82a20.76,20.76,0,0,0,2.62,0c1.78-.25,3.56-.55,5.31-1,.83-.19,1.55-.75,2.37-1,1.78-.59,3.88-.7,5.32-1.73,2.47-1.79,5.63-2.73,7.37-5.52a2.85,2.85,0,0,1,1.26-1.07c2.7-1.13,5.4-2.27,8.15-3.24,6-2.12,12.06-4.24,18.15-6.15,4-1.26,8.15-2.17,12.23-3.23a3,3,0,0,1-.74.47c-2.12.63-4.25,1.2-6.37,1.84-9.68,2.92-19.27,6-28.2,11-6.65,3.69-12.75,7.95-17.72,13.69a33.4,33.4,0,0,0-4.17,6.32c-1.92,3.72-1,7.67-.21,11.49.15.76,1.24,1.46,2.06,1.92,2.37,1.32,4.71,2.91,7.29,3.64,3.57,1,7.32.49,10.94-.27q5.81-1.21,11.56-2.69c7.46-1.9,14.88-3.88,22.33-5.82,1.6-.42,3.22-.78,4.83-1.17l0,.27-5.8,2.07.2.6,24.26-5.14.1.43L70,68.58l.15.73C79,67.86,87.8,65.89,96.79,65.39c-.1.31-.23.44-.37.46C92.21,66.47,88,67,83.81,67.72c-7.63,1.35-15.26,2.7-22.83,4.34-4.47,1-8.8,2.56-13.22,3.74S38.69,78,34.2,79.22c-2.88.8-5.65,1.88-8.73,1.35-1.27-.22-2.57-.24-3.85-.35-.35-.62-.85-1.24-1.31-1.21a8,8,0,0,1-5.89-1.72c-1.35-1.18-3.71-.91-4.33-3.1-.05-.15-.81-.09-1.24-.13a7.76,7.76,0,0,0-.06,1.07c0,.52.13,1,.21,1.56.24.13.6.21.67.41.84,2.32,2.83,3.22,4.87,4.08.09,0,.13.17.2.27l-.91.56c3.5,2.73,13.31,3.76,15.44,1.65L18.8,82.88v-.73A7.86,7.86,0,0,1,20.31,82c3.15.24,6.3.55,9.46.78a2,2,0,0,0,1.44-.4c1-1.14,2.43-1,3.74-1.16a34.46,34.46,0,0,0,3.52-.59c4.81-1.21,9.62-2.4,14.39-3.74,3.87-1.09,7.66-2.5,11.53-3.56,2.78-.77,5.64-1.22,8.47-1.78,5.1-1,10.19-2.07,15.31-3,3.15-.55,6.35-.89,9.53-1.18s6.09-.39,9.14-.55c1,0,2,0,3,0v.23l-3.3.23.06.72,4-.47,2.92-.3c.11,0,.23.11.4.21l-1.35.22c1.89.28,3.76.15,5.59.32a36.44,36.44,0,0,1,5.77,1c1.78.45,3.48,1.17,5.22,1.78l-.13.32-8.93-2.84-.19.59,8.71,3.42L127,73c-1.23-.67-2.2-1.3-3.24-1.74-6.46-2.72-13.33-2.7-20.11-2.58-10,.16-19.82,2.15-29.53,4.5a9.84,9.84,0,0,0-1.7.76,3.78,3.78,0,0,0,2.26.36c3.4-.6,6.79-1.24,10.18-1.89,11-2.13,22-3,33.17-1.47,2.59.36,5.23.82,7.24,3-.89.28-2.1.74-2.61.33-2.7-2.17-6-2.13-9.09-2.52a48.44,48.44,0,0,0-9.93-.12C96.08,72.24,88.55,73,81,73.91a80.59,80.59,0,0,0-10.68,2c-3,.79-5.9,2.19-8.9,3.13q-5.52,1.71-11.14,3.1c-4,1-8.15,1.8-12.21,2.77a7.46,7.46,0,0,0-1.89,1.17l.21.62a5.74,5.74,0,0,0,1.9.19Q47.15,84.55,56,82.13C60,81,64,79.76,68,78.74c2.24-.56,4.59-.68,6.86-1.15,4.44-.92,8.82-2.17,13.29-2.88s9-1,13.44-1.34c2.89-.23,5.79-.34,8.69-.42a19.27,19.27,0,0,1,3,.34l7.55,1v.61c-.67.12-1.51.56-2,.3a7.1,7.1,0,0,0-4.12-.6c-2.92.15-5.71-1.11-8.81-.4s-6.13.35-9.2.62c-4.08.37-8.16.77-12.2,1.39a18,18,0,0,0-6.86,2,11.15,11.15,0,0,1-6.49,1.27,1.84,1.84,0,0,0-1.3.29c-1.17,1.27-2.84.51-4.24,1.15-1.71.77-3.79.69-5.66,1.16-2.41.61-4.79,1.37-7.17,2.12-1,.31-2,.75-2.92,1.13l.16.44c2.43-.53,4.86-1.09,7.3-1.58,1.82-.37,3.68-.58,5.49-1,2.8-.65,5.57-1.4,8.35-2.13s5.32-1.43,8-2.12a22.12,22.12,0,0,1,2.9-.55c1-.11,2,0,3-.13,3.9-.62,7.76-1.52,11.68-1.9,3.71-.36,7.48-.21,11.22-.26,2.09,0,4.18,0,6.28,0l0,.5c-1.7.23-3.39.51-5.09.67-2.28.21-4.44,1.1-6.9.44-2.76-.75-5.45.76-8.18,1.2a15.83,15.83,0,0,0-3.8,1.4,9,9,0,0,0-1.59,1.13l.28.63,5.46-.9a1,1,0,0,1-.64.52c-1.8.49-3.65.84-5.39,1.47q-10.05,3.6-20,7.38c-1.4.52-2.63,1.44-4,2.1A27,27,0,0,1,60,94.57c-2.36.64-4.81,1-7.21,1.49-.24,0-.4.52-.87,1.17l5.82-.66.14.41-2.95,1.47c-3.93,1.94-7.71,4-10.45,7.65-1.22,1.6-2.72,3-4,4.51-1.9,2.19-3.74,4.44-4.17,7.44-.25,1.73-.36,3.47-.56,5.58m-17.78,25,.49.19c-.48,1.46-.95,2.92-1.43,4.39l-.57-.2C16,151.29,17.53,150.15,17.87,148.64ZM11.39,150c-.4.15-.65,1.09-.69,1.69a5.44,5.44,0,0,0,.39,1.73l-1.23,1.67-.36,0q.38-3.3.74-6.62c3.69,1,3.26-3,5.76-4C14.41,146.57,13.89,149,11.39,150Zm102.1-31.46v.21l-5,.25v-.46Zm-69.57-1.64.9,5.62C43.65,121.13,43.35,119.23,43.92,116.87Zm5.7-9c-2,2.14-3.72,4.6-5.41,6.73-.36-2.35,7.19-10.46,11.7-12.4C54,104,51.64,105.78,49.62,107.91Zm9.18-7.35-.19-.36,7.7-4.39.2.35ZM77.21,91l-.12-.3,5.83-2.21.12.32ZM69.05,54.53c5.63-1.45,11.26-3,17-4.06a140,140,0,0,1,14.9-1.65c5.75-.41,11.55-.24,17.25-.93,4.09-.49,8.06-2,12.08-3,.69-.17,1.56-1.07,2,.13s-.64,1.71-1.56,2c-1.27.39-2.59.63-3.9.92-3.61.79-7.2,1.77-10.85,2.3-2.94.42-6,.3-9,.44-4.28.2-8.57.37-12.85.63A107.92,107.92,0,0,0,71.42,55a48.37,48.37,0,0,0-5.65,2.06,40.2,40.2,0,0,0-5.32,2.59,9.6,9.6,0,0,0-1.94,2.27L58,61.75a4.93,4.93,0,0,1,.76-1.54A23.53,23.53,0,0,1,69.05,54.53ZM62.37,55l-5.64,4.1A11.15,11.15,0,0,1,62.37,55Zm-1.16-3.64c1.4-.7,2.75-1.52,4.21-2.09s3.09-.91,4.65-1.35L70,47.36l-3.19.4-.05-.26a58.52,58.52,0,0,0,5.76-1.1c5.28-1.56,10.75-1.87,16.16-2.53,5.14-.62,10.36-.68,15.52-1.23,5.56-.6,11.12-1.29,16.61-2.31a27.35,27.35,0,0,0,8.07-2.94c1.68-.93,2.8-2.85,4.17-4.33.33-.35.64-.71,1-1.07l.35.35-2.82,3.75.4.32,4.73-4.3.34.22c-1.07,1.4-1.91,3.1-3.26,4.14-6.4,5-13.95,6.41-21.83,6.86-8.14.47-16.29,1-24.4,1.77-4.08.4-8.1,1.43-12.14,2.24a63.76,63.76,0,0,0-8,1.89c-2.91,1-5.67,2.46-8.49,3.73a3.3,3.3,0,0,1-1.85.43C58.4,52.7,59.81,52,61.21,51.32Zm-24.61,9,1.86,3.77C36.36,62.72,36,62,36.6,60.33Zm36.15-26,.15.5-11,3.06-.13-.44ZM35.85,57A48.87,48.87,0,0,1,40,52.34a35.63,35.63,0,0,1,5.14-4c7.27-4.63,15.4-7.09,23.68-9.13,2.91-.72,5.86-1.29,8.78-2a1.23,1.23,0,0,0,.71-.65,109.56,109.56,0,0,0-26.89,7l-.16-.4c1.35-.56,2.68-1.16,4-1.65,2.75-1,5.48-2,8.29-2.82,3.83-1,7.7-1.9,11.58-2.71,1.91-.4,3.89-.45,5.82-.81s3.85-1,5.81-1.34c6-.94,12-1.74,18-2.66a18.13,18.13,0,0,0,2.44-.92c2.68-.84,5.38-1.6,8-2.48a19.06,19.06,0,0,0,7-4.46A5,5,0,0,0,123,22c1.41.52,1.07,1.27.24,1.8-2.47,1.58-5,3-7.51,4.55a10,10,0,0,1-1.15.53v.51a4.39,4.39,0,0,0,1.55.12,23.38,23.38,0,0,0,10.27-6.59c.85-.92.79-2.71,1-4.12a7.25,7.25,0,0,0-.13-1.74c1.06,1.05,1.41,4,.76,6.12h1.52a2.14,2.14,0,0,1-.1.78,15.35,15.35,0,0,1-11.58,8.32c-1.44.27-2.82.94-4.27,1.11-4.43.53-8.88.85-13.32,1.37-4.92.58-9.84,1.29-14.76,1.94-1.18.16-2.37.22-3.53.49a8.65,8.65,0,0,0-1.9,1,10.26,10.26,0,0,0-2.47,0c-5.67,1.35-11.38,2.6-17,4.25-5,1.48-10,3.2-14.24,6.29a87,87,0,0,0-7.77,6.74,10.69,10.69,0,0,0-1.49,2.42c-.21.35-.44.68-.66,1-.22-.2-.56-.36-.63-.6S35.65,57.26,35.85,57Zm-1.65,2.5c.08,1.31.15,2.62.22,3.93l-.78,0-.27-4Zm75.61-36.61.12.53-7.85,1.94-.13-.65ZM55.69,15.05l.22.63L48,18.42l-.22-.64ZM33.23,27.46q6.95-2.84,14-5.52c4.83-1.86,9.64-3.78,14.54-5.42,3.3-1.1,6.75-1.74,10.12-2.64.68-.18,1.26-.7,1.93-.88,2.24-.62,4.57-1.78,6.75-1.58a15.68,15.68,0,0,0,6.91-.95c1.34-.47,3.15.62,4.65.38,3.46-.56,6.69.7,10,1.05,1.63.18,3.07,2.18,4.67,3.42l-2.22,1a5.91,5.91,0,0,0-.25-1.66,2.76,2.76,0,0,0-1.15-1.3,20.39,20.39,0,0,0-10.29-1.68,165,165,0,0,0-16.47,1.9,119.7,119.7,0,0,0-13,3.6c-3.41,1-6.8,2.12-10.12,3.38-2.51.94-4.87,2.25-7.34,3.31-3.32,1.43-6.63,2.86-10,4.14-3.12,1.18-6.32,2.16-9.49,3.21a4.75,4.75,0,0,1-.94.1l-.08-.42C28,29.76,30.59,28.54,33.23,27.46Zm68.54-13.34-.06.29c-2.7,0-5.51.48-8-.17-1.79-.46-3.38.07-5,0-3.05,0-6.14.93-9.19,1.58-2.16.46-4.26,1.17-6.41,1.63-.94.2-2-.16-2.92.09-2.39.66-4.71,1.51-7.06,2.28-.84.27-1.72.44-2.53.77-1.29.54-2.52,1.24-3.81,1.77-2.46,1-4.95,2-7.44,3q-7.5,3-15,5.87a9.5,9.5,0,0,1-3.48.68l19.1-7.63c4.17-1.67,8.3-3.47,12.55-4.92A107.25,107.25,0,0,1,74.51,16,130.77,130.77,0,0,1,89.7,13.43c3.62-.35,7.32.17,11,.34A4.46,4.46,0,0,1,101.77,14.12ZM12.13,32l-.21-.53a5.56,5.56,0,0,1,.86-.48c3.47-1.19,6.94-2.4,10.43-3.53a7.94,7.94,0,0,1,2-.12l.1.27ZM32,35c-4.1,1.83-8.09,3.89-12.19,5.72a22.82,22.82,0,0,1-4.09,1l-.11-.43q11.91-5,23.85-10c.15-.06.49.3.86.55C37.38,32.89,34.61,33.81,32,35ZM46,30.11a8.24,8.24,0,0,1-1.22.25l-.15-.42c1.5-.67,3-1.4,4.51-2q7.55-2.85,15.11-5.63a87.58,87.58,0,0,1,9-3.21A131.64,131.64,0,0,1,87.76,16.2c3.45-.46,7-.19,10.49-.23a2.86,2.86,0,0,1,.94.22c1.12.43,2.24.88,3.36,1.32l.1.19c-1-.06-1.94-.07-2.9-.2-1.47-.19-2.92-.65-4.38-.69A62.78,62.78,0,0,0,70.72,21C66.23,22.68,61.66,24.19,57.2,26,53.53,27.49,49.77,28.76,46,30.11ZM62.41,26.2c2.63-1.5,22.11-6,22.83-5.63L84.13,22c-2.17.34-4.24.64-6.31,1-1,.17-2.49.13-2.87.74-1.26,2-3.43,1.21-5,2.07a3.22,3.22,0,0,1-1.43.06L70.43,25l-.13-.46Zm32.71-.37.07.66-8,1.38-.1-.56ZM84.5,27.94C73.6,30,62.66,31.89,52.19,36,53.18,34,78.27,27.57,84.5,27.94Zm24,34.74,9.5.68,0,.34-9.52-.54Zm-8.66,2.08c3.06,0,6.12-.1,9.17,0s6.29.55,9.45.75,5.41,2.57,8.55,2.51l-.18.57c-2.14-.71-4.29-1.41-6.44-2.14-.14,0-.23-.39-.34-.39-6.53-.16-13.06-.29-19.59-.44a2.32,2.32,0,0,1-.67-.26Zm-9.7-.27L90,63.75l9.27-.85,0,.36Z"/><path class="cls-3" d="M146.82,72.08h0l0,0Z"/><path class="cls-3" d="M85.88,170.33a12.86,12.86,0,0,1,2.5-11c4-5.09,9.65-8,15-11.24a39.2,39.2,0,0,1,9.24-3.81c3.07-.91,5.9-2.43,9.19-2.84,7.69-1,15.33-2.33,23-3.55a28.79,28.79,0,0,0,3.83-.74c.64-.19,1.12-.87,1.76-1.16a23.82,23.82,0,0,0,2.47-.82,25.85,25.85,0,0,0,2.81-2.12l-.35-.54a16.3,16.3,0,0,0-1.7.44,52.33,52.33,0,0,1-6.34,2.29c-3.58.77-7.23,1.22-10.87,1.7-10.13,1.34-20.12,3.3-29.57,7.34A53.58,53.58,0,0,0,97.36,149c-5.16,3.55-10.29,7.19-13.8,12.69A8.68,8.68,0,0,0,82,168.53a6.14,6.14,0,0,1-.3,2h-.54c-.23-.43-.71-.91-.64-1.28.43-2.38.45-5,1.61-7a33.37,33.37,0,0,1,6.31-7.63,48.63,48.63,0,0,1,11.72-8.25c1-.46,1.85-1.05,2.78-1.58-.36-.32-.58-.35-.75-.28A52.26,52.26,0,0,0,88,153.72c-2.26,2-4.18,4.4-6.28,6.6-.19.19-.56.21-.85.32,0-.35-.13-.82,0-1,1.14-1.25,2.35-2.42,3.51-3.64,1.58-1.65,2.75-3.64,4.84-4.86,2.68-1.55,5-3.66,7.76-5.12a94.72,94.72,0,0,1,23.46-8.8c4.51-1.05,9-2.13,13.53-3.2,1-.24,2-.5,3-.75l-.12-.48c-.6.08-1.21.11-1.79.24-3,.7-5.93,1.39-8.87,2.14-5.21,1.32-10.52,2.37-15.58,4.1-7.81,2.67-15.45,5.81-21.95,11.16-3.54,2.9-7.45,5.36-10.27,9.08-2.15,2.84-3.87,5.85-4,9.53-.08,1.83.75,3.18,2.54,4.55-.28-2.54-2.05-4.31-1.26-6.71a19.74,19.74,0,0,1,2.76-6.13,11.69,11.69,0,0,1-.5,1.37c-.6,2.21-1.27,4.41-1.66,6.66-.17,1,.23,2.07,1.69,1.9-.92-3.51.22-8.4,2.52-9.61a15.26,15.26,0,0,0-1,2.83c-.11,1,.4,2,.14,2.9-.75,2.5-.33,4.32,2.28,5.3.09,0,.14.2.23.24,1.66.66,3,2.12,5.21,1.91-1.68-1.4-3.8-1.94-4.82-3.82,1.39.76,2.59,1.78,4,2.53s2.73,1.83,4.41,1.22c-1.47-1-3-1.93-4.43-2.94A1.64,1.64,0,0,1,85.88,170.33Zm62.36-34.08.07.51L138.58,138l0-.2ZM84.49,164.06c.13,2.15.22,3.82.34,5.78C83.43,167.93,84.25,166.22,84.49,164.06Z"/><path class="cls-3" d="M78.07,170.67s0,0,0,0v0Z"/><polygon class="cls-3" points="143.84 121.02 143.84 121.02 143.84 121.02 143.84 121.02"/><path class="cls-3" d="M73.93,166.31a21.59,21.59,0,0,1,3.18-6.12,58.9,58.9,0,0,1,7.31-7.25,69.77,69.77,0,0,1,14.67-9.67c8.26-4,17.09-6.25,25.79-8.88,3.46-1,7.11-1.43,10.65-2.24A36.52,36.52,0,0,0,140,130.6a59.88,59.88,0,0,0,7.36-2.84,2.57,2.57,0,0,0,.12-4.73c-1.24-.6-2.43-1.33-3.65-2v1.18l-2-.44,5.53,2.47-.23.49a29.05,29.05,0,0,0-4.43-1.89,120.77,120.77,0,0,0-13.34-2.93,71,71,0,0,0-11.85-.26c-2.71.11-5.38.8-8.08,1.15s-5.31.47-7.94.86c-2.21.32-4.39.88-6.58,1.33l.12.54c4.14-.53,8.28-1.1,12.42-1.58s8.19-1.4,12.22-1.11,8.15-.34,12.18.6,8,1.28,11.79,3.16a3.31,3.31,0,0,1-1.93.15c-3.14-.68-6.25-1.78-9.43-2a130.8,130.8,0,0,0-16.08-.43c-4.83.19-9.63,1.11-14.45,1.65-.86.1-2.26-.49-2.55-.12-1,1.34-2.46.81-3.61,1.07C90.32,126,85,126.89,79.74,128c-3.94.79-7.85,1.67-11.77,2.58a14,14,0,0,0-2.31,1l.16.46a3.19,3.19,0,0,0,.91.07c8.1-1.66,16.19-3.39,24.3-5,5.32-1.05,10.67-1.94,16-2.89a27.38,27.38,0,0,1,3.35-.51c3.27-.2,6.55-.24,9.82-.48a58.67,58.67,0,0,1,16.86,1.48c2.19.47,4.2,2.24,6.67,1.12.11-.05.42.36.64.55l-.52-.15-1.68,2.29c-.27.37-.47,1-.83,1.09-2.07.69-4.16,1.33-6.28,1.85-5.54,1.37-11.12,2.59-16.64,4a120.08,120.08,0,0,0-21.64,8c-6.22,3-11.59,7.23-16.78,11.69a24.49,24.49,0,0,0-7.48,10.16,17.94,17.94,0,0,0-1,6.42c.08,2.46,1.32,3,3.85,2.31A7,7,0,0,1,73.93,166.31Z"/><path class="cls-3" d="M95.14,99.45l-.53.19.58-.15Z"/><path class="cls-3" d="M68.66,120a63.72,63.72,0,0,0,8.31,1.2c.39,0,.84-.33,1.26-.51l-.07-.47c-1.21-.41-2.41-.84-3.63-1.24a2.9,2.9,0,0,1-2.19-3.2c.09-2.36,1.54-3.82,3.28-5.08,3.15-2.28,6.28-4.58,10.07-5.78,4.88-1.55,9.68-3.4,14.62-4.78,3.86-1.08,7.86-1.67,11.81-2.42,2.32-.44,4.66-.8,7-1.12a58.22,58.22,0,0,1,6.18-.6c2.42-.06,4.77-1.21,7.26-.44.32.1.85-.46,1.44-.8a5.24,5.24,0,0,0,1.7.3c5.26-.62,10.59-.78,15.33-3.71a8.65,8.65,0,0,0,3.53-3.94c.59-1.32-.34-4.18-1.49-4.84-.08.07-.2.14-.22.23a3.31,3.31,0,0,0-.1.83,5.86,5.86,0,0,1-3.4,5.81,37.89,37.89,0,0,1-9,3.14c-6.61,1.17-13.32,1.79-20,2.77-5.27.78-10.55,1.58-15.76,2.68-10.08,2.12-20,4.69-28.94,10.21-3,1.86-6,3.81-6.54,7.75-.07.42-.65.75-1,1.13l-.42-.22a5,5,0,0,1,.28-1.48c2.24-4.51,6.13-7.45,10.43-9.5,5.22-2.47,10.77-4.25,16.19-6.3-2.73.74-5.46,1.48-8.18,2.24a9.33,9.33,0,0,1-1.74.48,70.34,70.34,0,0,1,16-5c-1.1.36-2.22.68-3.3,1.08a20.63,20.63,0,0,0-2,.91l7.51-1.69-.13-.52-2.16.27,9-2.16,0,0,2.49-1a3.74,3.74,0,0,0-2.25-.15c-6,1.48-12,2.84-18,4.54-7.2,2.07-14.14,4.83-20.24,9.28a26,26,0,0,0-5.24,5C64.7,115.12,66.06,119.36,68.66,120Z"/><path class="cls-3" d="M100.63,167.81c.83-4.43,3.53-7.58,7.25-9.84a46.13,46.13,0,0,1,7.5-3.68,106.47,106.47,0,0,1,10.48-3.36c2-.54,4.18-.54,6.25-.92a24.18,24.18,0,0,0,3.31-1.1c.43.48,1,1.17,1.78,0,.14-.22.56-.3.87-.39,1.73-.45,3.44.32,5.3-.2s4.13,0,6.21-.1c5.08-.14,10.06-.83,14.65-3.22a3.82,3.82,0,0,0,2.18-4.3c-.35-1.55.55-2.16,1.68-2.7,1.78-.86,3.61-1.64,5.33-2.6a7.85,7.85,0,0,0,1.59-1.74l-.39-.38c-.35.15-.71.27-1,.44-2.09,1.09-4.2,2.15-6.24,3.33a3.59,3.59,0,0,0-1.51,1.67,10,10,0,0,1-8.12,6.68c-2.81.53-5.66.85-8.5,1.16-5.1.57-10.23,1-15.32,1.62-2.44.31-4.81,1.07-7.23,1.55a62.89,62.89,0,0,0-22.36,8.91,15.19,15.19,0,0,0-6.11,7.5c-.37,1-.69,1.95-1,2.93l-.47-.09-.51-2.79.43.25c.48-.54,1.17-1,1.42-1.63,1.34-3.26,3.93-5.32,6.71-7.22,1.05-.72,2.15-1.37,3.22-2l-.36-.54-8.26,5.81a23.93,23.93,0,0,1,4.1-3.76c5.36-3.81,11.48-6.12,17.61-8.2a62.48,62.48,0,0,1,13.28-2.54c7.65-.84,15.35-1.16,23-2a8.59,8.59,0,0,0,6.58-4.09c.92-1.49.46-2.69-1.43-3.46.77,2,.31,3.28-1.78,3.8l1.32.27a31.88,31.88,0,0,1-3.41,1.37,50.8,50.8,0,0,1-7.24,1.73c-7.31.87-14.66,1.45-22,2.28a54.79,54.79,0,0,0-15.86,4.7,40.67,40.67,0,0,0-6.28,3,90.13,90.13,0,0,0-10,7.49c-2.3,2-3.79,6-1.67,8.91a9.27,9.27,0,0,0,6.92,3.94c.37,0,.81-.49,1.18-.74l2.15.89.26-.52c-1.08-.71-2.12-1.46-3.23-2.11C101.33,170.85,100.27,169.71,100.63,167.81Z"/><path class="cls-3" d="M72.77,161c1.46-1.92,2.72-4,4.31-5.79a26.77,26.77,0,0,1,4.18-3.52c2.47-1.83,5-3.65,7.53-5.35A53.87,53.87,0,0,1,94.42,143c2-1,4.12-1.78,6.15-2.73,1.4-.66,2.68-1.62,4.13-2.14,3.82-1.38,7.79-2.29,11.62-3.77,3.67-1.43,7.76-1.81,11.66-2.65l13.26-2.84,0-.44-.56-.18h-.08l1.64-1a1,1,0,0,0-.91-.28c-3.28.85-6.54,1.78-9.84,2.56a29.63,29.63,0,0,1-5.67.9c-1.51.06-3-.51-4.56-.58a18.82,18.82,0,0,0-2.68.56c-5.27.58-10.55,1.11-15.82,1.66a26.42,26.42,0,0,1-4.48.47c-2.71-.19-5.18.54-8.18,1.21l1,.53s.11,0,.17,0,.07,0,.1.07a1.83,1.83,0,0,1-.33,0c-2.22-.45-4.43-.9-6.12,1.25-.06.08-.32,0-.48,0-3.24.68-6.49,1.33-9.72,2.07-1.2.27-2.34.75-3.51,1.13.37.4.65.5.91.46,2.42-.33,4.87-.54,7.26-1.07,5.23-1.17,10.39-2.69,15.65-3.7,4.82-.94,9.74-1.42,14.63-2,1.09-.13,2.23.18,3.35.13a23.85,23.85,0,0,0,2.77-.45c1.73-.28,3.46-.54,5.19-.83,1.32-.22,2.63-.46,3.95-.7l.07.52c-1.43.41-2.84.89-4.29,1.2a76.49,76.49,0,0,0-16.27,5c-1.32.62-2.72,1.05-4.09,1.56l.71-.8-.22-.49-18.37,4.58.17.83c1.22-.21,2.45-.37,3.66-.66,4.6-1.08,9.19-2.21,13.79-3.32a40.8,40.8,0,0,1-4.72,2.75,39.92,39.92,0,0,0-11.76,7c-1.44,1.31-2.71,3-4.37,3.86-3.33,1.8-5.57,4.58-7.77,7.44-.92,1.2-1.53,2.64-2.4,3.88-2.2,3.14-3,6.45-1.6,10.15,2.38-.18,2.24-.25,2.1-2.47a25,25,0,0,1,.58-5.27,32.61,32.61,0,0,1,.72-3.34,1.88,1.88,0,0,1,.52-.78A12.77,12.77,0,0,0,72.77,161Z"/><path class="cls-3" d="M174.67,128.07l-12,5.55-.34-.64c.48-.32.94-.67,1.45-.95,3.11-1.7,6.27-3.32,9.36-5.08,2.05-1.16,2.2-1.78,1.41-4.48a59.89,59.89,0,0,1-14.66,7.28l4.38-2.53-.36-.67c-1.16.5-2.28,1.06-3.46,1.49-2.71,1-2.72,1-1.11,3.31,1.86,2.69,1.72,3.76-1.36,4.76a92.83,92.83,0,0,1-12.78,3.27c-5.24.9-10.58,1.22-15.85,1.93a91.22,91.22,0,0,0-18.38,4.79,39.7,39.7,0,0,0-6.07,2.59c-2.57,1.44-4.84,3.43-7.46,4.74a25.08,25.08,0,0,0-8.07,6.81,9.46,9.46,0,0,0-2.58,6.63c.07,1.14.18,2.33,1.27,3,.2-2.39.4-4.72.59-7.05l.51.37a6.37,6.37,0,0,0,1.34-.89c1.08-1.24,1.88-2.79,3.15-3.76,4.14-3.16,8.2-6.55,12.73-9a67.4,67.4,0,0,1,13.4-5.08,121.65,121.65,0,0,1,11.94-2.33c1.16-.21,2.33-.44,3.51-.55,4.61-.45,9.27-.6,13.82-1.36,3.58-.6,7-1.94,10.54-2.94v0l.08.89c1-1.29,1.68-2.25,2.43-3.27l.76,1a27.15,27.15,0,0,1,3.13-2.14c2.63-1.29,5.36-2.41,8-3.72.51-.25.73-1.08,1.09-1.64Z"/><path class="cls-3" d="M82.78,110c4.37-1.82,8.63-4,13.16-5.27,6.59-1.77,13.39-2.79,20.1-4.13a46.76,46.76,0,0,1,4.67-.87c3.2-.32,6.43-.42,9.64-.74,4.32-.43,8.64-.9,12.93-1.5,3.35-.48,6.7-1.1,9.67-2.9.88-.54,1.88-1.12,1-2.45a5.8,5.8,0,0,1-1.55,1.09,73.52,73.52,0,0,1-9.69,2.45c-8.41,1.14-16.87,2-25.31,2.89a107.3,107.3,0,0,0-21.1,4.2,121,121,0,0,0-12.5,4.65,63.14,63.14,0,0,0-8.37,4.78,5.43,5.43,0,0,0-1.89,2.53c-.5,1.24-.7,2.64.94,3.48,1.25-4.11,1.45-4.38,5.44-6.72A24.54,24.54,0,0,1,82.78,110Z"/><path class="cls-3" d="M152,105.16c-2.19.28-4.38.52-6.56.84-1.66.24-3.29.71-5,.85-4.57.38-9.17.49-13.72,1-6.87.75-13.75,1.51-20.54,2.69a91.13,91.13,0,0,0-12.91,3.56,93.65,93.65,0,0,0-8.63,3.84c.26.22.68.4.83.72.83,1.8,1.78,1,2.92.29a38.26,38.26,0,0,1,5.76-3.13,34.56,34.56,0,0,1,5.9-1.44c6.1-1.23,12.17-2.7,18.32-3.55,8.24-1.14,16.55-1.71,24.81-2.67C146.24,107.8,149.4,107.61,152,105.16Z"/><path class="cls-3" d="M81.6,120c.47-.2,1.15-.34,1.33-.7a10.32,10.32,0,0,1,4.29-4.45,55.25,55.25,0,0,1,8.13-3.38c8.71-3.09,17.89-3.87,26.93-5.22,5.64-.83,11.39-.84,17.07-1.44,4.47-.47,9.07-.32,13.3-2.28.19-.08.48,0,1.08.12L151,104.49a6.77,6.77,0,0,0,6-4.63l-3.48,1.29c-.37.33-1,.09-1.43.29-5.11,2.54-10.72,2-16.13,2.67-3.81.44-7.7.24-11.52.69-5.16.61-10.32,1.34-15.4,2.43a170.3,170.3,0,0,0-17.23,4.49c-4.12,1.34-8.32,3-10.84,7,.4-1.1.79-2.46,1.67-3a58.28,58.28,0,0,1,9-4.78c3.5-1.4,7.23-2.23,10.85-3.37a5.83,5.83,0,0,0,1.43-1l-.32-.34c-1.69.52-3.37,1.1-5.09,1.55-5.37,1.39-10.71,2.93-15.49,5.84a12.27,12.27,0,0,0-3.3,3.32c-.45.62-.25,1.71-.34,2.59.61.05,1.22.08,1.83.15C81.32,119.8,81.5,120,81.6,120Z"/><path class="cls-3" d="M165.75,147.52l-.34-.4-3.48,2.66-.38-.48,2.25-2c-.85.25-1.23.33-1.59.47a41.53,41.53,0,0,1-11.9,2.38c-6.84.41-13.7.77-20.49,1.68-8.62,1.15-16.79,3.88-23.7,9.39a18.47,18.47,0,0,0-4.11,5.46,2.57,2.57,0,0,0,.81,3.69l1.19-3.53-.05.06c0-.34-.24-.82-.09-1a30.57,30.57,0,0,1,4.44-4.51,42.6,42.6,0,0,1,11.16-5.21,63,63,0,0,1,14.44-3.35c2.42-.22,4.85-.45,7.28-.58,3-.17,6-.27,9-.37s5.83-1.17,8.88.06l-.38-1.63,2.78.25-1.85,2.55h4.94c-1.53-1.57.23-2,.84-3.11l-3.43.81C163.24,149.38,165.25,149.22,165.75,147.52Z"/><path class="cls-3" d="M172.82,15.36c-2.58,5.75-6.89,10.06-11.79,14,2.65.71,5.06,2,7.7.73,0,.8.3,1.26,1.24.84.25-.11.76-.16.85,0,.75,1.08,1.25.2,1.76-.21s.68-.76,1-1.11c1.68-1.63,1.71-2.07.27-3.72C175.74,21.86,175.34,17.26,172.82,15.36Zm-4,14.63a9.17,9.17,0,0,1,1.43-2.12,3.83,3.83,0,0,0,1.32-3.62,5.49,5.49,0,0,1,.5-2.28C172.84,25.43,172.2,28.31,168.81,30Z"/><path class="cls-3" d="M114.94,169.75c4-4.23,9.58-5.44,14.86-6.94a48.8,48.8,0,0,1,11.08-1.39c4.73-.2,9.49.25,14.21,0a58.67,58.67,0,0,0,9.29-1.75,7.54,7.54,0,0,0,2-1.16l-.2-.38-3.88,1.53-.28-.7,5.14-2.16c-3.92-1.35-5.9,2.14-9,2.68-.47,0-1.21-.26-1.36-.05-1,1.31-2.22.77-3.43.6a17.12,17.12,0,0,0-2.86-.29c-4.25.09-8.54,0-12.76.43a60.8,60.8,0,0,0-13.12,2.46c-3.82,1.31-7.34,3.64-10.78,5.85-3.17,2-3.49,3.21-2.66,5.74h2.11C112.22,172,113.82,170.92,114.94,169.75Z"/><path class="cls-3" d="M54.31,171.16h0a10.41,10.41,0,0,1,.5-2.61c.65-1.36,1.58-2.58,2.29-3.91a1.66,1.66,0,0,0-.81-2.49c-3.35,4.73-5,9.16-4.45,12.47l2-1.16c-1-1,.14-1.6.5-2.33l0,0h0Z"/><path class="cls-3" d="M112.36,168.35a53.86,53.86,0,0,1,12.91-7.82c-.25,0-.5.06-.75.11-3.59.83-6.6,2.81-9.64,4.76a10.65,10.65,0,0,1-2.1.82c-.39.49-.79,1.46-1.27,1.51a2.21,2.21,0,0,0-2.05,1.94c-.3,1.11-.4,2.28-.59,3.42-.54-2-.56-3.94.94-5.38a41.3,41.3,0,0,1,6.46-5.37c5.6-3.47,12-4.6,18.44-5.31,5-.56,10.18-.43,15.27-.68,4.1-.2,8.2-.43,12.29-.8a12.54,12.54,0,0,0,3.1-1.15l-.18-.53-5.07,1.26-.12-.49,1.83-.65c-1.25-.13-2.47.08-3.19-.41-2.22-1.52-4.25-.17-6.37,0,2.15,1.19,4.86-.79,7.19,1.49a22.51,22.51,0,0,0-2.3-.13c-3,.16-5.92.48-8.88.52-7.09.1-14.17.19-21.1,1.91-5.09,1.27-10.14,2.69-14.18,6.34a2.51,2.51,0,0,1-1,.57c-2.5.66-5.13,3.85-4.84,6.55.24,2.34,1.21,3.53,2.93,3.31C109.94,171.85,110.16,170,112.36,168.35Z"/><path class="cls-3" d="M32.8,91.41c.52-.06,1.47,0,1.52.11.42,1.6,1.69,1.34,2.82,1.46,1.8.19,3.58.34,4.53-1a26.9,26.9,0,0,0,4.15-.24c2.59-.57,5.13-1.37,7.71-2,3.3-.82,6.62-1.53,9.91-2.4A27.13,27.13,0,0,0,67,85.89l-.2-.52L55.64,87.76l.36-1c-.93.11-1.65.14-2.34.29-3,.68-6,1.37-8.93,2.11a36,36,0,0,1-5,1.31c-1.27.12-3.13.73-3.82-.59-.87-1.62-2-.87-3-.9a44.75,44.75,0,0,0-4.9.3c-.75.06-1.5.17-2.25.26l0,.71A15.43,15.43,0,0,0,32.8,91.41Zm17.56-2.52c1.19-.28,2.4-.49,3.6-.73l.15.51-7.36,1.45-.06-.21C47.91,89.57,49.12,89.19,50.36,88.89Z"/><path class="cls-3" d="M104.27,96.84l.08.35,16.56-2.76-.07-.52-6,.7a2.15,2.15,0,0,1,1.22-.55c5.91-.68,11.84-1.25,17.74-2,4.3-.59,8.6-1.34,12.83-2.3A7.61,7.61,0,0,0,151.49,86c1.23-2.16.37-5.41-1.56-6.34-.29,1.21-.58,2.42-.84,3.52l1.37-.76.35.44-3.2,4.37c-.74-.78-1.68-.91-2.52.73h1.85a2.71,2.71,0,0,1-1.59.92c-2.27.42-4.55.85-6.84,1.18-4.53.66-9.07,1.25-13.61,1.88-3.61.51-7.23,1-10.84,1.58-.41.07-.74.68-1.12,1l.19.31-3.51.48,0,0Z"/><path class="cls-3" d="M68.76,143.65c-1.36.14-2.73.24-4.09.4-.93.1-1.85.35-2.78.37-.65,0-1.44-.56-1.94-.35-1.85.83-3.59.11-5.37-.11a9.23,9.23,0,0,0-1.66.07l-.14.57a6.78,6.78,0,0,0,2.17.93,45.33,45.33,0,0,0,8.24-.06c4.62-.68,9.21-1.69,13.76-2.77,2.26-.54,4.35-1.73,6.6-2.31,3.56-.93,7.19-1.59,10.79-2.35,1.78-.38,3.57-.74,5.35-1.11a.78.78,0,0,0-.79-.36c-2.12.34-4.25.64-6.36,1-4.11.77-8.25,1.42-12.29,2.44-3.51.88-6.9,2.21-10.34,3.33A6.41,6.41,0,0,1,68.76,143.65Z"/><path class="cls-3" d="M87.13,130.56c16.46-3.74,33-6.08,49.87-3.19C131,123.27,92.84,125.61,87.13,130.56Z"/><path class="cls-3" d="M72.21,135.57c-4,.87-8,1.65-11.95,2.5a11.61,11.61,0,0,0-1.89.75l.17.66a6.29,6.29,0,0,0,1.6.13c2.68-.44,5.38-.8,8-1.48,4.79-1.26,9.53-2.72,14.29-4.08,1.08-.3,2.18-.55,3.27-.77,2-.4,3.93-.72,5.88-1.16.47-.11.85-.56,1.28-.85l-.26-.58c-1.47.25-3,.45-4.42.77q-6.68,1.47-13.33,3C73.93,134.72,73.12,135.37,72.21,135.57Z"/><path class="cls-3" d="M105.55,107a32.91,32.91,0,0,1,3.22-1c6.73-.91,13.43-2,20.23-2.35,5.36-.26,10.72-.73,16.06-1.29a56.05,56.05,0,0,0,6.46-1.42l-.16-.7a3.49,3.49,0,0,0-.64,0c-3.88.56-7.75,1.2-11.65,1.66-1.95.23-3.95.07-5.91.24q-6.12.52-12.23,1.23c-3.2.37-6.39.84-9.57,1.31-2.07.31-4.13.67-6.17,1.11-.33.07-.54.66-.81,1C104.77,106.88,105.2,107.11,105.55,107Z"/><path class="cls-3" d="M111,140.82c-2.15.67-4.2,1.63-6.71,2.62.64.29.8.42.93.4a3.56,3.56,0,0,0,.81-.24,108.74,108.74,0,0,1,23.5-6.47c7.9-1.24,15.94-1.88,23.43-5,.38-.16.65-.59,1-.89-.47-.1-1-.38-1.39-.26-2.9.83-5.74,1.88-8.66,2.6-3.16.77-6.37,1.33-9.58,1.84A165.8,165.8,0,0,0,111,140.82Z"/><path class="cls-3" d="M44.13,157.61a6.7,6.7,0,0,0,1.09-1.21l-.42-.48L15.5,174l.11.43a13.12,13.12,0,0,0,2.91-.78c2.45-1.28,4.87-2.63,7.21-4.12,4.42-2.81,8.77-5.73,13.16-8.6C40.62,159.83,42.4,158.77,44.13,157.61Z"/><path class="cls-3" d="M118.12,81.78a14.32,14.32,0,0,0-1.51.44l0,.59a8.8,8.8,0,0,0,1.77.07c2.91-.44,5.83-.86,8.71-1.46,3.22-.66,6.38-1.79,9.63-2.19a9.68,9.68,0,0,0,5.9-3.21c.81-.8,1-1.74-.33-2.54a19.3,19.3,0,0,1-1,1.79c-.21.3-.76.73-.85.67-1.49-1-2.46.33-3.56.79-1.69.7-3.19,2-4.93,2.42C127.39,80.21,122.74,80.91,118.12,81.78Z"/><path class="cls-3" d="M146.3,162.64c.09,0,.15-.13.66-.58h-4.81c-6.47,0-12.63,1.65-18.73,3.58a28.48,28.48,0,0,0-5.23,2.42c-1.43.82-2.08,2.6-3.78,3.25-.44.16-.5,1.32-.79,2.2l4.43-3.23c.65-.9.91-1.65,1.4-1.87,4.1-1.85,8.17-3.6,12.82-3.91S141.63,163.29,146.3,162.64Z"/><path class="cls-3" d="M92.28,78.15C81,79.6,70,82.59,59,85.51l.22.88,33.16-7.77Z"/><path class="cls-3" d="M20.42,91v0h0l0,0Z"/><path class="cls-3" d="M66,88.43,88,83l-.23-1c-7.47,1.28-15.07,2.1-22,5.68Z"/><path class="cls-3" d="M103.3,85.42C89.19,87.65,76.22,92.91,64,100,76.55,93.78,89.48,88.42,103.3,85.42Z"/><path class="cls-3" d="M87.09,95.47a7.76,7.76,0,0,0-.9,1.33,4.68,4.68,0,0,0,1.77.25,14,14,0,0,0,2.77-1.18c1-.5,1.93-1.08,2.69-1.51a11.43,11.43,0,0,0,2.86,0c.51-.12.86-.91,1.13-1.22L105.23,92c-.18-1.55-.67-2-1.86-1.69a20.34,20.34,0,0,1-4.48,1c-1.77.07-3,.57-3.72,2.13l-2.11-.52-1.22,1.63-1.46-1,.05.59L88.16,95A2.89,2.89,0,0,0,87.09,95.47Z"/><path class="cls-3" d="M48.12,168.2c1.15-.55,2.31-1.11,3.49-1.59a2.62,2.62,0,0,0,1.92-2.44c-2.25.19-14.76,6.67-19.21,9.9l.17.47c1.08-.36,2.19-.66,3.23-1.12s1.87-1,2.83-1.53C43.06,170.64,45.59,169.42,48.12,168.2Z"/><path class="cls-3" d="M145.47,168.15a9.51,9.51,0,0,1-.37,2.79c-.42.83-1.15,1.66-2.9,1a8.84,8.84,0,0,0,1.76-.76,3.21,3.21,0,0,0,.87-1.18c.07-.14-.26-.68-.35-.66a2.87,2.87,0,0,0-1.32.43c-.8.64-1.51,1.38-2.26,2.08l-.29-.26c.19-.44.39-.89.78-1.81l-3.27,1.36,1.15,1.06-3.4,1.86c2.31,1.12,3.64-1.37,6.13-1.63l-2.14,1.69c2.39.25,4.26.27,5.69-1.55a1.73,1.73,0,0,1,1.11-.63c1.43,0,1.59-.92,1.63-2.14l-1.34.74C146.89,167.74,146.66,167.5,145.47,168.15Z"/><path class="cls-3" d="M83,112.46a89,89,0,0,1,19.16-7.19c.79-.21,1.57-.48,2.35-.73l0-.27a2,2,0,0,0-.73-.13A84.71,84.71,0,0,0,95,106.29c-4,1.43-8,3.11-11.88,4.92-2.89,1.36-5.16,3.49-5.89,6.8-.07.31.3.72.47,1.08.25-.29.7-.57.72-.88C78.71,115.27,80.77,113.68,83,112.46Z"/><path class="cls-3" d="M99,131.37c4-.59,8-1.25,12-1.79,2.18-.29,4.39-.39,6.59-.54s4.15-.25,6.22-.37l.06-.55a6.58,6.58,0,0,0-1.74-.42c-2.39.08-4.78.15-7.14.41-4.94.56-9.86,1.26-14.79,1.87a16.65,16.65,0,0,1-2.12,0C98,130.72,97.74,131.55,99,131.37Z"/><path class="cls-3" d="M98,130h0v0Z"/><path class="cls-3" d="M51.76,167.49l-12.44,6.43c4,.58,4.23.52,7.54-1.26a31.82,31.82,0,0,1,3-1.49C51.7,170.44,52.14,169.7,51.76,167.49Z"/><path class="cls-3" d="M156.19,90.06l-1.12,5.31h-1.92l.3,1.38-8,2.62c.07.26.14.51.22.77l6.24-1.42c0,.07-.09.42-.21.94C156,98.71,158.4,93.41,156.19,90.06Z"/><path class="cls-3" d="M133.5,157.78l0,.52h3c5.42-.07,10.85,0,16.26-.28,2.77-.12,5.69.28,7.94-1.08-4.33,0-8.95-.05-13.57,0A84.93,84.93,0,0,0,133.5,157.78Z"/><path class="cls-3" d="M126.23,155.66h0Z"/><path class="cls-3" d="M111.36,162.67c4-2.21,8.26-3.85,12.41-5.73.83-.38,1.63-.85,2.44-1.27a22.18,22.18,0,0,0-4.19.94,85.06,85.06,0,0,0-10.67,5.12,13.22,13.22,0,0,0-5.64,6.12,4.91,4.91,0,0,0,1.33,5.44,10.11,10.11,0,0,0-.3-1.23,4.63,4.63,0,0,1,.37-4.69C108.37,165.66,109.61,163.64,111.36,162.67Z"/><path class="cls-3" d="M107.35,90.83c2.33,1,4.1-1,6.2-1.08.17,0,.31-.57.53-1,.3.61.49,1,.81,1.69l.69-1.73.67,1.05,2.59-1.26,1.5.66a6.07,6.07,0,0,0,.23-1.18,6.08,6.08,0,0,0-2.39-.68,16.53,16.53,0,0,0-3.1.77c-1.57.39-3.14.8-4.71,1.15a13.85,13.85,0,0,1-1.94.17l-.18.5-.55-1.09a4.25,4.25,0,0,0-.59.3l-1.64,1.61A5.53,5.53,0,0,1,107.35,90.83Z"/><path class="cls-3" d="M162.23,166.71c.05-.24,1.11-.23,1.67-.43a3.15,3.15,0,0,0,1.2-.67c.3-.3.35-.91.68-1.12,1.25-.79,2.63-1.39,3.86-2.22s2.17-1.72,3.24-2.59l-.44-.68c-2.06,1.09-4.22,2-6.15,3.3-1.66,1.09-3,2.63-4.59,3.85a39.9,39.9,0,0,1-3.51,2.22l.24.45C159.79,168.34,161.75,169,162.23,166.71Z"/><path class="cls-3" d="M77.51,130.94c-3.54.77-7.07,1.59-10.62,2.34-1.55.32-3.15.42-4.68.82-.48.13-.79.9-1.18,1.37.52.12,1.1.44,1.55.32,4.85-1.28,9.68-2.63,14.51-4,.62-.17,1.23-.39,1.85-.59l-.13-.48C78.38,130.81,77.94,130.84,77.51,130.94Z"/><path class="cls-3" d="M70.83,140.17c-2.67.37-5.34.8-8,1.17-1.88.25-3.77.4-5.65.67-.4.06-.75.46-1.12.7a5.79,5.79,0,0,0,1.19.65,3.41,3.41,0,0,0,1.35,0q4.56-.8,9.12-1.65c1.64-.3,3.27-.65,4.9-1l-.15-.58A11.09,11.09,0,0,0,70.83,140.17Z"/><path class="cls-3" d="M71,106l15.68-7.17C84.55,97.73,71.73,103.71,71,106Z"/><path class="cls-3" d="M150.74,171.06c4.12-.16,7.84-.22,11.54-.5,4-.3,6.95,2.49,10.74,4.11C171.05,170.34,154.89,167.85,150.74,171.06Z"/><path class="cls-3" d="M155.31,172.57c-.73-.07-1.76.93-2.22-.48-.34.22-.89.39-1,.68a2.65,2.65,0,0,0,.16,1.18h17.06l0-.11c-.82-.1-1.64-.23-2.46-.3C163.06,173.22,159.18,172.94,155.31,172.57Z"/><path class="cls-3" d="M174.53,142.59l-6.29,2.64c.78,1.73,1.36,3,1.94,4.27,4.36-2,4.36-2,4.53-3.15l-3.77,1.37-1.41-1.49c1.53-.52,2.83-1,4.14-1.4C174.8,144.46,175.19,143.83,174.53,142.59Z"/><path class="cls-3" d="M62.67,77.09a70.94,70.94,0,0,0-15.32,4.44C52.66,80.75,57.91,79.73,62.67,77.09Z"/><path class="cls-3" d="M164.82,126.89a5.21,5.21,0,0,0,1.33-.36c2.48-1.44,4.91-3,7.43-4.37,1.38-.77,1.48-1.79,1.15-3.18l-10.11,7.41Z"/><path class="cls-3" d="M167.44,144.12c2.16-1,4.17-2,6.23-2.81,1.29-.54,1.44-1.36,1-2.61-1.92.7-3.75,1.39-5.59,2S167,141.89,167.44,144.12Z"/><path class="cls-3" d="M91.33,137c5.9-1.33,12.12-.81,17.76-3.31C103,133.69,97.17,135.58,91.33,137Z"/><path class="cls-3" d="M67.91,104.16c-.22-.86-.26-.9-.82-.44-2.09,1.7-4.2,3.38-6.22,5.15a17.42,17.42,0,0,0-3,3.2c-1.62,2.38-1.22,5.67.75,7l.68-1.33c1.11,2.49,5.25,3.79,7.29,3.25.05-1.23-.07-2.14-1.77-1.71s-2.69-.78-3.88-1.51l.16-.4,1.24.34-1.69-5.34-.47.07,1-1.33.46,1.19A1.86,1.86,0,0,0,62,111c0-.33.08-.66.12-1h0l0,0a13.28,13.28,0,0,1,5.65-5.48L62.16,110c.33.13.83.46,1,.34,3.09-2.47,6.13-5,9.18-7.5v-.41a5,5,0,0,0-1.46.19C69.85,103.06,68.89,103.63,67.91,104.16Z"/><path class="cls-3" d="M165,137.52c3.19-2.39,7-3.59,10-6l-.41-.59-10.72,5.11C164.4,136.74,164.69,137.12,165,137.52Z"/><path class="cls-3" d="M7.05,51.39a6.58,6.58,0,0,1,.91.32c2.77.88,3.25,1.25,5-1.27.44-.63.95-1.21,1.51-1.93l-2.32.36c-.69,2.09-3.71,2.38-6.27.36l-.27,2.13A13.27,13.27,0,0,1,7.05,51.39Z"/><path class="cls-3" d="M92.2,163.69a3.22,3.22,0,0,0,1.32-.75c1.48-1.43,2.87-3,4.39-4.37,1.3-1.21,2.73-2.29,4.4-3.69-.66.05-1,0-1.16.1-2.21,1.54-4.44,3.06-6.57,4.71a18.57,18.57,0,0,0-2.27,2.48c-.3.34-.59.7-.88,1.05C91.69,163.39,92,163.75,92.2,163.69Z"/><path class="cls-3" d="M62.1,114.62l8.07-7.32C67.44,107.28,62.13,111.9,62.1,114.62Z"/><path class="cls-3" d="M171.8,168.85l0,0,.07-.06Z"/><path class="cls-3" d="M173.45,166.83c1.86-1.14,1.17-2.79,1.38-4.26l-.42-.19c-1.67,2.37-3.33,4.75-5,7.18,1.12.78,1.7-.22,2.42-.71A7.91,7.91,0,0,1,173.45,166.83Z"/><path class="cls-3" d="M139.9,126.17c-6-2.15-12.32-2.42-18.63-2.57l0,.44c3.17.25,6.36.36,9.51.8s6.07,1.19,9.1,1.8Z"/><path class="cls-3" d="M90.13,2.09l0,.05h0Z"/><path class="cls-3" d="M174.87,152.55c-2.37.93-4.77,1.44-4.93,4.45,3.64-.39,4.94-1.09,4.58-2.55l-2.93,1.21C172.37,154,174.71,154.72,174.87,152.55Z"/><path class="cls-3" d="M173.44,94.55c1.15-.53,1.82-1.3,1.13-3.08L168.79,95C170.85,96.41,172.11,95.17,173.44,94.55Z"/><path class="cls-3" d="M127.93,147.92a81.58,81.58,0,0,0-18.73,6.59Z"/><path class="cls-3" d="M151.34,169.4a6,6,0,0,0,1.77-.55c1.83-1,3.63-2.15,5.43-3.24l-.25-.44-5.67,2.09a7.16,7.16,0,0,0-1.89.74c-.35.26-.42.91-.62,1.39A5.63,5.63,0,0,0,151.34,169.4Z"/><path class="cls-3" d="M96.53,173.52l-7.32-5.12C89.08,170.92,93,174,96.53,173.52Z"/><path class="cls-3" d="M114.12,165.26a17.34,17.34,0,0,1,3.19-2.15c3.06-1.21,6.2-2.23,9.32-3.27,1.14-.38,2.34-.57,3.51-.85l-.23-.7c-5.78,1.14-11.46,2.54-16,6.62Z"/><path class="cls-3" d="M132.3,85.23c-.23.06-.35.55-.52.83.4.18.87.57,1.21.48,1.83-.48,3.64-1.05,5.43-1.68a8.23,8.23,0,0,0,1.58-1l-.38-.45C137.18,84,134.73,84.57,132.3,85.23Z"/><path class="cls-3" d="M136.7,171.9c-1.87.56-3.72,1.19-5.59,1.71-.4.11-1.22,0-1.28-.21-.47-1.61-1.48-1.09-2.41-.65-.34.16-.56.58-.84.89.42.11.83.26,1.25.33.26.05.57-.11.81,0,3.24,1,6-.12,9-1.94C137.1,171.93,136.88,171.84,136.7,171.9Z"/><path class="cls-3" d="M164.88,162.22l-9.73,6.36C157.4,168.49,164.43,163.79,164.88,162.22Z"/><path class="cls-3" d="M172.9,151.31c1.36-.28,2.42-.76,1.71-2.69-1.25.53-2.38,1-3.45,1.52-.42.22-.95.69-1,1.1a6.38,6.38,0,0,0,.39,2l.76.24C170.64,151.42,171.92,151.52,172.9,151.31Z"/><path class="cls-3" d="M114.16,147l-8.38,3.59C106.86,151.56,113.16,149.06,114.16,147Z"/><path class="cls-3" d="M170.22,166.91l-1.24.41-.14-.26,3.16-2.37-.37-.46-5.92,4.08c.77.16,1.08.2,1.38.29C168.23,168.93,170.49,167.8,170.22,166.91Z"/><path class="cls-3" d="M137.52,170.29c-2.4.94-5.29.4-7.28,2.51C132.68,172,135.62,172.61,137.52,170.29Z"/><path class="cls-3" d="M103.69,169.33c0,.22.35.47.54.7a4.17,4.17,0,0,0,.49-.72,19.47,19.47,0,0,1,1.63-4,29.38,29.38,0,0,1,3.62-3.7l-.37-.4c-1.06.91-2.18,1.77-3.16,2.76s-1.66,2-2.48,2.95l.05-.06C103.9,167.67,103.73,168.5,103.69,169.33Z"/><path class="cls-3" d="M115.75,147.27l9.47-2.5L125,144l-9.46,2.55Z"/><path class="cls-3" d="M90.19,119.2c1.57.2,6.11-1.83,6.72-3.43l-6.93,3Z"/><path class="cls-3" d="M127.41,89.89a13,13,0,0,0,6.64-.82l-.08-.81-6.66.82C127.35,89.35,127.38,89.62,127.41,89.89Z"/><path class="cls-3" d="M137.91,38.72a4.23,4.23,0,0,0-1.07.51c-.57.46-1,1.06-1.61,1.5-1,.76-1,1.51-.81,1.51,1.19-.66,2.43-1.25,3.54-2C138.19,40.07,137.94,39.24,137.91,38.72Z"/><path class="cls-3" d="M63.39,114.93c-.2.18-.46.49-.43.69a10.76,10.76,0,0,0,.67,2.61c.16.33.89.4,1.2.53,0-1.29,0-2.28,0-3.27a6.17,6.17,0,0,0-.37-1.35A10.29,10.29,0,0,0,63.39,114.93Z"/><path class="cls-3" d="M25.46,170.71l-5.84,3.35C22.45,174.53,24.75,173.29,25.46,170.71Z"/><path class="cls-3" d="M25.78,173.3c2.48.24,3.81-1.64,5.46-2.94A7.57,7.57,0,0,0,25.78,173.3Z"/><path class="cls-3" d="M130.09,85.66c-1.53.18-3.06.34-4.57.6-.27,0-.47.49-.71.75.32.18.67.54,1,.5,1.6-.24,3.18-.59,4.77-.9l-.08-.63C130.33,85.87,130.19,85.65,130.09,85.66Z"/><path class="cls-3" d="M174.61,136c-1.55,1.42-4,1.18-4.83,3.36C174.75,137.32,174.75,137.32,174.61,136Z"/><path class="cls-3" d="M75.79,118l3.48-5.08C76.21,114.11,74.79,116.28,75.79,118Z"/><path class="cls-3" d="M171.77,168.89l.07,0h0Z"/><path class="cls-3" d="M172.85,170.26c.74-.43,1.41-1,2.28-1.61l-1.15-.42.81-1.66-2.95,2.27c0,.5-.05,1-.08,1.51C172.13,170.33,172.57,170.43,172.85,170.26Z"/><path class="cls-3" d="M145.35,130.61,139,132.17l.17.72,6.36-1.46Z"/><path class="cls-3" d="M78.61,173.16a12.17,12.17,0,0,0,3.07,1.35l.06-.35-3.69-3.46C77.17,171.75,78,172.67,78.61,173.16Z"/><path class="cls-3" d="M78.06,170.68h0Z"/><path class="cls-3" d="M50.86,171.38l-5.52,2.78C47.82,174.31,50.8,172.79,50.86,171.38Z"/><path class="cls-3" d="M91.58,169.08v-5.3C89.74,166.12,90,168.74,91.58,169.08Z"/><path class="cls-3" d="M143.84,121Z"/><path class="cls-3" d="M135.35,119c1.6.54,3.22,1,4.85,1.37,1.19.28,2.41.47,3.62.69C141,120.24,138.38,118.77,135.35,119Z"/><path class="cls-3" d="M51.93,86.13l-6.45,1.51.14.59L52.1,86.8Z"/><path class="cls-3" d="M139.6,73.42l-1.81-2.16a13.19,13.19,0,0,0-.33,2.11c0,.18.59.57.86.53A5.16,5.16,0,0,0,139.6,73.42Z"/><path class="cls-3" d="M65.22,74.17l-5.63,1.65.18.59,5.71-1.47Z"/><path class="cls-3" d="M74.08,100.6c.7,0,1.65-.42,2.06-.1,1.19.93,1.36,0,1.88-.69C76.44,98.78,75.17,99,74.08,100.6Z"/><path class="cls-3" d="M95.19,99.49l.21-.1-.26.06Z"/><path class="cls-3" d="M124.14,87.17l-1.29-.93-1.71,1.18c.37.24.8.74,1.09.67A8.38,8.38,0,0,0,124.14,87.17Z"/><path class="cls-3" d="M107.71,46.64l5.34-.44-.06-.73-5.34.47Z"/><path class="cls-3" d="M144.31,86.64,140.18,88A3,3,0,0,0,144.31,86.64Z"/><path class="cls-3" d="M5.86,173.61l2.76-1.86C5.82,171.15,5.24,171.61,5.86,173.61Z"/><path class="cls-3" d="M90,97.84l4.62-1.34A3.76,3.76,0,0,0,90,97.84Z"/><path class="cls-3" d="M80.57,99l3.08-1.13-2.1-1.43Z"/><path class="cls-3" d="M131.93,119.08h-9.09l9.08.42Z"/><path class="cls-3" d="M128.79,128.7l0-.5-3.5-.3,0,.8Z"/><path class="cls-3" d="M162.5,171.67l5,1C165.67,171.21,163.71,170.93,162.5,171.67Z"/><path class="cls-3" d="M34.84,82.44l-3.21.62.13.75L35,83.36Z"/><path class="cls-3" d="M153.61,140.62l3.26-.72-.16-.59C155.58,139.44,154.26,138.87,153.61,140.62Z"/><path class="cls-3" d="M57.49,134.62a3.73,3.73,0,0,0,.33-1.38l-2.13.34.08.64C56.26,134.7,56.66,135.74,57.49,134.62Z"/><path class="cls-3" d="M146.83,72.07l0,.06.05,0Z"/><path class="cls-3" d="M95.86,130.16c-.36.24-.4,1-.59,1.48l.39.15L98,130C97.21,128.86,96.45,129.77,95.86,130.16Z"/><path class="cls-3" d="M76.83,139.86l-3.71.92.15.62,3.69-.85Z"/><path class="cls-3" d="M130.68,155.08a6.45,6.45,0,0,0-1.73-.16,23.64,23.64,0,0,0-2.71.74h4.43Z"/><path class="cls-3" d="M126.23,155.66Z"/><path class="cls-3" d="M58.15,84.85l-3.21.82.16.6,3.21-.79Z"/><path class="cls-3" d="M72.11,101c.19.39.28,1,.58,1.13a6.29,6.29,0,0,0,1.81.27l0-.67c-.45-.17-.88-.36-1.34-.5A9.74,9.74,0,0,0,72.11,101Z"/><path class="cls-3" d="M166,149.52a8.17,8.17,0,0,0,.72.46c.43-.54.81-1.12,1.2-1.69l-.74-.51Z"/><path class="cls-3" d="M173.54,31.57a5.89,5.89,0,0,0,.82.36l.66-2.15-.8-.24C174,30.21,173.72,30.88,173.54,31.57Z"/><path class="cls-3" d="M119.24,30.88a3.41,3.41,0,0,0,1.21-.56c.75-.49,1.41-1.33,2.2-1.47,2.54-.46,3.71-2.14,4.57-4.21l-.49-.56c-.67.56-1.31,1.16-2,1.69-1,.76-2,1.53-3,2.21s-2.09,1.11-3.09,1.73c-.27.17-.36.62-.53.94A3.33,3.33,0,0,0,119.24,30.88Z"/><path class="cls-3" d="M116.13,31.2c-.3-.36-.58-1-.88-1A3.14,3.14,0,0,0,112,31.81l3.78-.19Z"/><path class="cls-3" d="M111.84,33l-.09-.71-3.63.37.14.88Z"/></g><path class="cls-3" d="M10.81,194.4a10.93,10.93,0,0,1-7.88-2.81Q0,188.79,0,183.27a10,10,0,0,1,3-7.66,10.73,10.73,0,0,1,7.68-2.88,7.91,7.91,0,0,1,.83,0l.37,0,.37,0,.34.06.3,0a2.26,2.26,0,0,1,.56.17,2.87,2.87,0,0,0,.49.18l.47.2.23.11.17.09.07.05.13.07.17.09.29.16,1.12-.84h.17v7.24h-.46q-2-6.94-5.62-6.94c-1.32,0-2.42.8-3.3,2.41S6.08,180,6.08,183.27c0,3.57.45,6.17,1.37,7.83s2,2.5,3.36,2.5q3.51,0,5.61-7.24h.46v7.52h-.17l-1.12-.82a1.29,1.29,0,0,1-.28.16l-.16.09-.14.07-.07,0-.17.09-.24.12-.46.2a4.45,4.45,0,0,0-.48.16,2.87,2.87,0,0,1-.57.17l-.3.06a2.2,2.2,0,0,1-.33.07l-.76.08A7.82,7.82,0,0,1,10.81,194.4Z"/><path class="cls-3" d="M33.74,190.79a5.32,5.32,0,0,0,.3,2,1.07,1.07,0,0,0,1.15.6v.41L29,194l-.15-.14v-2.29q-2.79,2.57-4.84,2.57a3.61,3.61,0,0,1-2.69-.94,3.39,3.39,0,0,1-.95-2.6v-7.17a5,5,0,0,0-.28-2A.94.94,0,0,0,19,181l-.06-.39,1.8-.32,4.5-.85v10.8q0,1.32,1.2,1.32a4.6,4.6,0,0,0,2.41-.94v-7.17a4.84,4.84,0,0,0-.28-2,.94.94,0,0,0-1.09-.44l-.06-.39,1.81-.32,4.51-.85Z"/><path class="cls-3" d="M57.24,191l.28.14a4.22,4.22,0,0,1-4.36,3,2.63,2.63,0,0,1-2.18-.88,3.23,3.23,0,0,1-.71-2.18V180.18H48.89v-.63a7,7,0,0,0,1.26-.11,10.84,10.84,0,0,0,1.53-.38,2.89,2.89,0,0,0,1.46-1,2.83,2.83,0,0,0,.54-1.77,3.52,3.52,0,0,0-1.12-2.65,4.73,4.73,0,0,0-3.26-1q-4.27,0-4.27,4.08a4.61,4.61,0,0,0,1.71,3.9v3.32l-.39,0a10.42,10.42,0,0,0-2.19-3,3.62,3.62,0,0,0-2.4-1.09,1.21,1.21,0,0,0-1,.38,1.6,1.6,0,0,0-.33,1.09,2,2,0,0,0,.77,1.45,9.25,9.25,0,0,0,1.89,1.39c.94.55,1.69,1,2.24,1.37a7.74,7.74,0,0,1,1.89,1.75A3.65,3.65,0,0,1,48,189.5,4,4,0,0,1,46.32,193a7.31,7.31,0,0,1-4.13,1.13,18.52,18.52,0,0,1-5.19-.85V189h.43a9.65,9.65,0,0,0,2,3.18,3.81,3.81,0,0,0,2.76,1.44,1.82,1.82,0,0,0,1.37-.49,1.75,1.75,0,0,0,.47-1.29,2.15,2.15,0,0,0-.75-1.52,8.31,8.31,0,0,0-1.8-1.32q-1-.53-2.13-1.26a6.46,6.46,0,0,1-1.81-1.66,3.62,3.62,0,0,1-.74-2.19,4.28,4.28,0,0,1,1.4-3.4,5.37,5.37,0,0,1,3.61-1.2,9.55,9.55,0,0,1,3,.47l.14-.14a4.87,4.87,0,0,1-1.81-3.31,3.5,3.5,0,0,1,1.75-3.2A8.61,8.61,0,0,1,49.33,172a6.85,6.85,0,0,1,4,1.23,3.69,3.69,0,0,1,1.84,3v3.31h2.13v.63H55.14V191c0,.67.28,1,.84,1a1.32,1.32,0,0,0,.74-.32A1.67,1.67,0,0,0,57.24,191Z"/><path class="cls-3" d="M65.71,194.16a6.86,6.86,0,0,1-5.35-2,8.89,8.89,0,0,1,0-10.86,6.86,6.86,0,0,1,5.35-2,6.88,6.88,0,0,1,5.36,2,9.09,9.09,0,0,1,0,10.86A6.89,6.89,0,0,1,65.71,194.16Zm0-.56c.72,0,1.25-.53,1.61-1.61a28.8,28.8,0,0,0,0-10.58c-.35-1.06-.89-1.58-1.61-1.58s-1.28.52-1.6,1.58a27.17,27.17,0,0,0,0,10.58C64.44,193.07,65,193.6,65.71,193.6Z"/><path class="cls-3" d="M97.33,190.79a5.11,5.11,0,0,0,.31,2,1.12,1.12,0,0,0,1.14.66v.4H91v-.4a1.12,1.12,0,0,0,1.14-.66,5.11,5.11,0,0,0,.31-2v-7.6q0-1.32-1.2-1.32a4.34,4.34,0,0,0-2.25.86v8.06a6,6,0,0,0,.25,2,.92.92,0,0,0,.92.66v.4h-7v-.4a.92.92,0,0,0,.91-.66,6.16,6.16,0,0,0,.26-2v-7.6q0-1.32-1.2-1.32a4.74,4.74,0,0,0-2.27.8v8.12a5.11,5.11,0,0,0,.31,2,1.13,1.13,0,0,0,1.15.66v.4h-7.8v-.4a1.14,1.14,0,0,0,1.15-.66,5.18,5.18,0,0,0,.32-2v-7.34a4.92,4.92,0,0,0-.29-2,.94.94,0,0,0-1.1-.44l0-.39,1.8-.32,4.51-.85v2.26q2.68-2.43,4.62-2.43,3,0,3.46,2.6,2.73-2.6,4.78-2.6a3.76,3.76,0,0,1,2.71.91,3.56,3.56,0,0,1,1,2.63Z"/><path class="cls-3" d="M100.06,193.88v-.4a1.14,1.14,0,0,0,1.15-.66,5.18,5.18,0,0,0,.32-2v-7.34a4.72,4.72,0,0,0-.3-2,.93.93,0,0,0-1.09-.44l0-.39,1.8-.32,4.51-.85v11.35a5.11,5.11,0,0,0,.31,2,1.13,1.13,0,0,0,1.14.66v.4Zm3.9-15.94a2.71,2.71,0,0,1-2-.83,2.78,2.78,0,0,1,0-4,2.88,2.88,0,0,1,4,0,2.75,2.75,0,0,1,.77,2,2.68,2.68,0,0,1-.79,2A2.71,2.71,0,0,1,104,177.94Z"/><path class="cls-3" d="M120.73,189.5A4,4,0,0,1,119,193a7.29,7.29,0,0,1-4.13,1.13,18.52,18.52,0,0,1-5.19-.85V189h.43a9.52,9.52,0,0,0,2,3.18,3.78,3.78,0,0,0,2.75,1.44,1.86,1.86,0,0,0,1.38-.49,1.78,1.78,0,0,0,.46-1.29,2.17,2.17,0,0,0-.74-1.52,8.4,8.4,0,0,0-1.81-1.32q-1-.53-2.13-1.26a6.29,6.29,0,0,1-1.8-1.66,3.56,3.56,0,0,1-.75-2.19,4.28,4.28,0,0,1,1.4-3.4,5.38,5.38,0,0,1,3.62-1.2,9,9,0,0,1,4,.94l.8-.66h.17v4.35H119A9.74,9.74,0,0,0,116.8,181a3.79,3.79,0,0,0-2.35-1.15,1.17,1.17,0,0,0-1,.38,1.55,1.55,0,0,0-.34,1.09,2.06,2.06,0,0,0,.77,1.45,9.25,9.25,0,0,0,1.89,1.39c.94.55,1.69,1,2.24,1.37a7.74,7.74,0,0,1,1.89,1.75A3.65,3.65,0,0,1,120.73,189.5Z"/><path class="cls-3" d="M130.66,190.33a5.44,5.44,0,0,0,2.7-.63,3.89,3.89,0,0,0,1.58-1.46l.36.11a7.8,7.8,0,0,1-2.14,4.08,6,6,0,0,1-4.48,1.68,5.68,5.68,0,0,1-4.59-2.15,7.8,7.8,0,0,1-1.8-5.27,7.7,7.7,0,0,1,1.9-5.28,6.8,6.8,0,0,1,7.28-1.69,5.64,5.64,0,0,1,1.75,1.14,8,8,0,0,1,1.2,1.56,7.54,7.54,0,0,1,.72,1.64,6,6,0,0,1,.19,1.48h-8.51a6.46,6.46,0,0,0,1.07,3.44A3.19,3.19,0,0,0,130.66,190.33ZM129,179.93c-.7,0-1.23.49-1.61,1.48a9.73,9.73,0,0,0-.63,3.41h4a15.66,15.66,0,0,0-.43-3.41C130.13,180.42,129.68,179.93,129,179.93Z"/><path class="cls-3" d="M160.65,173.7c-.57,0-1.05.37-1.44,1.12a5.79,5.79,0,0,0-.6,2.73v12a5.57,5.57,0,0,0,.6,2.69c.38.77.86,1.15,1.44,1.15v.46h-9.4v-.46c.57,0,1.05-.38,1.45-1.15a5.72,5.72,0,0,0,.58-2.69V176.51l-5.83,17.37h-1.07l-6.89-15.59v11.29a5.57,5.57,0,0,0,.6,2.69c.37.77.86,1.15,1.44,1.15v.46h-5.11v-.46c.57,0,1.06-.38,1.46-1.15a5.84,5.84,0,0,0,.57-2.69V176.13a8.19,8.19,0,0,0-1.37-1.75,2,2,0,0,0-1.23-.68v-.47h7.34L149,186.11l4.3-12.88h7.37Z"/><path class="cls-3" d="M170.05,190.33a5.44,5.44,0,0,0,2.7-.63,3.89,3.89,0,0,0,1.58-1.46l.36.11a7.8,7.8,0,0,1-2.14,4.08,6,6,0,0,1-4.48,1.68,5.68,5.68,0,0,1-4.59-2.15,7.8,7.8,0,0,1-1.8-5.27,7.7,7.7,0,0,1,1.9-5.28,6.8,6.8,0,0,1,7.28-1.69,5.64,5.64,0,0,1,1.75,1.14,8,8,0,0,1,1.2,1.56,7.54,7.54,0,0,1,.72,1.64,6,6,0,0,1,.19,1.48h-8.51a6.46,6.46,0,0,0,1.07,3.44A3.19,3.19,0,0,0,170.05,190.33Zm-1.63-10.4c-.7,0-1.23.49-1.61,1.48a9.73,9.73,0,0,0-.63,3.41h4a15.66,15.66,0,0,0-.43-3.41C169.52,180.42,169.07,179.93,168.42,179.93Z"/></g></svg>