<svg id="Layer_1" data-name="Layer 1" xmlns="http://www.w3.org/2000/svg" width="200mm" height="200mm" viewBox="0 0 566.93 566.93"><defs><style>.cls-1{fill:#936616;}.cls-2{fill:#007f36;}.cls-3{fill:#006027;}.cls-4{fill:#39b54a;}</style></defs><path class="cls-1" d="M217.65,70.31l-2.92-.69c3.59-15,9.28-25.86,13-33,1.45-2.76,2.94-5.6,3.19-6.81-1.66.19-6.85,2.73-13.08,9.24A65.75,65.75,0,0,0,201.8,68.71l-2.91-.7A67.74,67.74,0,0,1,215.71,37C222,30.36,228.88,26.13,232,26.87a2.47,2.47,0,0,1,1.74,1.38c.82,1.81-.48,4.29-3.33,9.73C226.73,45,221.15,55.67,217.65,70.31Z"/><path class="cls-2" d="M168.82,399.21a64.6,64.6,0,0,1-16.24-6.43,27.69,27.69,0,0,0-5.09-2.24c-2.74-.87-5.42-1.56-8-2.24-11.21-2.91-21.77-5.66-34.17-21.17a28.66,28.66,0,0,0-6.3-5.82c-1.15-.78-2.29-1.53-3.43-2.28-6.53-4.27-13.29-8.69-18.17-18.19a32.75,32.75,0,0,0-5.76-8.25c-3.84-3.85-6.28-9.61-8.63-15.18-1-2.39-2-4.65-3-6.7a29.79,29.79,0,0,0-3.11-4.58c-2.34-3-5-6.43-5.63-12.33a29,29,0,0,0-3.1-10.17c-2.16-4.21-4.08-8.46-3.78-14.13a29.46,29.46,0,0,0-1-9.35l-.3-1.08c-1.76-6.33-3.59-12.88-2.33-19.76a24.68,24.68,0,0,0,.24-8.59c-2.25-13.47.87-22.09,4.17-31.2.49-1.37,1-2.74,1.47-4.14a28.77,28.77,0,0,0,1.44-8.31c.52-15,5.83-21.63,11.46-28.7.52-.64,1-1.28,1.54-1.94a29.57,29.57,0,0,0,5.22-10.64c3.1-11.62,8.25-15.8,13.7-19.39a29.58,29.58,0,0,0,10.36-11.62,44,44,0,0,1,29.94-23.94,28.66,28.66,0,0,0,12-6.23c8.95-7.72,22-12.45,39.95-14.46a30.84,30.84,0,0,0,7-1.68c10.13-3.65,16.14-2.19,21.45-.9a32.47,32.47,0,0,0,8,1.23c3.54,0,6.9-.28,10.14-.55,9.74-.82,18.93-1.59,31.1,4.74a28.43,28.43,0,0,0,8.8,2.93c1.26.19,2.51.36,3.75.52l.16,0c7.68,1,15.63,2.08,23.85,9.37a28.59,28.59,0,0,0,10.32,5.91c10.09,3.25,14,8.46,17.42,13.06l.07.09a29.58,29.58,0,0,0,9.93,8.47c9.19,4.81,15.56,9.94,21,21.88l-2.73,1.24c-5.06-11.21-10.8-15.84-19.61-20.47a32.58,32.58,0,0,1-10.95-9.32l-.06-.09c-3.48-4.65-6.76-9-15.94-12a32,32,0,0,1-11.39-6.52c-7.53-6.69-15-7.68-22.26-8.64l-.15,0c-1.27-.17-2.54-.34-3.82-.54a31.32,31.32,0,0,1-9.73-3.23c-11.39-5.93-20.17-5.2-29.46-4.41-3.31.27-6.73.56-10.39.56A35.15,35.15,0,0,1,200,70.49c-5.37-1.31-10.45-2.54-19.72.8a34.1,34.1,0,0,1-7.73,1.84c-17.31,2-29.84,6.44-38.32,13.75A31.68,31.68,0,0,1,121,93.76a41,41,0,0,0-27.93,22.33,32.54,32.54,0,0,1-11.41,12.82c-5,3.25-9.62,7.06-12.45,17.66a32.63,32.63,0,0,1-5.75,11.71l-1.56,2c-5.31,6.67-10.33,13-10.81,26.94a31.32,31.32,0,0,1-1.61,9.18c-.48,1.41-1,2.8-1.48,4.18-3.17,8.74-6.15,17-4,29.69a27.87,27.87,0,0,1-.25,9.62c-1.13,6.2.6,12.41,2.27,18.42l.3,1.08a32,32,0,0,1,1.1,10.31c-.26,4.92,1.49,8.77,3.46,12.6a32,32,0,0,1,3.41,11.22c.54,5,2.72,7.85,5,10.81a30,30,0,0,1,3.42,5.07c1.09,2.14,2.06,4.44,3.09,6.88,2.24,5.31,4.56,10.79,8,14.24a35.77,35.77,0,0,1,6.3,9c4.52,8.8,10.94,13,17.14,17,1.16.76,2.32,1.52,3.48,2.31a31.84,31.84,0,0,1,7,6.43c11.77,14.73,21.86,17.35,32.54,20.13,2.66.69,5.37,1.4,8.19,2.29a29.85,29.85,0,0,1,5.65,2.49,62,62,0,0,0,15.5,6.13Z"/><path class="cls-3" d="M334.92,482.76a120.34,120.34,0,0,1-17-1.3,22.26,22.26,0,0,0-3.19-.24h-2.06c-18.14.07-36.87.12-55-10.07a20.15,20.15,0,0,0-3.87-1.71c-2.57-.82-5.16-1.49-7.66-2.14-11.76-3.06-23.87-6.2-37.62-23.41a22.36,22.36,0,0,0-4.88-4.51c-1.06-.72-2.11-1.41-3.16-2.09l-.17-.11c-6.9-4.52-14.73-9.64-20.39-20.66a26.2,26.2,0,0,0-4.58-6.63c-4.74-4.75-7.43-11.11-10-17.25-1-2.29-1.88-4.44-2.81-6.28a23.25,23.25,0,0,0-2.45-3.54c-2.59-3.33-6.12-7.89-7-15.62a22.62,22.62,0,0,0-2.41-7.9c-2.38-4.62-4.88-10.16-4.5-17.44a22.53,22.53,0,0,0-.76-7.27l-.3-1.07c-1.87-6.72-4-14.32-2.46-22.68a18.47,18.47,0,0,0,.22-6.34c-2.53-15.16,1.18-25.43,4.46-34.49.48-1.33,1-2.67,1.44-4a22.15,22.15,0,0,0,1.1-6.43c.58-17.11,7.11-25.3,12.87-32.53l.11-.13,1.39-1.76a23.12,23.12,0,0,0,4.06-8.31c3.69-13.82,10.4-19.19,16.4-23.14a22.93,22.93,0,0,0,8.09-9,50.35,50.35,0,0,1,34.29-27.42,21.78,21.78,0,0,0,9.2-4.83c10-8.6,24.2-13.83,43.47-16a24.72,24.72,0,0,0,5.57-1.34c12-4.31,19.29-2.53,25.18-1.1a27.14,27.14,0,0,0,6.43,1c3.26,0,6.34-.26,9.6-.53,10.24-.85,20.82-1.74,34.64,5.46a22,22,0,0,0,6.8,2.27c1.25.19,2.49.36,3.72.52,8.29,1.1,17.64,2.34,27.36,11a22.25,22.25,0,0,0,8,4.59c12.07,3.88,16.82,10.25,20.64,15.36l.07.09a22.89,22.89,0,0,0,7.74,6.59c11.76,6.17,19.39,12.79,25.95,30a21.69,21.69,0,0,0,4.42,7.11c10.82,11.62,13,22.28,15.07,32.59l.08.4c.15.7.29,1.41.44,2.12a21.74,21.74,0,0,0,2.91,7.37,25.61,25.61,0,0,1,3.79,13.78,23.61,23.61,0,0,0,1.22,7.85A45.34,45.34,0,0,1,491,304.88a24.8,24.8,0,0,0-.29,7.26c1.87,15.05.42,27.6-4.43,38.37a25.08,25.08,0,0,0-2.25,8.85c-.43,7.3-2.56,17.86-10.25,26.73a23.34,23.34,0,0,0-4.6,8.3,37.84,37.84,0,0,1-11.75,18.14,22.37,22.37,0,0,0-5.48,6.58c-4.88,9-13.44,17.33-23.5,22.79a21,21,0,0,0-5.32,3.91c-9.85,10.44-24.82,19-40.06,23a24.29,24.29,0,0,0-5.95,2.32C366.51,477.17,354,482.76,334.92,482.76Zm-20.13-4.54a25.49,25.49,0,0,1,3.51.27,117.49,117.49,0,0,0,16.62,1.27c18.42,0,30.47-5.4,40.76-11.24a27.45,27.45,0,0,1,6.67-2.62c14.72-3.81,29.16-12.1,38.64-22.15a23.68,23.68,0,0,1,6.07-4.48c9.56-5.19,17.68-13.06,22.29-21.59a25.42,25.42,0,0,1,6.21-7.45,34.93,34.93,0,0,0,10.8-16.75,26.13,26.13,0,0,1,5.2-9.36c7.13-8.23,9.11-18.1,9.52-24.94a28.06,28.06,0,0,1,2.5-9.9c4.62-10.26,6-22.28,4.19-36.77a28.08,28.08,0,0,1,.31-8.15,42.38,42.38,0,0,0-1.51-21.78,26.29,26.29,0,0,1-1.4-8.83,22.76,22.76,0,0,0-3.31-12.2,24.82,24.82,0,0,1-3.33-8.38c-.15-.71-.29-1.43-.44-2.14l-.08-.4c-2-9.9-4.08-20.13-14.32-31.14a24.61,24.61,0,0,1-5-8.08c-6.22-16.35-13.42-22.61-24.54-28.44a26.1,26.1,0,0,1-8.75-7.46l-.07-.09c-3.56-4.77-8-10.71-19.15-14.3a25.15,25.15,0,0,1-9.06-5.19c-9-8-17.9-9.18-25.73-10.22-1.29-.17-2.55-.34-3.82-.54a25.14,25.14,0,0,1-7.73-2.57c-13.05-6.79-23.18-5.95-33-5.13-3.33.28-6.47.54-9.86.54a29.17,29.17,0,0,1-7.14-1.13c-5.5-1.33-12.34-3-23.46,1a27.82,27.82,0,0,1-6.24,1.5c-18.65,2.09-32.34,7.09-41.85,15.28a24.74,24.74,0,0,1-10.47,5.48A47.4,47.4,0,0,0,195.51,186a26,26,0,0,1-9.14,10.23c-5.54,3.65-11.73,8.62-15.15,21.41a26.15,26.15,0,0,1-4.59,9.39l-1.41,1.78-.11.13c-5.47,6.87-11.67,14.65-12.22,30.77a25.65,25.65,0,0,1-1.26,7.29c-.48,1.38-1,2.74-1.46,4.08-3.15,8.72-6.73,18.59-4.33,33a21.18,21.18,0,0,1-.22,7.38c-1.4,7.68.62,14.93,2.4,21.33l.3,1.08a25.93,25.93,0,0,1,.87,8.23c-.34,6.53,2,11.64,4.17,15.91a25.54,25.54,0,0,1,2.73,8.95c.74,6.88,4,11.05,6.34,14.1a25.73,25.73,0,0,1,2.75,4c1,1.94,1.91,4.14,2.9,6.47,2.49,5.88,5.06,12,9.38,16.3a29.2,29.2,0,0,1,5.12,7.38c5.31,10.32,12.78,15.2,19.37,19.51l.17.12c1.07.69,2.14,1.39,3.21,2.12a25.52,25.52,0,0,1,5.54,5.12c13.12,16.42,24.74,19.44,36,22.37,2.59.67,5.21,1.35,7.86,2.19a23.83,23.83,0,0,1,4.43,2c17.4,9.81,35.74,9.75,53.46,9.69h2.19Zm20-11.49a103.69,103.69,0,0,1-14.62-1.11,38.09,38.09,0,0,0-5.4-.4h-2.16c-17.54.06-32.65.1-47-8a37.11,37.11,0,0,0-6.88-3c-3-.94-5.78-1.67-8.48-2.37C239.28,449,231.45,447,221,433.91a38,38,0,0,0-8.36-7.73c-1.2-.82-2.4-1.61-3.59-2.38-6.25-4.09-11.19-7.32-14.93-14.59a41.74,41.74,0,0,0-7.47-10.61c-2.54-2.55-4.61-7.45-6.62-12.18-1-2.44-2.09-5-3.27-7.29a37.48,37.48,0,0,0-4.07-6.1c-2.21-2.84-3.37-4.46-3.7-7.54A38.56,38.56,0,0,0,164.92,352c-1.95-3.79-2.91-6.27-2.75-9.29a38.84,38.84,0,0,0-1.32-12.38l-.31-1.09c-1.54-5.54-3-10.78-2.13-15.51a34.05,34.05,0,0,0,.26-11.86c-1.84-11,.62-17.81,3.73-26.4.51-1.42,1-2.84,1.52-4.29a38.35,38.35,0,0,0,2-11.07c.4-11.82,4.37-16.8,9.39-23.1l1.6-2a38.91,38.91,0,0,0,6.9-14c2.44-9.09,6.16-11.54,9.75-13.91a38.93,38.93,0,0,0,13.68-15.41,34.29,34.29,0,0,1,23.59-18.85,38.1,38.1,0,0,0,16-8.27c7.46-6.43,18.84-10.42,34.8-12.21a40.88,40.88,0,0,0,9.21-2.19c7.44-2.68,11.21-1.76,16-.6A41.24,41.24,0,0,0,317,151c3.94,0,7.49-.3,10.93-.58,9.06-.76,16.2-1.36,25.92,3.7A37.92,37.92,0,0,0,365.54,158c1.38.21,2.75.4,4.1.58,7.13.94,12.76,1.69,18.81,7.05a38.08,38.08,0,0,0,13.71,7.85c7.2,2.32,9.52,5.41,12.72,9.7l.07.09a39.15,39.15,0,0,0,13.13,11.2c8.83,4.63,13.59,8.84,18.42,21.54a37.73,37.73,0,0,0,7.67,12.32c7.74,8.32,9.22,15.62,11.1,24.87.18.86.35,1.73.54,2.61a37.64,37.64,0,0,0,5.11,12.75,10.12,10.12,0,0,1,1.25,5.31A39.05,39.05,0,0,0,474.35,287a29.52,29.52,0,0,1,.93,15.09,40.69,40.69,0,0,0-.42,11.89v.11c1.5,12.05.47,21.81-3.14,29.82a41,41,0,0,0-3.63,14.49c-.4,6.81-2.66,12.92-6.36,17.18a39.12,39.12,0,0,0-7.78,14,22.14,22.14,0,0,1-6.7,10.66,38.33,38.33,0,0,0-9.35,11.28c-3.39,6.27-9.76,12.38-17.06,16.34a36.59,36.59,0,0,0-9.32,7c-7.75,8.22-20.18,15.31-32.44,18.49a40.49,40.49,0,0,0-9.83,3.89C360.63,462.11,350.85,466.73,334.75,466.73Zm-20.11-4.51h.09a41,41,0,0,1,5.82.43c24.39,3.47,36.7-2.07,47.23-8a43.26,43.26,0,0,1,10.55-4.18c11.75-3.05,23.63-9.81,31-17.65a39.34,39.34,0,0,1,10.07-7.56c6.8-3.7,12.73-9.35,15.85-15.13a41.42,41.42,0,0,1,10.07-12.17,19.2,19.2,0,0,0,5.76-9.25,42.24,42.24,0,0,1,8.37-15c3.27-3.76,5.27-9.23,5.64-15.39A44,44,0,0,1,469,342.7c3.36-7.47,4.32-16.66,2.91-28.08l0-.15a43.64,43.64,0,0,1,.44-12.88,26.56,26.56,0,0,0-.8-13.55,42,42,0,0,1-2.36-14.12,7.08,7.08,0,0,0-.77-3.71,40.72,40.72,0,0,1-5.53-13.76l-.54-2.64c-1.78-8.78-3.19-15.71-10.36-23.42a40.59,40.59,0,0,1-8.27-13.29c-4.45-11.7-8.33-15.4-17-20a42.21,42.21,0,0,1-14.14-12l-.06-.09c-3.09-4.13-5-6.62-11.24-8.65a41.06,41.06,0,0,1-14.78-8.45c-5.37-4.76-10.08-5.38-17.21-6.33-1.38-.18-2.77-.37-4.18-.59a40.69,40.69,0,0,1-12.65-4.19c-8.95-4.66-15.72-4.09-24.28-3.38-3.51.3-7.13.6-11.19.6A43.77,43.77,0,0,1,306,152.43c-4.61-1.12-7.67-1.86-14.27.52a44,44,0,0,1-9.88,2.34c-15.34,1.72-26.2,5.48-33.18,11.5a41.06,41.06,0,0,1-17.23,8.92A31.32,31.32,0,0,0,209.9,193a42,42,0,0,1-14.73,16.59c-3.41,2.25-6.36,4.2-8.5,12.19a41.86,41.86,0,0,1-7.44,15.1l-1.61,2c-5,6.32-8.37,10.5-8.74,21.34a41.18,41.18,0,0,1-2.12,11.93c-.5,1.47-1,2.91-1.54,4.34-3,8.18-5.3,14.64-3.59,24.89a37,37,0,0,1-.27,12.89c-.74,4.05.62,9,2.07,14.17l.31,1.09a42,42,0,0,1,1.43,13.34c-.13,2.37.64,4.31,2.42,7.76a41.46,41.46,0,0,1,4.4,14.54c.25,2.26,1,3.31,3.08,6a39.78,39.78,0,0,1,4.38,6.59c1.23,2.43,2.32,5,3.37,7.48,1.89,4.47,3.84,9.1,6,11.23a44.61,44.61,0,0,1,8,11.36c3.37,6.56,8,9.6,13.9,13.45q1.81,1.17,3.64,2.41a41.41,41.41,0,0,1,9,8.34c9.8,12.27,17.23,14.2,27.51,16.87,2.79.73,5.62,1.46,8.68,2.43A40.53,40.53,0,0,1,267,454.6c13.71,7.73,28.45,7.69,45.5,7.63Z"/><path class="cls-4" d="M312.37,302.28l-2-.48c-47.77-11.25-70.14-29.7-98.47-53.06-5.41-4.46-11-9.07-17-13.84l-.09-.08c-1.45-1.34-2.85-3.89-1.28-8.37,6.82-19.49,66-61.81,83.9-63.13,3.77-.27,5.38,1.21,6.06,2.51,10.3,22.41,20.89,54.13,28.74,134.36Zm-115.63-69.7c6,4.78,11.62,9.39,17,13.85,27.61,22.77,49.51,40.83,95.2,52-7.79-78.25-18.17-109.33-28.25-131.24-.44-.84-2-.92-3.14-.84-16.69,1.23-74.84,42.71-81.29,61.14C195.08,230.9,196.27,232.15,196.74,232.58Z"/><path class="cls-4" d="M321,303.82l-.68-2c-15.92-46.42-12.22-75.18-7.53-111.59.89-7,1.82-14.15,2.65-21.79v-.12c.37-1.94,1.77-4.48,6.4-5.54,20.14-4.6,87.46,22.93,98.12,37.39,2.24,3,1.84,5.19,1.1,6.46-13.47,20.66-34.69,46.52-98.41,95.89Zm-2.59-135c-.83,7.65-1.75,14.84-2.65,21.79-4.56,35.5-8.18,63.65,6.73,108.25,62.07-48.26,82.85-73.61,96-93.8.47-.82-.26-2.15-1-3.11-9.92-13.47-76-40.6-95-36.25C319,166.54,318.53,168.21,318.41,168.84Z"/><path class="cls-4" d="M465.11,337.82c-24.55,0-58-3.78-133-29.34l-2-.68,1.28-1.66c30-38.85,56-51.6,89-67.74,6.3-3.09,12.81-6.27,19.65-9.79l.1-.05c1.83-.77,4.72-1,8.15,2.29,14.93,14.26,29,85.62,22.83,102.48-1.31,3.56-3.32,4.4-4.79,4.49Zm-130-31.5c74.47,25.24,107,28.6,131.18,28.5,1-.06,1.65-1.4,2.06-2.52,5.78-15.71-8-85.8-22.08-99.29-2.65-2.52-4.27-1.95-4.86-1.71-6.84,3.52-13.35,6.71-19.65,9.79C389.61,256.83,364.11,269.31,335.1,306.32Z"/><path class="cls-4" d="M376.52,448.21a4.83,4.83,0,0,1-4.2-1.9c-13.24-20.81-28-50.81-46.66-129.24l-.48-2,2.09.2c48.84,4.68,73.51,19.93,104.73,39.24,6,3.69,12.13,7.51,18.75,11.42l.1.06c1.62,1.14,3.35,3.47,2.4,8.12-4.12,20.23-57,70.17-74.59,73.9A10.29,10.29,0,0,1,376.52,448.21ZM329.07,318.42c18.3,76.48,32.79,105.87,45.74,126.21.55.77,2.07.65,3.23.41,16.37-3.48,68.38-52.45,72.27-71.57.73-3.59-.62-4.66-1.14-5-6.62-3.91-12.79-7.73-18.75-11.41C400,338.2,375.84,323.27,329.07,318.42Z"/><path class="cls-4" d="M320.17,456.4c-27.57,0-79.19-14.63-89.73-25.49-2.63-2.72-2.52-4.91-2-6.26,10.58-22.29,28.12-50.77,84.61-108.27l1.47-1.49.94,1.87c22,43.85,22.23,72.85,22.49,109.56,0,7,.1,14.26.31,21.95v.11c-.1,2-1.15,4.69-5.59,6.36C329.65,455.89,325.33,456.4,320.17,456.4ZM313.74,320c-55,56.18-72.19,84.09-82.52,105.87-.36.88.54,2.1,1.37,3,11.65,12,80.79,30,99,23.11,3.43-1.29,3.62-3,3.65-3.64-.21-7.69-.26-14.94-.31-22C334.73,390.55,334.52,362.17,313.74,320Z"/><path class="cls-4" d="M206.88,399.25a9,9,0,0,1-5.39-2.13C185,384.63,163,315.33,167.2,297.87c.9-3.67,2.81-4.74,4.25-5,24.49-2.92,57.94-3.24,136.69,13.94l2.05.45-1.09,1.8c-25.38,42-49.81,57.61-80.75,77.38-5.91,3.78-12,7.69-18.41,11.95l-.1.06A5.91,5.91,0,0,1,206.88,399.25ZM197,294.35a208,208,0,0,0-25.15,1.49c-.93.17-1.48,1.58-1.76,2.74-4,16.26,17.63,84.35,33.18,96.15,2.92,2.21,4.47,1.46,5,1.15,6.39-4.28,12.5-8.18,18.41-11.95,30.15-19.28,54.07-34.57,78.7-74.62C251.86,297.7,219.7,294.35,197,294.35Z"/></svg>