<svg id="Layer_1" data-name="Layer 1" xmlns="http://www.w3.org/2000/svg" width="200mm" height="200mm" viewBox="0 0 566.93 566.93"><defs><style>.cls-1{fill:#a04b0b;}.cls-2{fill:#a67c52;}.cls-3{fill:#3d632d;}</style></defs><path class="cls-1" d="M313.13,38.54l-2.44-3.16,6.67-5.15.25-6.17.57-2.72-.36-1.59-1-2.46-2.56,2.47-.21.12-.71.39c-2.35,1.27-3.75,2.08-4.17,2.4l-4.47,5.42-3.09-2.55L306.13,20c.44-.53,1.27-1.11,5.27-3.28l.42-.23,6.4-6.15,3.47,8.32.59,2.62-.72,3.41-.26,7.53Zm-3.91-16,0,0Z"/><path class="cls-1" d="M305.54,44.21l-2.92-.92-7.84-6.83L287.57,30l-.85-3.28-1.38-4.47.38-2.62,2.38-7.17,6.4,5.26.43.21c3.68,1.77,4.45,2.23,4.88,2.67l3.78,3.82,12.82,11.67Zm-.92-4.48.16,0,5.36-4-9.36-8.52-3.73-3.78c-.4-.26-1.69-.92-3.85-2l-.7-.34-.36-.23-2.08-1.71-.49,1.46-.15,1.2,1.15,3.73.57,2.2,6.3,5.67ZM297,23.38v0Z"/><path class="cls-1" d="M312.28,53.62l-26-23.76A33.35,33.35,0,0,0,281,27.27c-.71-.31-1.31-.57-1.66-.74l-.2-.1L269.88,19l-4.26,8.53-1,3.85,1.86,8-3.89.9-2.09-9L262,25.88l6.58-13.17L281.25,23l1.28.56c3,1.3,5.45,2.37,6.52,3.43L315,50.67Z"/><path class="cls-1" d="M305.63,45l-2.55-3.08L318,29.49c1.09-1,3.34-1.66,6.63-2.62.72-.21,1.46-.43,1.87-.57l13.07-9.4,6.17,13.93,1.16,5.11-1.06,3.62L342,38.42l.77-2.61-.89-3.9L338,23l-9.49,6.82-.22.09c-.52.21-1.38.46-2.46.78a28.45,28.45,0,0,0-5.11,1.79Z"/><path class="cls-1" d="M301.52,63.72l-2.39-3.2,18.21-13.61c2.27-1.69,23.38-8.94,25.78-9.75l15-8.7L367,45.77l1.7,6.66-3.79,10.93-3.77-1.31,3.39-9.8L363.14,47,356.5,34l-11.94,6.86c-2.92.94-23,8-24.85,9.24Z"/><path class="cls-1" d="M317.57,81.35l-5.87-6.48L284.32,50.6c-1.44-1.14-13.87-6.19-18-7.85l-2.64-1.09-.38-.21L248.82,31,241.31,43.2l-1.72,5.1,2.33,8.18.61,3.36-3.94.72L238,57.3l-2.6-9.1,2.26-6.71,10-16.24,17.82,12.82,2.38,1c12.7,5.16,17.88,7.48,19.1,8.57l27.61,24.5,5.95,6.55Z"/><path class="cls-1" d="M320.63,109.26,276.9,75.83c-1.42-1-12.7-5.2-33.51-12.51l-3.52-1.24-.29-.11-12.23-9.5L217.05,68l-2,5.68-3.76-1.35,2.19-6.13,13-19.51,15.14,11.75,3.18,1.13c23,8.07,33,11.86,34.62,13.1l43.72,33.43Z"/><path class="cls-1" d="M303,94.06l-2.27-3.29,20.8-14.32c1.9-1.31,11.09-4.09,25.29-8.15,1.58-.45,2.79-.8,3.41-1L375.81,53.5l11.86,20,2.5,8.26L389.29,84l-3.72-1.46.37-1-2-6.47-9.65-16.24L351.61,71.08l-3.67,1.06c-5.51,1.58-22.27,6.37-24.12,7.6Z"/><path class="cls-1" d="M298.59,124.2l-2.08-3.41,32.19-19.64c2.41-1.48,14.75-4.57,32.54-8.76,2.08-.49,3.66-.86,4.45-1.06l32.82-15.55,14,24.6,2.77,10.09-4.53,10-3.64-1.64,3.93-8.72-2.26-8.22L396.87,81l-30,14.17c-.71.18-2.41.58-4.71,1.12-7.17,1.69-29,6.84-31.37,8.28Z"/><path class="cls-1" d="M328.91,150.88l-10.7-9.37L271.3,104.14C268.61,102,217,76.67,212.4,74.85l-.34-.18-3.39-2.16L194.27,91.8,191,99.68l3.78,12.26L191,113.12l-4.21-13.64,4-9.67,16.92-22.67,6.38,4.07c4.76,2,56.49,27.21,59.73,29.8l47,37.43,10.78,9.43Z"/><path class="cls-1" d="M334.53,197.07l-11.84-10.35-64-45c-3.77-2.65-60.92-25.48-66.42-27.32l-.31-.14-18.46-9.89L154.92,130l-4,10.29,2.88,7.87L150,149.51l-3.41-9.29L151.38,128l.15-.21,20.75-28.61,21.4,11.47c5,1.77,62.87,24.69,67.28,27.79l64.28,45.16,11.92,10.42Z"/><path class="cls-1" d="M301.12,170.08,299,166.69l35.36-22.27c3-1.93,19.2-6.39,42.51-12.49,2.79-.73,4.9-1.28,5.91-1.56L425,109.49l19.36,29.82,4.1,12.4-4.74,11.07L440,161.21l4.15-9.68-3.47-10.47-17.13-26.41L384,134.17c-.93.27-3.15.85-6.16,1.63-10.45,2.74-38.23,10-41.39,12Z"/><rect class="cls-1" x="324.72" y="311.47" width="13.5" height="4" transform="translate(-100.22 165.87) rotate(-24.53)"/><rect class="cls-1" x="349.46" y="297.15" width="26.81" height="4" transform="translate(-91.43 177.61) rotate(-24.53)"/><rect class="cls-1" x="380.85" y="282.46" width="26.72" height="4" transform="translate(-84.16 197.96) rotate(-25.56)"/><path class="cls-1" d="M413.93,277.25l-1.73-3.61,42.45-20.3,10.75-29.79,8.9-17.79L470.59,193l-19.81-32.62-50.09,21.38c-1.18.27-3.92.84-7.71,1.64-14.26,3-47.65,10-51.72,12.24l-52,28.72-1.93-3.5,52-28.72c4-2.23,27.78-7.4,52.83-12.66,3.55-.74,6.22-1.3,7.47-1.58l52.77-22.56,21.88,36,4.3,14.79L469,225.24l-11.17,31Z"/><rect class="cls-1" x="260.84" y="326.27" width="4" height="11.01" transform="translate(-156.53 274.47) rotate(-43.83)"/><polygon class="cls-1" points="253.38 325.83 247.38 321.01 234.9 313.14 237.03 309.75 249.8 317.82 255.88 322.71 253.38 325.83"/><rect class="cls-1" x="226.28" y="304" width="4" height="5.2" transform="translate(-152.82 336.21) rotate(-57.77)"/><rect class="cls-1" x="211.9" y="290.25" width="4" height="14.58" transform="translate(-151.87 319.79) rotate(-57.77)"/><rect class="cls-1" x="195.85" y="283.88" width="4" height="7.07" transform="matrix(0.53, -0.85, 0.85, 0.53, -150.8, 301.52)"/><rect class="cls-1" x="173.15" y="256.73" width="4" height="31.81" transform="translate(-148.88 269.87) rotate(-56.79)"/><rect class="cls-1" x="138.59" y="232.82" width="4" height="34.38" transform="translate(-145.59 230.72) rotate(-56.79)"/><path class="cls-1" d="M344.51,293.76l-3.3-2.27,9.52-13.8-28.82-26.58-76.24-56.66C241,191,156.1,152.5,151.21,150.69l-.33-.15-8.35-5L118,175.39l-5.61,12.19,6.22,19.18,1.55,16.05-4,.39-1.53-15.84-6.55-20,6.48-14.09,27.08-32.86L152.78,147c6.75,2.63,90.23,40.47,95.28,44.23L324.47,248l.07.08,31.45,29Z"/><polygon class="cls-1" points="315.57 323.05 313.89 319.41 325.74 313.95 333.34 302.92 336.63 305.19 328.41 317.12 315.57 323.05"/><rect class="cls-1" x="296" y="324.52" width="14.56" height="4" transform="translate(-108.91 157.15) rotate(-24.78)"/><polygon class="cls-1" points="273.83 337.23 273.41 333.25 287.06 331.8 292.45 329.31 294.12 332.94 288.14 335.71 273.83 337.23"/><path class="cls-2" d="M184.17,406.18c-1.44,0-3.65-1.85-9.06-10.62-4.24-6.84-9.33-16.21-14.32-26.37s-9.32-19.9-12.16-27.44c-4.49-11.92-3.62-13.5-2.11-14.24s3.29-.46,10,10.37c4.23,6.85,9.32,16.22,14.31,26.37s9.32,19.9,12.16,27.44c4.49,11.93,3.62,13.51,2.12,14.24A2,2,0,0,1,184.17,406.18ZM148.5,331.55c1,4.92,6,18.05,15,36.32s16.36,30.21,19.63,34c-1-4.92-6-18-15-36.32S151.77,335.37,148.5,331.55Z"/><path class="cls-3" d="M147,330.4c-1.73,0-3.17-2.58-6.64-13.2-2.65-8.13-6.14-20-10.55-35.06l-.78-2.67c-4.49-15.3-8.33-29.8-10.81-40.84-4.14-18.43-2.75-18.84-1.27-19.27s2.87-.85,9.34,16.91c3.87,10.62,8.48,24.9,13,40.2a327.06,327.06,0,0,1,9,37.78c2.45,15.16.55,15.71-.59,16.05A2.43,2.43,0,0,1,147,330.4Zm-28.27-105c1.08,7.8,5.37,26.6,13.18,53.21l.78,2.67c6.08,20.74,11.1,37.84,13.73,44-.13-6.14-2.54-22.36-10-47.95C128.53,250.7,122,232.56,118.69,225.41Z"/><path class="cls-3" d="M146.54,334.67c-2,0-5.91-1.07-14.17-4.29-9.14-3.57-21.63-9.07-36.13-15.9s-27.82-13.55-37.72-19C42,286.34,42.6,285,43.26,283.63s1.28-2.71,18.85,4.23c10.51,4.16,24.25,10.19,38.67,17h0c14,6.59,26.47,13,35.18,17.94,14,8,13.3,9.45,12.69,10.74C148.35,334.16,147.9,334.67,146.54,334.67ZM49,286.32c6.55,4.36,23.46,13.63,48.55,25.45,25.83,12.17,40.42,17.81,46.27,19.41-5.21-3.8-19.79-12.08-44.28-23.62h0C74.42,295.73,56.5,288.59,49,286.32Z"/><path class="cls-3" d="M152.81,336.4a1.54,1.54,0,0,1-1-.43c-1.13-.88-2.41-1.87,7.31-16.87,6.17-9.52,14.74-21.42,24.12-33.49C193,273,202.53,261.42,210,253c12.52-14.14,13.67-13.25,14.89-12.31s2.36,1.84-8.25,17.47c-6.35,9.36-15.23,21.44-25,34h0C161.48,331,155.05,336.4,152.81,336.4Zm68.24-90.78c-5.69,5.44-18.43,19.92-35.44,41.83-16.7,21.49-26.83,37.15-30.23,43.75,4.74-4.65,15.37-17,33.91-40.89C206.3,268.4,217.18,252.48,221.05,245.62Z"/><path class="cls-3" d="M49.71,355.82c-14,0-14.15-1.31-14.26-2.7-.13-1.54-.24-3,18.45-5.72,11.19-1.64,26.1-3.25,42-4.54h0c15.42-1.26,29.59-2,39.9-2,16.53-.07,16.69,1.56,16.8,3,.15,1.81-.9,3.16-16.14,5.41-9.9,1.46-23.62,2.92-39.69,4.23-15.89,1.29-30.87,2.11-42.18,2.3C52.8,355.81,51.18,355.82,49.71,355.82Zm-8-3.21c7.86.52,27.14.13,54.79-2.12,28.76-2.34,44.47-4.71,50.53-6.23-6.67-.69-23.92-.61-50.91,1.59C68.49,348.09,49.4,350.82,41.73,352.61Z"/><path class="cls-3" d="M87.12,361.81c-10.77,0-20.65-.2-28.67-.6-18.87-.93-18.89-2.38-18.91-3.92s0-3,18.79-4.48c11.27-.9,26.26-1.52,42.2-1.76h0c15.5-.23,29.71,0,40,.59,16.3,1,16.67,2.43,17,3.61a2.33,2.33,0,0,1-.42,2c-2.55,3.32-18.31,3.88-56.39,4.45C96.07,361.78,91.52,361.81,87.12,361.81ZM45.84,357.2c7.81,1,27.07,1.92,54.8,1.51,21-.31,46.73-.69,52.87-2.68-5.14-1.21-22.82-2.43-52.94-2h0C72.84,354.47,53.61,355.93,45.84,357.2Z"/><path class="cls-3" d="M69.05,387.73c-18.63,0-18.72-1.44-18.82-3s-.19-3,18.54-5.42c11.22-1.46,26.15-2.83,42.06-3.86,56.18-3.65,56.32-1.51,56.47.75.09,1.37.2,3.08-16.08,5.72-10.55,1.71-24.64,3.19-39.69,4.17-15.92,1-30.91,1.6-42.21,1.61Zm-12.52-3.38c7.85.65,27.13.57,54.8-1.23,27.21-1.77,44.09-4.6,50.47-6.4-5-.39-17.89-.39-50.77,1.75C83.35,380.27,64.22,382.69,56.53,384.35Z"/><path class="cls-3" d="M62.94,403.4c-7.45,0-7.59-1.07-7.73-2.18-.21-1.53-.4-3,18.14-6.64,11.09-2.19,25.9-4.55,41.71-6.63l.2,1.48-.2-1.48c14.51-1.92,29.37-3.83,39.79-4.83,15.15-1.47,16.84-.74,17.11,1.27.17,1.3.4,3.08-15.9,7.05a394.1,394.1,0,0,1-39.6,7.07c-15.81,2.09-30.73,3.65-42,4.41C69.39,403.26,65.67,403.4,62.94,403.4Zm-1.48-3c7.85.14,27.1-1.22,54.6-4.85,25.81-3.4,43.76-7.75,50.4-10.22-9.21.09-35.74,3.59-51,5.6h0C88,394.55,69,398.23,61.46,400.39Z"/><path class="cls-3" d="M70.82,432.11c-2.65,0-2.86-.73-3.08-1.5-.42-1.48-.81-2.87,17-9.19,10.66-3.78,25-8.25,40.32-12.61,15.56-4.42,28.87-7.85,38.47-9.92,14.91-3.22,16.35-2.32,16.84-.58.39,1.37.83,2.92-14.52,8.66-9.62,3.6-23.07,7.89-37.89,12.1-15.33,4.35-29.87,8.06-40.92,10.44C78,431.45,73.33,432.11,70.82,432.11Zm104.26-32.24c-5.73.64-20.08,3.56-49.22,11.83-26.68,7.57-44.87,13.95-52,17.19,7.81-1,26.64-5.14,53.33-12.71C153.05,408.83,169.14,402.85,175.08,399.87Z"/><path class="cls-3" d="M157,342.83a1.7,1.7,0,0,1-1.27-.59c-1-1-2.19-2.14,8.32-14.92,6.7-8.15,16.27-18.62,26.94-29.49h0c11.17-11.38,22-21.8,30.39-29.35,14.07-12.6,15.11-11.58,16.21-10.5s2.13,2.09-10.21,16.4c-7.39,8.56-17.61,19.54-28.78,30.91-11.61,11.83-21.47,21.47-28.52,27.89C161.64,340.84,158.55,342.83,157,342.83Zm36.13-42.9h0c-19.39,19.75-30,32.82-33.59,38.3,4.93-3.68,16.44-14.19,36.92-35,19.43-19.79,32.08-34.34,36.71-40.71C226.86,267.22,212.53,280.14,193.1,299.93Z"/><path class="cls-3" d="M167.61,362.4a1.68,1.68,0,0,1-1.25-.57c-1-1-2.18-2.14,8.37-14.88,6.67-8.06,16.25-18.52,27-29.44,11.17-11.38,22-21.8,30.38-29.34,14.08-12.61,15.12-11.58,16.21-10.51s2.14,2.1-10.21,16.4c-7.38,8.56-17.6,19.54-28.77,30.92-11.49,11.7-21.37,21.33-28.57,27.83C172.32,360.44,169.19,362.4,167.61,362.4Zm76.27-80.24c-6.28,4.75-20.6,17.66-40,37.45C185.59,338.21,174,352,170.17,357.83c4.65-3.44,15.63-13.18,37-34.95C226.6,303.09,239.25,288.53,243.88,282.16Z"/><path class="cls-3" d="M173.72,375a1.72,1.72,0,0,1-1.26-.57c-1-1-2.21-2.1,7.81-14.66,6.36-8,15.66-18.47,26.18-29.54h0c11-11.55,21.6-22.15,29.9-29.83,13.87-12.83,14.92-11.82,16-10.76s2.17,2.06-9.94,16.56c-7.25,8.68-17.29,19.82-28.28,31.38-11.24,11.83-20.85,21.49-27.78,27.95C178.3,373,175.28,375,173.72,375Zm34.9-42.7c-18.4,19.36-29.06,32.64-32.51,38.17,4.48-3.39,15.12-13.11,35.89-35,19.11-20.1,31.52-34.86,36-41.3-6.2,4.85-20.31,18-39.42,38.09Z"/><path class="cls-3" d="M179.84,388.6a1.78,1.78,0,0,1-1.54-.77c-1.09-1.39-1-3.11,9.59-12.73,7-6.36,17.35-14.91,29.89-24.75s24.58-18.79,33.91-25.18c15.58-10.69,16.48-9.55,17.43-8.33s1.84,2.35-12.24,14.94c-8.43,7.54-20,17.11-32.52,27-12.27,9.63-23.09,17.58-31.3,23S181.53,388.6,179.84,388.6Zm84.31-67.87c-6.84,3.9-22.7,14.86-44.52,32h0C196.34,371,186,380.59,182.42,384.64c5.27-2.63,18.23-11.12,40.08-28.27S258.74,326.45,264.15,320.73Z"/><path class="cls-3" d="M183.67,398.86a1.73,1.73,0,0,1-1.6-.9c-.74-1.08-1.75-2.56,9.87-12.4,7.64-6.46,18.65-14.67,31-23.1h0c13.17-9,25.78-17.12,35.51-22.89,16.25-9.63,17.07-8.43,17.94-7.15s1.69,2.47-13.2,14.1c-8.91,7-21.07,15.75-34.24,24.74-14.33,9.78-24.86,16.72-32.2,21.2C188.7,397.37,185.33,398.86,183.67,398.86Zm41-33.93h0C202.51,380,190.23,390.55,186.2,395c4.47-2.1,15.54-8.78,41.06-26.21,22.91-15.64,38.14-27.46,43.92-32.81C264.1,339.41,247.54,349.3,224.63,364.93Z"/><path class="cls-3" d="M143,337.85c-2.61,0-6.29-.18-11.5-.65-10.87-1-25.28-2.89-40.6-5.43-15.72-2.62-30.45-5.47-41.47-8-18.4-4.28-18.16-5.72-17.9-7.23s.49-3,19.28-1.06c11.25,1.13,26.11,3.2,41.84,5.81,15.9,2.64,30.18,5.36,40.2,7.65,17.15,3.93,16.91,5.36,16.66,6.87C149.36,336.8,149.18,337.85,143,337.85ZM37.77,317.53c7.49,2.42,26.29,6.73,53.65,11.28,26.45,4.39,45,6.14,52.34,6.06-6.27-2.07-22.31-5.79-51.58-10.66h0C64.82,319.66,45.64,317.67,37.77,317.53Z"/><path class="cls-3" d="M150.42,332.87l-.37,0c-1.29-.17-3.07-.41-2.56-16.93.33-10.82,1.6-25,3.59-39.8,2.11-15.8,4.49-30.61,6.7-41.7,3.69-18.53,5.12-18.34,6.66-18.14s3,.4,1.67,19.25c-.77,11.28-2.36,26.19-4.47,42-2.43,18.2-4.27,30.72-5.81,39.41C153.41,330.7,152.19,332.87,150.42,332.87Zm13.19-110.34c-2.18,7.56-5.89,26.49-9.56,54-3.48,26.07-4,44.06-3.44,50.89,2.61-9.47,6.62-39.48,8.06-50.28l1.48.2-1.48-.2C162.34,249.63,163.72,230.4,163.61,222.53Z"/><path class="cls-3" d="M147,334c-1.43,0-4.46-1.77-12.92-10-7.52-7.3-17.14-17.67-27.11-29.2C96.51,282.75,87,271.14,80.18,262.13c-11.41-15.06-10.31-16-9.14-17s2.26-2,15.51,11.52c7.92,8.07,18,19.15,28.45,31.22,36.73,42.52,34.66,44.31,33.15,45.62A1.69,1.69,0,0,1,147,334Zm-71.8-84.12c4.22,6.64,15.91,22,34,43s30.15,32.52,35.29,36.5c-3.23-5.19-12.71-17.5-31.76-39.55h0C94.6,268.82,81.13,255,75.16,249.89Z"/><path class="cls-2" d="M349.47,464.31a1.92,1.92,0,0,1-1.31-.51c-1.35-1.12-1.89-3.12,6.27-15.17,5.22-7.73,12.71-17.55,21.08-27.65s16.61-19.29,23.23-25.87c10.32-10.25,12.39-10.11,13.74-9s1.89,3.12-6.27,15.18C401,409,393.49,418.84,385.13,429s-16.62,19.28-23.24,25.86C354.22,462.44,351.11,464.31,349.47,464.31Zm60.4-75c-4.25,2.75-16.16,14.41-32.05,33.61S352.68,456,350.77,460.65c4.24-2.75,16.15-14.42,32.05-33.62h0C398.72,407.83,408,394,409.87,389.28Z"/><path class="cls-3" d="M412,389a1.8,1.8,0,0,1-1.59-.74c-1.48-1.72-.13-4,10.37-13.57,7.34-6.67,18.26-16,32.07-27.81l2.46-2.1c14.05-12,27.56-22.95,38.05-30.8,17.35-13,18.42-11.75,19.45-10.54s2.11,2.47-13.43,17.58c-9.39,9.14-22.3,20.78-36.35,32.79a378.21,378.21,0,0,1-35.68,27.42C417.73,387.52,413.78,389,412,389Zm96.57-81.93c-7,4.1-25.41,17.85-51.31,40l-2.46,2.1c-20,17.11-36.36,31.08-40.73,36.26,5.68-2.39,22.08-12.58,47-33.89h0C487,329.38,503.41,313.31,508.54,307.06Z"/><path class="cls-3" d="M407.47,390.82h-.17c-1.53,0-3.26-.06-4.18-18.49-.56-11.35-.68-27.16-.34-45.73s1.12-35.85,2.2-48.91c1.79-21.6,3.43-21.57,5-21.54s3.25.05,4.24,21.71c.6,13.09.74,30.48.41,48.95h0c-.33,17.91-1.14,34.14-2.27,45.71C410.66,390.16,408.91,390.82,407.47,390.82Zm2.44-129.1c-1.57,7.93-3.51,30.85-4.13,64.92-.65,35.13.47,53.37,1.64,59.36,1.61-6.32,3.63-26,4.24-59.25C412.28,292.68,411.18,269.71,409.91,261.72Z"/><path class="cls-3" d="M537.49,429.27c-3,0-8.39-.6-18.1-2.32-12.91-2.27-29.91-5.92-47.86-10.29h0c-19.15-4.65-35.12-8.84-46.19-12.12-5.89-1.74-10.42-3.23-13.46-4.43-3.87-1.52-5.89-2.69-5.45-4.49.35-1.44.79-3.22,21.05-.1,13,2,29.63,5.41,46.85,9.6,18,4.36,34.74,8.92,47.25,12.82,20.69,6.47,20.3,8.07,19.92,9.62C541.3,428.4,541.09,429.27,537.49,429.27Zm-125.9-32.49c6.21,2.65,24.44,8.16,60.65,17h0c33.11,8.05,55.77,12,63.84,12.49-7.4-3.26-29.35-10.16-62.46-18.21C441.14,400.14,419.18,396.94,411.59,396.78Z"/><path class="cls-3" d="M397.2,400.16c-1.33,0-2.77-1.46-4.66-3.84s-4.43-6.05-7.48-10.83c-6.24-9.77-14.3-23.59-23.31-40-8.91-16.19-16.89-31.64-22.45-43.5-9.22-19.63-7.77-20.42-6.37-21.19s2.84-1.57,14.49,16.72c7,11.05,15.83,26.05,24.74,42.24h0c8.64,15.71,16.11,30.35,21,41.23,7.82,17.29,6.22,18.18,4.94,18.88A1.88,1.88,0,0,1,397.2,400.16ZM335.62,285.73c2.6,7.66,12.33,28.5,28.76,58.35,17.13,31.13,27.3,46.67,31.39,51.48-1.9-6.54-10.22-25.19-26.24-54.31h0C353.1,311.39,340.7,292,335.62,285.73Z"/><path class="cls-3" d="M386.85,411.07a2.6,2.6,0,0,1-.61-.07c-4.63-1.09-12.68-17.46-31.32-57.39-7.82-16.75-14.76-32.69-19.53-44.9-7.89-20.19-6.39-20.89-4.95-21.56s2.94-1.38,13.36,17.64c6.29,11.49,14.06,27,21.88,43.79h0c7.6,16.28,14.12,31.4,18.37,42.57,6.66,17.53,5.3,18.61,4.31,19.4A2.45,2.45,0,0,1,386.85,411.07Zm-54-118.86c2.08,7.82,10.41,29.25,24.83,60.13,10.7,22.92,23.86,51.11,28.51,55.25-.67-5.08-7.71-24.59-23.19-57.74C348.55,319,337.46,298.82,332.81,292.21Z"/><path class="cls-3" d="M369.92,431.14c-1.44,0-4.24-2.08-12.43-14.51-6.81-10.33-15.07-24.53-23.25-40-8.64-16.34-16.36-31.91-21.74-43.86-8.89-19.77-7.43-20.55-6-21.29s2.87-1.52,14.22,16.95c6.86,11.16,15.4,26.31,24,42.64h0c9.38,17.71,16.41,31.55,20.91,41.14,7.47,15.93,6.91,17.72,5.21,18.62A2,2,0,0,1,369.92,431.14ZM309.09,316.43c2.47,7.7,11.86,28.7,27.81,58.81,15.68,29.62,27.05,46.33,31.55,51.31-1.48-4.68-7.14-17.75-26.36-54.06h0C326.15,342.38,314.07,322.81,309.09,316.43Z"/><path class="cls-3" d="M363.43,440c-1.48,0-4.6-2.05-13.69-13.76a455.72,455.72,0,0,1-26.28-38.5C313.76,372,305,357,298.86,345.41c-10.18-19.14-8.77-20-7.41-20.85s2.75-1.7,15.31,16c7.58,10.68,17.1,25.23,26.81,40.95,8.92,14.44,18,29.25,24,39.79,9.08,15.91,8.52,17.35,6.86,18.37A1.76,1.76,0,0,1,363.43,440ZM294.38,329.32c3,7.52,13.74,27.84,31.64,56.84,16.78,27.18,30.4,44.44,35.65,49.37-3.62-8.68-20.88-36.63-30.65-52.46C313.12,354.08,299.77,335.35,294.38,329.32Z"/><path class="cls-3" d="M352.47,455.7c-1.54,0-4.89-2-14.53-11.76-8.37-8.46-19.3-20.65-30.77-34.31-11.89-14.16-22.71-27.76-30.47-38.32-12.85-17.46-11.59-18.52-10.37-19.55s2.49-2.08,17.47,13.59c9.05,9.47,20.58,22.48,32.47,36.64h0c12.06,14.36,22,26.8,28.75,36,3.34,4.53,5.81,8.15,7.34,10.76,1.89,3.2,2.7,5.28,1.31,6.45A1.73,1.73,0,0,1,352.47,455.7ZM269.93,356c4,7,17.62,25.56,39.53,51.66,21.26,25.31,35.61,39.69,41,43.74-2.76-5.07-12.43-18.86-36.5-47.52C292.05,377.82,276.13,361.23,269.93,356Z"/><path class="cls-3" d="M526.65,450.48c-2.53,0-7.83-1.06-19.37-4.5-12.56-3.75-29-9.35-46.35-15.76-61.1-22.6-60-25.54-59.29-27.49.48-1.32,1.15-3.12,19.44,1.87,11.79,3.21,27.41,8.36,44,14.48h0c17.33,6.41,33.47,12.88,45.45,18.2,19.8,8.81,19.23,10.36,18.68,11.86C528.93,449.8,528.68,450.48,526.65,450.48ZM406.29,404.37c5.32,3.22,21.94,10.56,55.68,23,32,11.82,54,18.36,62,19.79-7-4.1-28-13.48-59.93-25.31h0C432.09,410.09,412.87,405.15,406.29,404.37Z"/><path class="cls-3" d="M510.94,471.19c-2.54,0-7.84-1.06-19.38-4.5-12.55-3.75-29-9.34-46.35-15.75-17.83-6.6-32.69-12.47-43-17-5.21-2.29-9.19-4.2-11.84-5.7-3.27-1.83-5-3.23-4.4-4.95.51-1.38,1.15-3.11,19.42,1.94,11.69,3.23,27.29,8.4,43.93,14.55h0c17.34,6.41,33.48,12.88,45.45,18.2,19.81,8.81,19.23,10.36,18.68,11.86C513.22,470.51,513,471.19,510.94,471.19ZM390.62,424.94c4.95,3,20.27,10.1,55.63,23.18,32,11.82,54,18.36,62,19.79-7-4.09-28-13.48-59.93-25.3C418.33,431.53,397.63,425.79,390.62,424.94Z"/><path class="cls-3" d="M500.12,481.22c-2.59,0-7.93-1-19.29-4.18-12.62-3.55-29.17-8.88-46.6-15-17.85-6.27-32.63-11.84-42.75-16.11-15.74-6.63-16.52-8.41-15.89-10.2.49-1.4,1.11-3.13,18.93,1.45,11.46,2.94,27,7.79,43.65,13.66,17.44,6.13,33.68,12.33,45.73,17.46,20,8.49,19.41,10,18.88,11.55C502.53,480.52,502.29,481.22,500.12,481.22Zm-120-44c4.82,2.87,19.94,9.6,55.07,21.95,32.15,11.31,54.31,17.48,62.29,18.79-7-4-28.19-13-60.33-24.33C406.26,442.79,386.73,437.87,380.15,437.25Z"/><path class="cls-3" d="M480.08,511.5c-2.14,0-7.08-1.5-19.47-7-12-5.34-27.57-13-43.93-21.6-16-8.4-29.54-16.07-39.16-22.17-14.92-9.48-14.07-11.1-13.38-12.4.86-1.64,2.71-2.37,17.71,4.2,10,4.4,24,11.27,40.35,19.86h0c16.36,8.59,31.54,17.08,42.72,23.9,18.51,11.29,17.74,12.75,17,14.16A1.7,1.7,0,0,1,480.08,511.5Zm-111.83-61c4.43,3.94,19.59,13.84,49.82,29.72s51.2,25.16,58.91,27.61c-6.39-5-26-17-56.17-32.82h0C388.46,458,373.46,451.89,368.25,450.51Z"/><path class="cls-3" d="M467.26,526.46c-2,0-6.7-1.69-19.22-8.3-11.59-6.12-26.65-14.8-42.41-24.46-17.15-10.51-29.49-18.35-37.71-24-13.39-9.17-13.73-10.94-12.72-12.59.7-1.15,1.76-2.88,17.5,4.65,10.46,5,24.36,12.75,39.13,21.8,15.76,9.66,30.34,19.13,41.05,26.68,17.72,12.49,16.86,13.9,16,15.26A1.64,1.64,0,0,1,467.26,526.46ZM359.14,459.41c3.56,3.35,15.46,11.76,48.06,31.73,29.05,17.81,49.41,28.5,56.94,31.45-6-5.37-24.82-18.66-53.87-36.46h0C382.22,468.94,365,461,359.14,459.41Z"/><path class="cls-3" d="M404.59,392.93c-1.4,0-3.46-2-9.11-18.33-4.14-11.94-8.94-28.1-13.51-45.5-4.71-17.87-8.68-34.8-11.19-47.66-4.17-21.27-2.57-21.69-1-22.1s3.14-.82,10,19.74c4.14,12.44,9,29.13,13.71,47h0c4.76,18.07,8.66,34.45,11,46.14,3.94,19.77,2.35,20.19.82,20.59A2.55,2.55,0,0,1,404.59,392.93ZM371.18,264.75c.65,8.06,5,30.64,13.69,63.59,8.37,31.81,15.65,52.77,19,59.47-.48-6.69-4-25.6-13.35-61C381.88,293.89,374.57,272.08,371.18,264.75Z"/><path class="cls-3" d="M411.86,393.69c-2.21,0-2.69-.66-3-1.55-.38-1.28-1-3.23,16.55-10.46,11.6-4.78,27.15-10.14,43.78-15.09,17.71-5.27,34.5-9.79,47.28-12.71,21.13-4.84,21.6-3.26,22.06-1.73s.92,3.11-19.42,10.62c-12.29,4.53-28.82,9.93-46.53,15.2h0C452.22,384,438.1,388,428.18,390.54,419.07,392.84,414.36,393.69,411.86,393.69Zm121.35-39.95c-8,.91-30.47,6-63.12,15.72-30.93,9.21-50.63,17.52-56.56,21.16,9.94-1.15,45.65-11.78,58.23-15.52C504.42,365.38,526,357.38,533.21,353.74Z"/><path class="cls-3" d="M408.09,390.51a2.18,2.18,0,0,1-.89-.23c-1.27-.59-3-1.41,3.42-19.11,4.15-11.41,10.55-26.51,18-42.52,7.81-16.75,15.58-32.3,21.87-43.8,10.4-19,11.9-18.32,13.34-17.64s3,1.37-4.94,21.56c-4.76,12.21-11.69,28.15-19.5,44.9h0C431.31,351,424.27,365.33,419.05,375,412.09,388,409.72,390.51,408.09,390.51Zm53.39-118.24c-4.65,6.61-15.73,26.77-30.13,57.65s-20.83,49.44-22.13,55.88c3.63-5,12.3-20.89,27.46-53.39h0C451.08,301.52,459.4,280.08,461.48,272.27Z"/></svg>