<svg id="Layer_1" data-name="Layer 1" xmlns="http://www.w3.org/2000/svg" width="200mm" height="200mm" viewBox="0 0 566.93 566.93"><defs><style>.cls-1{fill:#874e0a;}</style></defs><path class="cls-1" d="M401.46,536.15a13.11,13.11,0,0,1-6.76-2l-.18-.11-.15-.15c-57.52-61.17-77.71-93.42-131.65-179.6Q248.79,332,231.09,303.86C218.72,284.27,207.72,267,198,251.72c-51.62-81.17-69-108.52-80-145.94-1.28-4.35,4-7.53,10-11.2C134.42,90.74,142.33,86,144.32,79l1.27.29a1.69,1.69,0,0,1,.14-.53,1.52,1.52,0,0,1,2.1-.64l.15.06c4,1.67,8.43-1,13.16-3.73,5.55-3.26,11.29-6.63,16.65-2.78l.22.15.15.22C189,87.82,203,112.6,222.48,146.9,248,191.91,283,253.54,328.74,326a1366.57,1366.57,0,0,0,89.58,126.29c22.87,29.07,31.42,39.94,22,49.39-2.35,2.36-6.65,7.06-10.8,11.6s-8.29,9.07-10.59,11.37l-1.3,1.3C412.43,531.16,407.48,536.15,401.46,536.15Zm-5-4.53c6.88,4,11.51-.18,19.06-7.78l1.31-1.31c2.25-2.25,6.44-6.84,10.5-11.28s8.49-9.28,10.89-11.69c7.57-7.57.07-17.1-22.21-45.41A1374.45,1374.45,0,0,1,326.2,327.6c-45.8-72.52-80.79-134.19-106.33-179.22-18.61-32.79-33.32-58.72-44-74.4-3.74-2.48-8.12.1-13.18,3.08-3.48,2-7,4.13-10.62,4.58a8.68,8.68,0,0,1,2.1,5.63c-.09,4.92-4.78,9.9-13.94,14.81-.59.31-2,1-3,.07s-.47-2.45,1.11-5.76c.95-2,2.24-4.7,3.43-7.93-3.56,3.51-8.12,6.27-12.12,8.69-4.8,2.9-9.33,5.65-8.7,7.79,10.85,37,28.18,64.27,79.63,145.17,9.7,15.26,20.7,32.55,33.07,52.15q17.73,28,31.65,50.39C319.05,438.57,339.2,470.77,396.41,531.62ZM147,81.14A70.64,70.64,0,0,1,141,97.68l-.33.69c8.5-4.91,10.41-8.75,10.45-11.16C151.19,84.29,148.56,82.16,147,81.14Z"/><path class="cls-1" d="M120.68,106.22a3.36,3.36,0,0,1-2.09-.6,2.65,2.65,0,0,1-1.06-2.27c0-5.12,19.45-25.27,29.87-25.27,5.81,0,13-3,18.78-5.32,6-2.47,8.73-3.51,10.39-2.4a2.3,2.3,0,0,1,1,2c0,4.27-14.61,16.42-15.23,16.93-4.71,3.9-16.37,13-22.85,13-4.14,0-8.67,1.37-12.3,2.47A26,26,0,0,1,120.68,106.22Zm-.14-3c1,.09,3.73-.75,5.78-1.37,3.82-1.16,8.58-2.6,13.17-2.6,8.76,0,32.08-21.06,34.83-26.28a53.13,53.13,0,0,0-7,2.55c-6,2.47-13.52,5.55-19.92,5.55C138.31,81.08,121,99.89,120.54,103.23Z"/><path class="cls-1" d="M375.56,120.58c-4.74,0-10.43-1.31-16.94-2.8-2.21-.51-4.5-1-6.86-1.53-11.37-2.38-18.31-4.81-23.19-8.12-6.41-4.34-8.86-10.32-7.3-17.79s6.46-12.92,14.09-15.57c6.75-2.34,15.47-2.49,25.21-.45A39.63,39.63,0,0,1,383.1,87.41c5.47,6.65,7.6,14.53,6,22.18-.9,4.26-2.68,7.2-5.46,9A14.66,14.66,0,0,1,375.56,120.58ZM347.72,75.89a34.68,34.68,0,0,0-11.38,1.72c-6.67,2.31-10.75,6.8-12.13,13.35-1.33,6.33.59,11,6,14.68,5.75,3.9,14.84,6.15,22.13,7.68,2.38.5,4.69,1,6.91,1.54C369,117.08,377.39,119,382,116c2.07-1.32,3.42-3.63,4.14-7.07h0c1.42-6.74-.49-13.72-5.37-19.65A36.54,36.54,0,0,0,360,77.26,60,60,0,0,0,347.72,75.89Z"/><rect class="cls-1" x="271.31" y="204.32" width="196.45" height="3" transform="translate(99.16 531.12) rotate(-79.38)"/><path class="cls-1" d="M309.3,475.11a10.2,10.2,0,0,1-2.13-.22l-21.9-4.05A11.21,11.21,0,0,1,278,465.5a17,17,0,0,1-1.52-13.27l7.94-64,3,.37-8,64.23,0,.11a14,14,0,0,0,1.17,11,8.16,8.16,0,0,0,5.25,3.95l21.9,4.06a8.74,8.74,0,0,0,7.53-2.3,16,16,0,0,0,5-8.81l2.46-14.59,3,.5-2.47,14.65a18.94,18.94,0,0,1-5.94,10.52A12.22,12.22,0,0,1,309.3,475.11Z"/><rect class="cls-1" x="221.66" y="182.96" width="179.17" height="3" transform="translate(89.88 470.63) rotate(-82.93)"/><path class="cls-1" d="M375.5,119.72a8.13,8.13,0,0,1-4.56-1.54,10.5,10.5,0,0,1-3-3.13,2.25,2.25,0,0,1-1.68,2.5l-.12,0c-5.17.92-17.43-1.32-21.59-4.53a4,4,0,0,1-1.75-2.74,6.75,6.75,0,0,1,.14-2,15.89,15.89,0,0,1-6.64,2,11.16,11.16,0,0,1-8.15-2.57l-.2-.23c-4.41-6.3-1.55-21.17,9.76-33.27l2.19,2.05c-9.78,10.47-13.09,24.06-9.58,29.36a8.23,8.23,0,0,0,5.79,1.67c4.19-.26,8.69-3.11,13-8.24.7-2.61-1.66-6.23-3.94-9.73-3-4.63-6.15-9.42-3-13.26,2.28-2.78,7.29-3.3,12.77-1.33,4.11,1.49,8.8,4.7,10,9.24,2.3-3.23,5.52-5.53,8.23-4.63a5.32,5.32,0,0,1,2.93,3c2.05,4.24,2.08,11.63.08,17.19a21.42,21.42,0,0,1-4.39,7.11c-1.4,1.63-2.13,2.55-2.13,4a6.63,6.63,0,0,0,3,5,4.41,4.41,0,0,0,3.89.83c3.5-1.35,8-11.12,7.08-23.37l3-.22c1,13.13-4,24.45-9,26.39A5.71,5.71,0,0,1,375.5,119.72ZM361.55,94.16a56.26,56.26,0,0,1-7.43,6.33c-4.41,3.34-8.58,6.5-8.33,9.58.59,2.07,13,5.35,19.17,4.65a37.52,37.52,0,0,0-1.09-5C362.77,105.45,361.27,99.69,361.55,94.16Zm10.34-11.91c-1.41,0-4.41,2.52-6.07,6.25-2.74,6.2-.52,14.77.95,20.45,0,0,0,.11,0,.16a10.74,10.74,0,0,1,2.67-4.36,18.2,18.2,0,0,0,3.84-6.17c1.91-5.29,1.51-11.83.05-14.86a2.84,2.84,0,0,0-1.19-1.43A1.19,1.19,0,0,0,371.89,82.25Zm-23.21-5.58c-1.89,0-3.42.47-4.18,1.4-1.63,2,.2,5.15,3.19,9.72,2.24,3.44,4.55,7,4.56,10.35l.05,0c4.84-3.67,9.85-7.46,9.88-11.84,0-3.87-4.12-7.1-8.25-8.59A15.78,15.78,0,0,0,348.68,76.67Z"/><path class="cls-1" d="M487.35,461.4l-1,0-.22,0-.2-.07c-17-6-47.33-26.2-74.13-44-18.11-12.07-35.22-23.47-43.91-27.46l1.26-2.73c8.89,4.09,25.31,15,44.31,27.69,26.55,17.69,56.62,37.72,73.27,43.65,7.92.34,10.13-5.46,13.34-15.69l.55-1.76c1-3,2.58-9,4.14-14.85,1.61-6,3.27-12.14,4.29-15.38,4.56-14.37-14-24.76-75.56-59.19-21.7-12.14-48.71-27.25-82-46.59l-10.26-6c-4-2.33-13.78-8.24-24.16-14.51-11.41-6.88-23.2-14-27.45-16.45l1.5-2.6c4.27,2.48,16.08,9.6,27.49,16.49,10.38,6.25,20.18,12.17,24.13,14.48l10.26,6c33.26,19.34,60.26,34.44,81.95,46.57,64.83,36.27,82.25,46,76.95,62.72-1,3.17-2.66,9.31-4.25,15.25-1.64,6.11-3.19,11.88-4.18,15l-.55,1.75C500.05,452.74,497.33,461.4,487.35,461.4Z"/><path class="cls-1" d="M244.28,324.49c-3.38-2-5.79-3.49-8.12-4.95-2.56-1.59-5.21-3.25-9.23-5.6-56.3-32.94-92-50.58-118-63.46C77.31,234.84,61.44,227,43.62,208.37c-3.14-3.28.06-8.51,3.75-14.56,3.87-6.34,8.69-14.23,7.27-21.3l1.26-.32a1.48,1.48,0,0,1-.11-.54,1.51,1.51,0,0,1,1.56-1.54h.16c4.29-.34,7.05-4.72,10-9.36,3.43-5.45,7-11.09,13.51-10.14l.26,0,.23.13,11.11,5.93c18.07,9.66,42.82,22.89,73.92,39.9l-1.44,2.63c-31.09-17-55.83-30.23-73.9-39.88l-10.86-5.81c-4.45-.51-7.17,3.82-10.29,8.79-2.15,3.42-4.34,6.9-7.32,9a8.57,8.57,0,0,1,4.45,4c2.19,4.41.32,11-5.56,19.56-.38.55-1.27,1.84-2.62,1.45s-1.55-2-1.67-5.63c-.07-2.2-.17-5.2-.6-8.61-1.55,4.74-4.34,9.3-6.77,13.28-2.92,4.79-5.68,9.31-4.14,10.92,17.45,18.25,33.16,26,64.47,41.5,26.08,12.9,61.8,30.57,118.18,63.56,4.06,2.37,6.73,4,9.31,5.65,2.42,1.51,4.7,2.93,8.05,4.9ZM58,173.18A70.69,70.69,0,0,1,60.3,190.6c0,.25,0,.51,0,.77,5.29-8.28,5.22-12.56,4.14-14.72C63.16,174,59.85,173.35,58,173.18Z"/><path class="cls-1" d="M44.46,208,44,208a2.7,2.7,0,0,1-2-1.54c-1.59-3.08,1.35-13.13,3.13-18,1.63-4.47,6-15.18,11.77-18.16,5.16-2.67,10.19-8.6,14.23-13.37,4.2-4.95,6.16-7.1,8.12-6.9a2.31,2.31,0,0,1,1.8,1.3c2,3.8-5.41,21.3-5.73,22-2.38,5.63-8.56,19-14.31,22-3.69,1.9-7.07,5.2-9.79,7.85C48.35,206.07,46.35,208,44.46,208Zm34-54.66a53.83,53.83,0,0,0-5,5.48c-4.21,5-9.46,11.15-15.14,14.1-8.07,4.18-14.74,28.83-13.66,32,.92-.38,3-2.38,4.51-3.87,2.86-2.79,6.42-6.27,10.49-8.38C67.44,188.67,78.46,159.25,78.49,153.35Z"/></svg>