<svg xmlns="http://www.w3.org/2000/svg" width="1270.48" height="1266.27" viewBox="0 0 1270.48 1266.27"><defs><style>.cls-1,.cls-3,.cls-4{fill:none;stroke-miterlimit:10;}.cls-1{stroke:#e5c86e;}.cls-2{fill:#fff;}.cls-3,.cls-4{stroke:#fff;}.cls-3{stroke-width:3px;}.cls-4{stroke-width:4px;}</style></defs><g id="Layer_2" data-name="Layer 2"><g id="Layer_1-2" data-name="Layer 1"><rect class="cls-1" x="0.5" y="0.5" width="1269.48" height="1265.27"/><path class="cls-2" d="M731,870.89H605.83a121.15,121.15,0,0,1-121-121V472.64a121.15,121.15,0,0,1,121-121H731a121.15,121.15,0,0,1,121,121V749.88A121.15,121.15,0,0,1,731,870.89ZM605.83,354.63a118.14,118.14,0,0,0-118,118V749.88a118.14,118.14,0,0,0,118,118H731a118.14,118.14,0,0,0,118-118V472.64a118.14,118.14,0,0,0-118-118Z"/><path class="cls-2" d="M640.87,799.51c-27.48,0-45.62-5.73-58.57-18C557.53,758,549.5,709,553.65,606.72l3,.13c-4.12,101.25,3.65,149.6,27.72,172.45,15.76,15,39.89,19.75,80.68,16l.27,3C656.43,799.09,648.31,799.51,640.87,799.51Z"/><path class="cls-2" d="M787.5,648.31l-3-.13c4.61-107.37-3.84-159-30.13-184.14-18.13-17.35-45.1-22.7-93.12-18.49l-.26-3c49-4.29,76.63,1.3,95.46,19.31C783.44,487.69,792.15,540,787.5,648.31Z"/><path class="cls-3" d="M783.18,390.22l14.44-80.87c.92-5.16,19.89-41.83,22.13-46.45l12.8-45.6,32.13,6.88,10.65,5.54,6.75,16.76,13.27,24.79"/><polyline class="cls-3" points="882.71 285.71 885.66 274.15 882.08 246.48 895.35 271.27 894.49 274.88"/><path class="cls-3" d="M782.07,404.09l1.07-13.64,14.44-80.88c.92-5.16,19.89-41.83,22.13-46.45l12.8-45.6-23.79,92.69L788.44,393"/><path class="cls-3" d="M907.76,391.7l-38.53,45.4-21.62,25.69-14.89,9L769.4,425.57,789.76,391l54.37-74.4c3.47-4.75,40.64-32.38,45.18-35.93L924.65,241l29,22.75,8,10.83-1.44,20.22,1.17,31.51Z"/><polygon class="cls-3" points="949.18 328.36 960.21 294.84 961.38 326.35 907.76 391.7 869.23 437.1 847.61 462.79 835.02 470.44 832.72 471.83 831.3 470.8 836.27 466.9 949.18 328.36"/><path class="cls-3" d="M854.89,323,769.25,425.78l20.36-34.54L844,316.83c3.47-4.75,40.64-32.37,45.18-35.92l35.34-39.67Z"/><path class="cls-4" d="M424.71,260.15l.48-4a29,29,0,0,1,1.59-3.15l.82-3.44,2.69,1.85.91.89.65,1.71,2,3.31-1.79,5"/><path class="cls-4" d="M423.87,266.2l3.58.52,2,.3.89-.24,2-5.4L424,260l-3-.68a29.62,29.62,0,0,0-3.17.29l-3.17-.37.66,2.56.44.94,1.89,1.59,1.16,1.07Z"/><path class="cls-4" d="M437.52,269l-19.69-3.34c-.9-.21-3.9.42-4.73.52l-8-.89.76,6.91.8,2.54,3.57,3.47"/><path class="cls-4" d="M430.4,267.71l3.35-10.54c.23-.87,2.52-3.23,3-3.9l2.9-7.35,5.89,3.86,1.92,1.88.52,1.77"/><path class="cls-4" d="M434.22,277.89l4.52-12.1c.47-1.23,8.43-11.4,9.23-12.36l4-7.81,8.29,4.81,2.61,2.43,1.47,6.06"/><path class="cls-4" d="M448.67,280.68l-4.86-1.3-20.6-3.2c-1.32-.21-11.72,1.85-13,2.06l-11.37-.6.19,9.49.86,3.43,3.81,3.36,1.32,1.41"/><path class="cls-4" d="M458.5,293.05l-31.17-2.55c-1.72-.14-20.62,4.46-22.27,4.83l-9.8-.87-.18,11.94.8,3.47"/><path class="cls-4" d="M444.27,291.89l5.55-13.24c.66-1.59,9.71-11.68,10.8-13l3.73-6.76,3.77-6.84,10.71,5.35,3.33,2.84.19,1"/><path class="cls-4" d="M451.44,307.6l9.36-19.28c.95-2,13.08-14.28,14.55-15.86l7-11.24,3.41-5.47,13.17,6.91,4,3.6.85,5.78"/><path class="cls-4" d="M475.32,310.41l-8-1.19-34-3.46c-2.17-.22-35.38,3.69-37.49,4.11h-3.34l-1,14.84,1,5.31,5.89,5"/><path class="cls-4" d="M492.2,330.76l-8.9-1.32-44.48-1.82c-2.84-.12-37.73,6.68-40.47,7.38l-12.85,1-1.08,19.05,1.36,6.73,4.14,3.13"/><path class="cls-4" d="M466.74,328.76l10.06-21.51c1.2-2.58,16.84-19.27,18.72-21.39L503.8,272l5-8.36,17.36,7.83,5.32,4.31,1.06,6.32"/><line class="cls-4" x1="528.41" y1="385.24" x2="524.26" y2="391.69"/><line class="cls-4" x1="541.06" y1="365.56" x2="532.82" y2="378.37"/><line class="cls-4" x1="551.4" y1="348.86" x2="543.42" y2="361.77"/><path class="cls-4" d="M477.76,358.29l16.05-29.71c1.65-3.07,21.88-22.65,24.32-25.15l14.43-21.29,3.37-5,20.51,10,6.15,5.36,1.26,11.68,4.1,17.87-14.3,23.13"/><line class="cls-4" x1="496.11" y1="417.57" x2="502.2" y2="419.02"/><polyline class="cls-4" points="480.06 416.84 488.51 416.76 492.92 417.23"/><line class="cls-4" x1="473.42" y1="416.9" x2="476.38" y2="416.87"/><line class="cls-4" x1="461.1" y1="417" x2="469.38" y2="416.93"/><line class="cls-4" x1="452.45" y1="417.08" x2="456.47" y2="417.04"/><line class="cls-4" x1="430.03" y1="416.89" x2="448.1" y2="417.04"/><line class="cls-4" x1="405.83" y1="416.69" x2="425.37" y2="416.85"/><path class="cls-4" d="M525.37,375l.34-10.51-23-4-53.91-3.66c-3.44-.24-55.52,7.38-58.91,8.13l-6.5.22-2.71,22.92,1.15,8.14,9,7.36,5.67,7.19"/><polyline class="cls-4" points="520.72 397.31 524.87 390.8 525.12 382.88"/><line class="cls-4" x1="514.65" y1="406.85" x2="519.09" y2="399.87"/><polyline class="cls-4" points="505.37 416.64 511.6 411.63 513.51 408.63"/><ellipse class="cls-3" cx="463.51" cy="464.81" rx="2.33" ry="23.98" transform="translate(-173.84 621.91) rotate(-58.93)"/><path class="cls-3" d="M422.51,430.49c14.13,12.24,21.25,21,20.46,21.95s-9.18-6.42-23.31-18.67S394.72,410.86,395.51,410,408.38,418.24,422.51,430.49Z"/><path class="cls-3" d="M413.53,456.06c18.53-2.44,30.58-2.93,30.73-1.74s-11.63,3.61-30.16,6.05-33.69,3.46-33.85,2.27S395,458.5,413.53,456.06Z"/><path class="cls-3" d="M452.1,421.15c-1.66,18.62-3.45,32.52-4.65,32.42s-1.35-14.19.32-32.81,4-33.63,5.18-33.52S453.77,402.53,452.1,421.15Z"/><path class="cls-3" d="M423.28,475.56c14.85-11.35,25.48-18.06,26.21-17.1s-8.71,9.21-23.57,20.56-27.49,19.78-28.22,18.82S408.42,486.91,423.28,475.56Z"/><path class="cls-3" d="M428,478.09c15.58-10.34,26.6-16.4,27.47-15.58,1.56,1.45-9.48,8.86-25.06,19.21s-28.74,17.91-29.4,16.91S412.39,488.43,428,478.09Z"/><path class="cls-3" d="M440.43,486.57c15-11.1,25.32-18.13,26-17.16S458.05,479,443,490.08s-27.81,19.33-28.53,18.36S425.39,497.68,440.43,486.57Z"/><path class="cls-3" d="M446.33,491.2c14.27-12.08,24.12-20.2,24.9-19.28s-7.82,10.52-22.09,22.6-26.47,21.13-27.25,20.21S432.05,503.28,446.33,491.2Z"/><path class="cls-3" d="M457.6,498c12.37-14,21.11-22.74,22-21.94s-6.38,10.8-18.75,24.82-23.13,24.74-24,23.94S445.23,512,457.6,498Z"/><path class="cls-3" d="M455.2,424.33c-3.8,18.3-5.05,30.81-3.87,31.05s4.33-11.86,8.13-30.17,5.94-33.34,4.76-33.58S459,406,455.2,424.33Z"/><path class="cls-3" d="M466.38,430.43c-3.8,18.31-5.12,30.8-3.94,31s4.4-11.85,8.21-30.15,5.93-33.34,4.76-33.59S470.19,412.13,466.38,430.43Z"/><path class="cls-3" d="M472.55,435c-3.51,18.36-4.52,30.34-3.34,30.57s4.11-11.39,7.61-29.76,5.4-33.43,4.22-33.66S476.06,416.66,472.55,435Z"/><path class="cls-3" d="M484.12,441.3c-6.13,17.66-9,28.57-7.88,29s5.86-9.87,12-27.53,10.18-32.3,9-32.7S490.26,423.64,484.12,441.3Z"/><path class="cls-3" d="M490.29,445.55C483,462.77,480.11,473.5,481.21,474s5.8-9.5,13.09-26.72,12.3-31.56,11.19-32S497.58,428.33,490.29,445.55Z"/><path class="cls-3" d="M414.92,466.33c17.17-7.39,30-12.08,30.51-11s-11.62,7.58-28.79,15-31.48,12.49-31.95,11.39S397.75,473.73,414.92,466.33Z"/><path class="cls-3" d="M433.34,423.82c7.94,16.93,13,28.36,11.87,28.87s-7.87-10.1-15.81-27S415.91,394.6,417,394.09,425.4,406.89,433.34,423.82Z"/><path class="cls-3" d="M414.75,443.54c17.93,5.3,29.62,9.41,29.28,10.57s-12.58-1.1-30.51-6.39S381.33,437.2,381.67,436,396.82,438.25,414.75,443.54Z"/><ellipse class="cls-3" cx="583.94" cy="426.75" rx="27.8" ry="2.7" transform="translate(90.16 955.22) rotate(-83.1)"/><path class="cls-3" d="M600.78,367.08c-6.25,20.76-12.17,32.47-13.5,32.07s2.42-12.76,8.67-33.52,12.39-37.26,13.72-36.86S607,346.33,600.78,367.08Z"/><path class="cls-3" d="M569.47,369.72c11.38,18.45,17.61,31,16.42,31.69s-9.33-10.59-20.72-29-19.65-34-18.46-34.72S558.08,351.28,569.47,369.72Z"/><path class="cls-3" d="M624.71,394c-20.49,7.08-36.05,11.79-36.5,10.47s14.36-8.16,34.85-15.24,37.46-11.75,37.92-10.44S645.19,386.87,624.71,394Z"/><path class="cls-3" d="M553.47,389.3c19,10.32,31.2,18.37,30.53,19.6s-13.88-4.84-32.94-15.17-34-19.68-33.31-20.91S534.41,379,553.47,389.3Z"/><path class="cls-3" d="M553,395.45c18.33,11.57,30,20.34,29.53,21.66-.8,2.33-13.89-5.82-32.22-17.39s-32.6-21.89-31.85-23.07S534.68,383.89,553,395.45Z"/><path class="cls-3" d="M550,412.67c18.89,10.63,31.2,18.16,30.52,19.38s-14.1-4.35-33-15-33.65-20.23-33-21.44S531.07,402,550,412.67Z"/><path class="cls-3" d="M547.87,421.1c19.55,9.36,32.82,15.93,32.22,17.18s-14.85-3.27-34.4-12.63-34.91-18-34.31-19.22S528.32,411.74,547.87,421.1Z"/><path class="cls-3" d="M546,436.26c20.7,6.42,34.07,11.53,33.66,12.86s-14.46-1.62-35.16-8S507.36,428.36,507.78,427,525.31,429.83,546,436.26Z"/><path class="cls-3" d="M622.81,398.73c-21.16,4.67-35,9.29-34.68,10.65s14.6-1.05,35.77-5.72,38.09-9.55,37.79-10.91S644,394.07,622.81,398.73Z"/><path class="cls-3" d="M621.67,413.46c-21.17,4.67-35,9.21-34.7,10.57s14.61-1,35.78-5.64,38.09-9.55,37.79-10.91S642.83,408.8,621.67,413.46Z"/><path class="cls-3" d="M619.73,422.16c-21.09,5-34.24,9.63-33.92,11s14-1.06,35.09-6.07,37.92-10.17,37.6-11.52S640.82,417.15,619.73,422.16Z"/><path class="cls-3" d="M618.6,437.38c-21.6,1.9-34.5,4-34.38,5.42s13.23,1.51,34.82-.39,39-4.56,38.87-6S640.19,435.48,618.6,437.38Z"/><path class="cls-3" d="M617,445.93c-21.67.47-34.4,2.49-34.37,3.89s12.81,1.62,34.48,1.15,39.21-2,39.18-3.36S638.7,445.46,617,445.93Z"/><path class="cls-3" d="M559.26,376.07c16,14.65,27,26,26.1,27.07s-13.54-8.7-29.51-23.35-28.16-27.36-27.22-28.39S543.29,361.42,559.26,376.07Z"/><path class="cls-3" d="M613,375.37c-14.13,16.44-23.84,27.17-24.9,26.26s6.94-13.11,21.08-29.55,26.45-29,27.5-28.11S627.11,358.94,613,375.37Z"/><path class="cls-3" d="M583.29,365.07c2.91,21.48,4.11,35.81,2.73,36s-4.82-13.83-7.73-35.31-4.16-39-2.78-39.23S580.37,343.59,583.29,365.07Z"/><path class="cls-3" d="M355.06,797.74c-9.06-14.62-6.33-30.26-4-31.71s2.67,10.73,11.72,25.35"/><path class="cls-3" d="M488.23,957.53a39.71,39.71,0,0,1-9.83,4.29,17.9,17.9,0,0,0-3.43,1.36c-1.63.85-3.14,1.74-4.61,2.61-6.11,3.62-11.88,7-24,5.73a18.94,18.94,0,0,0-5.66.25c-.87.16-1.71.34-2.56.52-4.68,1-9.52,2-15.68.08a21.14,21.14,0,0,0-6.52-1.13c-3.24,0-6.8-1.42-10.25-2.81-1.53-.61-3-1.19-4.37-1.64a18.75,18.75,0,0,0-3.6-.69,13.1,13.1,0,0,1-7.52-2.75,19.25,19.25,0,0,0-6.21-3.28c-2.71-.86-5.33-1.84-7.57-4.3a19.36,19.36,0,0,0-4.85-3.89l-.61-.34c-3.52-2-7.15-4-9.54-7.44a16.53,16.53,0,0,0-4-4.13c-6.8-4.82-9.21-9.92-11.77-15.32-.39-.82-.78-1.66-1.2-2.5a18.88,18.88,0,0,0-3.22-4.55c-6.24-6.63-6.84-11.81-7.48-17.29-.06-.52-.12-1-.19-1.56a19.42,19.42,0,0,0-2.56-7.39c-3.64-6.25-3.25-10.21-2.47-14a19.47,19.47,0,0,0-.63-10.27,26.71,26.71,0,0,1,2.49-23.16,19,19,0,0,0,2.65-8.51c.51-7.22,4.12-15,11-23.71a20.24,20.24,0,0,0,2.48-4.08,19.37,19.37,0,0,1,8.74-9.56,21.22,21.22,0,0,0,4.25-3.15c1.59-1.6,3-3.24,4.3-4.83,3.86-4.6,7.5-8.94,15.45-11.48a18.85,18.85,0,0,0,5.48-2.77c.68-.5,1.34-1,2-1.51,3.75-2.89,7.62-5.88,14.23-6.3a19.11,19.11,0,0,0,7.58-2.09c5.65-2.93,9.37-2.4,13-1.89h.07a19.68,19.68,0,0,0,8.59-.72c6.17-1.95,11-2.46,18.43.33"/><path class="cls-3" d="M598.89,920.56a75.4,75.4,0,0,1-8,6.94,14.65,14.65,0,0,0-1.63,1.41l-.91.92c-7.91,8-16.09,16.33-28.42,19.82a14.19,14.19,0,0,0-2.65,1c-1.53.8-3,1.67-4.41,2.51-6.42,3.8-13.05,7.73-26.51,6.27a14.84,14.84,0,0,0-4.45.2c-.84.16-1.66.34-2.47.51-5,1.06-10.58,2.25-17.77,0a17.19,17.19,0,0,0-5.28-.94c-4,0-8-1.58-11.78-3.11-1.46-.58-2.85-1.14-4.11-1.54a14.59,14.59,0,0,0-2.83-.52,17.34,17.34,0,0,1-9.58-3.61,15.23,15.23,0,0,0-4.9-2.59c-3-1-6.44-2.23-9.36-5.45a15.27,15.27,0,0,0-3.82-3.06l-.61-.35c-3.73-2.09-8-4.46-10.89-8.66a12.54,12.54,0,0,0-3-3.14c-7.68-5.44-10.56-11.53-13.1-16.9-.38-.8-.77-1.62-1.17-2.44a14.76,14.76,0,0,0-2.54-3.56c-7.16-7.62-7.9-14-8.56-19.62l-.18-1.52a15.36,15.36,0,0,0-2-5.84c-4.36-7.48-3.81-12.65-2.95-16.91a15.3,15.3,0,0,0-.48-8.11,30.78,30.78,0,0,1,2.86-26.64,14.57,14.57,0,0,0,2.06-6.67c.57-8.07,4.47-16.56,11.92-26a16.72,16.72,0,0,0,2-3.26,23.38,23.38,0,0,1,10.3-11.32,18,18,0,0,0,3.49-2.55c1.47-1.48,2.73-3,4.07-4.57,4.06-4.84,8.26-9.85,17.34-12.75a15.12,15.12,0,0,0,4.3-2.17c.65-.48,1.28-1,1.91-1.46,4-3.11,8.61-6.64,16.47-7.14a14.93,14.93,0,0,0,6-1.64c6.81-3.53,11.59-2.85,15.43-2.31h.07a15.42,15.42,0,0,0,6.78-.57c7.75-2.45,13.9-2.9,24.23,1.68a14.43,14.43,0,0,0,5.48,1.26c9.71.31,15.31,4,20.73,7.55.45.3.9.6,1.36.89a14.63,14.63,0,0,0,4.89,2.1,15.1,15.1,0,0,1,7.37,4.17,16,16,0,0,0,4.3,3.11,27.68,27.68,0,0,1,10.77,9.28,16.16,16.16,0,0,0,3.3,3.54c7.4,5.72,12.26,11.8,14.85,18.57a16.85,16.85,0,0,0,3.14,5.21A27.13,27.13,0,0,1,617,816.5a15.73,15.73,0,0,0,1.77,6.1,22.92,22.92,0,0,1,2.8,12.76,15,15,0,0,0,.54,5.71,36.18,36.18,0,0,1-.24,20,13.92,13.92,0,0,0-.65,4.4c.29,8.85-2.46,19.16-7.36,27.56a16.4,16.4,0,0,0-1.69,3.91C609.89,905.37,606.54,912.86,598.89,920.56Zm-16.76,1.24a25.71,25.71,0,0,1,2.66-2.32c12.59-9.52,15.63-17.64,17.67-25.14a26.37,26.37,0,0,1,2.71-6.34c3.93-6.73,6.22-15.22,6-22.16a24,24,0,0,1,1.05-7.55,26.17,26.17,0,0,0,.27-14.31,24.8,24.8,0,0,1-.93-9.52,13,13,0,0,0-1.69-7.19,25.6,25.6,0,0,1-2.89-10,17.14,17.14,0,0,0-4.61-9.89,26.69,26.69,0,0,1-5-8.33c-1.91-5-5.71-9.64-11.61-14.2h0a26.21,26.21,0,0,1-5.37-5.7,17.63,17.63,0,0,0-6.77-6,25.8,25.8,0,0,1-7.09-5,5.35,5.35,0,0,0-2.46-1.54,24.75,24.75,0,0,1-8.27-3.5l-1.41-.92c-4.83-3.18-8.64-5.69-15.52-5.91a24.67,24.67,0,0,1-9.25-2.11c-7.57-3.37-11.24-3.14-17.1-1.29a25.59,25.59,0,0,1-11.23.94h-.07c-3.27-.46-5.44-.77-9.4,1.28a25,25,0,0,1-9.94,2.75c-4.79.3-7.38,2.3-11,5.07-.69.53-1.38,1.06-2.1,1.59a24.93,24.93,0,0,1-7.2,3.65c-6.3,2-9.13,5.38-12.7,9.63-1.41,1.68-2.87,3.42-4.63,5.2a26.84,26.84,0,0,1-5.36,4,13.61,13.61,0,0,0-6.45,7,27.28,27.28,0,0,1-3.22,5.26c-6.15,7.76-9.34,14.44-9.76,20.42a24.89,24.89,0,0,1-3.52,11.21A20.61,20.61,0,0,0,414,849a25.39,25.39,0,0,1,.85,13.42c-.52,2.6-1,5.05,1.78,9.85A25.47,25.47,0,0,1,420,881.9c.06.54.13,1.07.19,1.61.59,5,1,8.69,5.9,13.89a25,25,0,0,1,4.23,6c.43.87.84,1.73,1.24,2.59,2.4,5.07,4.3,9.08,9.83,13a22.43,22.43,0,0,1,5.4,5.6c1.6,2.31,4.49,3.92,7.55,5.64l.63.35a25.24,25.24,0,0,1,6.34,5.07c1.14,1.26,2.51,1.85,4.95,2.63a25,25,0,0,1,8.14,4.31c1.32,1.06,2.34,1.22,4.51,1.49a23.82,23.82,0,0,1,4.71.92c1.6.52,3.21,1.16,4.77,1.79,2.91,1.17,5.93,2.38,8,2.38a26.94,26.94,0,0,1,8.33,1.41c4.66,1.47,8.18.72,12.64-.23.88-.19,1.77-.38,2.67-.55a25.1,25.1,0,0,1,7.43-.32c10.13,1.1,14.4-1.43,20.3-4.93,1.53-.9,3.11-1.84,4.88-2.77a23.75,23.75,0,0,1,4.57-1.8c9.77-2.77,16.37-9.46,24-17.2l.92-.93Z"/><path class="cls-3" d="M426.81,873c-12.32.52-.79-71.06,8.25-68.28,15.94,5.83,35.46,16.41,72.37,46.51C476.42,870.6,456.53,869.45,426.81,873Z"/><path class="cls-3" d="M451.42,790.12c-7-10.15,59.72-38.51,62.19-29.38,3.55,16.6,5,38.75-.83,86C479.9,830.82,470.27,813.37,451.42,790.12Z"/><path class="cls-3" d="M533.63,762c4.62-11.43,65,28.63,58.77,35.72-11.89,12.11-29.59,25.51-72.25,46.68C515.34,808.21,524.61,790.56,533.63,762Z"/><path class="cls-3" d="M599,818.69c12.14-2.18,10.4,70.3,1.06,68.77-16.57-3.62-37.35-11.46-78-36.29C550.12,827.81,570,826.25,599,818.69Z"/><path class="cls-3" d="M585,905.13c8.3,9.11-54,46.21-57.66,37.49-5.76-16-10.17-37.73-10.77-85.35C551.32,868.64,563.21,884.63,585,905.13Z"/><path class="cls-3" d="M505.65,939.45c-3.3,11.88-67.86-21.09-62.44-28.84,10.45-13.38,26.52-28.7,66.5-54.57C518.59,891.49,511.38,910.07,505.65,939.45Z"/></g></g></svg>