<svg id="Layer_1" data-name="Layer 1" xmlns="http://www.w3.org/2000/svg" width="200mm" height="200mm" viewBox="0 0 566.93 566.93"><defs><style>.cls-1{fill:#e5c86e;}</style></defs><path class="cls-1" d="M360.63,489a50,50,0,0,1-12.05-1.69c-12-3-16.15-11.05-19.18-16.92-2.18-4.23-3.54-6.64-6.15-6.89-27.3-2.54-39.9-8.2-49.1-12.33A64.88,64.88,0,0,0,264,447.19l-.45-.12-.3-.35c-6.89-7.87-9.56-15.41-7.92-22.41,3.64-15.62,27.15-25.39,47.89-34,13.12-5.46,25.52-10.61,27.24-15.46a2.93,2.93,0,0,0,0-2.12c-31.49-11.9-60.7-5.63-91.6,1-25.09,5.39-51,11-79.77,7C126.53,376.32,95.1,360,63,330.83c-.65-.6-3.14.83-5.33,2.08-6.22,3.57-15.62,8.95-26.81.11l-.31-.24-.15-.36c-5.35-12.75,3.51-20.05,9.37-24.88,2.46-2,5-4.13,4.42-5.17-1.2-2.15-2.51-4.35-3.89-6.67-8.1-13.63-17.29-29.08-12.17-46,2.34-7.76,5.76-12.22,10.44-13.63,8.39-2.52,18.23,5.66,26.92,12.88,5.16,4.29,11,9.15,13.18,8.19,5-2.19,9.1-17.88,13.1-33,.92-3.48,1.87-7.08,2.84-10.59-.7-1.11-5.31-3.34-9-5.15-7.57-3.69-17-8.25-22-14.43-.32.13-.77.34-1.13.52-1.86.9-4.68,2.26-7.23.9-2.13-1.14-3.46-3.86-4.08-8.3l0-.33.09-.31c2.71-8.89,7.88-9.85,10.66-10.36.38-.08.88-.17,1.14-.25,3.77-9.87,6.92-10.53,12.12-10.83l.82,0a10.43,10.43,0,0,0,1.35-2.34c1.51-3.1,4-8.28,10.27-5.79,4.36,1.75,6.85,3.85,7.59,6.42.93,3.19-1.14,6.06-2.51,7.95-.25.35-.55.77-.75,1.09a112.06,112.06,0,0,1,9.77,10.26c1.19,1.38,2.5,2.89,3.34,3.72,3.48-5.4,7.25-7.8,11.52-7.31,7.81.88,19.38,5.1,30.23,20.18,10,13.92,17.14,33.92,21.17,59.44.91,5.75,6.22,8.57,10.51,9.92,13.61,4.27,34.52-.05,43.52-8.9-.53-1-1.65-2.68-2.82-4.49-6-9.23-18.38-28.43-24.76-52.89-.52-1.26-6.55-5.47-10.54-8.25-8.31-5.8-11.72-8.37-12-10.45-1.73-12.56-.38-20.41,4.13-24,5.41-4.28,13.51-1.13,19.43,1.16a29.87,29.87,0,0,0,4.76,1.59c2.17-9.78,7-10.58,16.61-12.13,3.25-.52,6.92-1.12,11.4-2.17l.11,0c9.87-1.52,15.35,8.17,24.43,24.25l2.78,4.9c.43.75,2.39-.16,5.12-1.53,3.74-1.87,8.35-4.18,12.85-2.7a8.14,8.14,0,0,0,.78-2c.84-2.69,2.23-7.19,9.46-5.59l.32.07.26.2c3.37,2.55,3.72,6.57,3.95,9.22a12.88,12.88,0,0,0,.26,1.95c3.41,1.63,5.24,3.73,5.46,6.24.51,5.88-8.13,11.88-15.76,17.17-3.11,2.16-7.32,5.09-7.91,6.3,6.22,13.58,12.09,27.72,17.27,40.21,7.65,18.39,15.55,37.42,18.34,38.47,4.64.8,7.63,1.35,9.6,1.72,3.94.74,3.94.74,6.31.62,1.43-.07,3.59-.17,7.65-.21h0c7.64.08,12.46-1.49,14.34-4.75,4.43-7.68-5.91-25-16.87-43.43-14.42-24.22-30.78-51.67-22.43-70.26,4.19-9.33,13.91-15.34,29.71-18.37l.21,0c1.09-.05,2.34-.19,3.78-.35,10.81-1.22,30.56-3.44,47.54,26,.38-4.84,1.43-11.33,5.86-12.95,3.79-1.38,8.76,1.28,15.22,8.13l.19.2.11.26c7.5,18.36,2.87,33.19-.19,43-1.2,3.82-2.23,7.12-1.81,8.78,4.27,17.07,8.3,37.23,12,59.95C442,297,449.32,306.17,453.7,311.65c2.8,3.51,4.23,5.29,8.37,6.1-15.2-30.43-22.12-57.67-20.57-81,1.52-22.76,10.83-37,18.37-44.9,9.81-10.29,20.8-14.36,24.37-12.75a29.37,29.37,0,0,0,3.39,1c7.64,1.89,23.54,5.84,32.65,23,11.22,21.07,8.44,55.19-8.27,101.43,10.07,14.52,10.07,37.67,10.08,72.45v1.3c0,27.29-40.71,44.89-108.16,74.06-8.51,3.67-17.31,7.48-26.54,11.53l-.25.1-.27,0c-3.17.16-4.32,3.08-6.07,8.23C378.3,479.46,375.06,489,360.63,489ZM265.19,444.4a71.13,71.13,0,0,1,10.19,4c9,4.05,21.35,9.59,48.15,12.09,4.37.4,6.3,4.15,8.54,8.5,2.91,5.66,6.54,12.71,17.24,15.38C371.56,489.91,375,480,378,471.19c1.64-4.82,3.34-9.8,8.46-10.24,9.15-4,17.88-7.78,26.32-11.43,64-27.69,106.36-46,106.35-71.3v-1.3c0-34.72,0-57.65-10-71.34l-.47-.64.27-.75c16.64-45.79,19.58-79.34,8.72-99.74-8.49-15.94-23.51-19.67-30.73-21.46a26.22,26.22,0,0,1-3.91-1.15c-1.54-.7-11.08,1.71-20.95,12.09-7.21,7.56-16.1,21.17-17.56,43-1.56,23.42,5.69,51,21.54,82l1.24,2.41-2.7-.24c-7.68-.66-9.76-3.27-13.21-7.58-4.28-5.35-11.44-14.3-36.35-27.87l-.65-.35-.12-.73c-3.7-22.93-7.76-43.26-12.05-60.42-.62-2.48.41-5.8,1.85-10.41,2.92-9.35,7.33-23.46.38-40.71-7-7.41-10.42-7.67-11.81-7.16-3.41,1.24-3.86,9.35-4.05,12.81-.14,2.45-.2,3.56-1.57,3.77-.48.07-1.34,0-1.85-1.28-16.47-31.54-35.35-29.42-46.63-28.15-1.38.15-2.69.3-3.85.36C320,156.23,311,161.67,307.22,170c-7.71,17.16,8.22,43.9,22.27,67.49,11.91,20,22.2,37.27,16.89,46.47-2.5,4.32-8.05,6.37-17,6.25-4,0-6.12.14-7.53.21-2.72.14-2.88.1-7-.67-2-.36-4.94-.92-9.61-1.73-3.78-.65-8.38-11-20.55-40.26-5.2-12.53-11.1-26.73-17.33-40.33-1.22-2.67,2.64-5.35,9-9.79s14.84-10.3,14.48-14.45c-.12-1.42-1.45-2.73-4-3.89-1.44-.66-1.58-2.35-1.76-4.29-.2-2.3-.45-5.14-2.52-6.9-4.23-.84-4.78,1-5.62,3.62-.51,1.64-1.08,3.5-2.89,4.18l-.57.21-.56-.24c-3.48-1.52-7.54.52-11.13,2.32s-7.19,3.6-9.06.33q-1.46-2.55-2.79-4.92c-8.43-14.91-13.51-23.92-21.3-22.77-4.56,1.07-8.43,1.7-11.55,2.2-9.4,1.53-12.56,2-14.26,10.27a2.25,2.25,0,0,1-1.16,1.58c-1.54.84-3.78,0-7.51-1.47-5.25-2-12.42-4.82-16.49-1.61-3.56,2.81-4.57,9.95-3,21.21.51,1.25,6.68,5.55,10.76,8.4,7.76,5.41,11.21,8,11.73,10,6.25,24,18.49,42.92,24.37,52,3.49,5.39,4.11,6.36,3.27,7.56a1.54,1.54,0,0,1-.76.59c-10.64,10.64-33.25,13.93-46.63,9.73-7.31-2.3-11.66-6.56-12.57-12.31-7.22-45.65-25.45-74.48-48.77-77.11-3.25-.36-6.29,1.91-9.29,7a1.77,1.77,0,0,1-1.38.87c-1.4.1-2.5-1.08-6.13-5.26a102.8,102.8,0,0,0-10-10.42c-1.57-1.36-.25-3.18.81-4.65s2.58-3.58,2.06-5.36c-.46-1.59-2.47-3.13-5.83-4.47s-4.71.72-6.45,4.31c-1,2-1.88,3.89-3.75,4l-.94.05c-4.18.25-6.27.37-9.58,9.12-.53,1.4-1.95,1.66-3.31,1.92-2.56.47-6.05,1.12-8.24,8,.59,4,1.67,5.3,2.47,5.73,1.21.65,3-.24,4.52-1s3.3-1.61,4.43-.13c4.49,5.87,14.19,10.59,21.28,14,7.4,3.59,11.47,5.57,10.67,8.45-1,3.56-2,7.22-2.89,10.76-4.57,17.3-8.51,32.25-14.78,35-3.88,1.72-9.37-2.84-16.32-8.62-7.7-6.41-17.29-14.36-24.13-12.31-3.6,1.08-6.44,5-8.44,11.62-4.74,15.67,4.09,30.51,11.88,43.61,1.39,2.34,2.71,4.55,3.93,6.73,1.81,3.23-1.41,5.89-5.14,9-5.72,4.72-12.83,10.57-8.65,21,9.47,7.26,17.37,2.73,23.15-.59,3.53-2,6.57-3.77,8.84-1.71,70.78,64.2,122.86,53,173.22,42.19,31.54-6.77,61.33-13.17,93.87-.65l.51.19.27.49a6,6,0,0,1,.44,5c-2.17,6.11-14,11-28.92,17.23-19.08,7.93-42.83,17.8-46.12,31.92C256.83,431,259.11,437.34,265.19,444.4Z"/></svg>