<svg id="Layer_1" data-name="Layer 1" xmlns="http://www.w3.org/2000/svg" width="200mm" height="200mm" viewBox="0 0 566.93 566.93"><defs><style>.cls-1{fill:#6eb21f;}.cls-2{fill:#882bbf;}</style></defs><path class="cls-1" d="M265.82,289q-.87-12.48-1.69-24.63l3-.2q.84,12.13,1.69,24.63Z"/><rect class="cls-1" x="262.83" y="230.2" width="3" height="30.12" transform="translate(-16.07 18.55) rotate(-3.9)"/><path class="cls-1" d="M261.32,223.14c-.73-10.58-1.44-20.86-2.13-30.77l3-.21c.7,9.91,1.41,20.19,2.13,30.78Z"/><path class="cls-1" d="M258.69,185.25q-.79-11.31-1.57-21.9l3-.22c.51,7.05,1,14.37,1.56,21.91Z"/><path class="cls-1" d="M256.43,153.87c-.61-8.12-1.2-15.86-1.78-23.17l3-.24c.58,7.32,1.18,15.07,1.78,23.19Z"/><path class="cls-1" d="M253.77,119.8q-.69-8.28-1.36-15.67l3-.28q.67,7.4,1.36,15.7Z"/><path class="cls-1" d="M251.53,94.75c-.48-4.93-1-9.43-1.4-13.36l3-.34c.45,4,.92,8.46,1.4,13.4Z"/><path class="cls-1" d="M249.19,73.71c-.33-2.54-.64-4.74-.95-6.72l3-.46c.32,2,.63,4.22,1,6.79Z"/><path class="cls-1" d="M242.56,72.69c-.29-18.47,1.16-20,3.24-20.15,1.44-.1,3.13.9,4.73,9l-2.94.58a31.33,31.33,0,0,0-1.45-5.41c-.36,1.92-.73,6.24-.58,15.91Z"/><path class="cls-1" d="M243.34,94.21c-.22-4.49-.4-8.63-.53-12.31l3-.11c.14,3.67.31,7.8.54,12.27Z"/><path class="cls-1" d="M244.85,120.16q-.53-8.18-.94-15.48l3-.17q.42,7.29.95,15.46Z"/><path class="cls-1" d="M246.94,150.76c-.48-6.72-.93-13.17-1.34-19.31l3-.21q.63,9.22,1.34,19.3Z"/><path class="cls-1" d="M249,178.44q-.54-7.2-1-14.09l3-.21q.51,6.88,1,14.08Z"/><rect class="cls-1" x="251.41" y="193.57" width="3" height="35.35" transform="translate(-15.06 19.46) rotate(-4.28)"/><path class="cls-1" d="M255.11,261q-1.14-15.36-2.24-30.08l3-.22q1.1,14.69,2.23,30.08Z"/><path class="cls-1" d="M266.78,429.79l-1.14-18.17c-2-32.39-4.32-69.1-7-107.62-.82-11.82-1.68-24-2.64-37.15l3-.21c1,13.18,1.82,25.33,2.64,37.15,2.68,38.54,5,75.25,7,107.65l1.14,18.17Z"/><path class="cls-1" d="M280.35,554.84c-2.1,0-3.58-2.16-5.66-22.78-1.42-14-2.86-34.4-4.33-55.88l3-.21c2,29.69,4.54,66,7,74.45.83-4.3,1.18-17.26-.51-51.17l3-.15c.89,17.84,1.27,30.83,1.18,39.72-.14,13.34-1.26,15.86-3.43,16Z"/><path class="cls-1" d="M278.23,472c-.66-10.94-1.57-25.93-2.56-40.54l3-.2c1,14.61,1.89,29.61,2.56,40.56Z"/><path class="cls-1" d="M274.19,412c-1.06-15.29-2.2-32.23-3.39-49.84-1.37-20.37-2.81-41.64-4.24-62.3l3-.2c1.43,20.66,2.86,41.93,4.24,62.3,1.18,17.61,2.33,34.55,3.38,49.84Z"/><path class="cls-2" d="M245.68,305.42l-.24-3a61.89,61.89,0,0,0,7.25-1.27l3.13-.65c-1.18-2.57-2-4.75-2.67-6.56-2.12-5.66-3.18-8.5-11-13.08a44.69,44.69,0,0,0-11.31-4.76l.74-2.91a47.8,47.8,0,0,1,12.09,5.08c8.74,5.12,10.08,8.69,12.3,14.62a83.92,83.92,0,0,0,3.39,8.05l.86,1.76-1.92.37c-1.88.36-3.52.71-5,1A62.59,62.59,0,0,1,245.68,305.42Z"/><path class="cls-2" d="M224.35,296.2a37.14,37.14,0,0,1-7.33-7.75l2.49-1.68a33.53,33.53,0,0,0,6.73,7.09Z"/><path class="cls-2" d="M278.47,302.41a42.07,42.07,0,0,1-5.92-.58,81.27,81.27,0,0,0-8.69-.88l-2-.09.6-1.86c.58-1.83,1.06-3.43,1.5-4.87,2.83-9.39,3.6-11.92,14-18.17a45.89,45.89,0,0,1,13.92-5.67l.61,2.94a42.78,42.78,0,0,0-13,5.3c-9.41,5.66-9.91,7.31-12.67,16.47-.29.94-.59,2-.93,3.06,2.82.2,5.12.53,7,.8,6,.86,9,1.29,16.75-3.38a51.24,51.24,0,0,0,5-3.42l1.85,2.36a51.74,51.74,0,0,1-5.28,3.63C285.6,301.46,282,302.41,278.47,302.41Z"/><path class="cls-2" d="M219.69,258.41a39.49,39.49,0,0,1-7.16-7.89l2.5-1.66a36.87,36.87,0,0,0,6.61,7.27Z"/><path class="cls-2" d="M243.11,269.87a20,20,0,0,1-8.63-2.11l1.24-2.73c5.91,2.68,8.73,2.09,17.1.34,1.15-.24,2.4-.51,3.77-.78-1.37-3-2.29-5.42-3.11-7.63-2.41-6.43-3.62-9.66-12.51-14.86-6-3.49-12.22-5.72-17.6-6.26l.31-3c5.8.59,12.48,3,18.81,6.66,9.81,5.74,11.31,9.76,13.8,16.4a93.06,93.06,0,0,0,3.83,9.11l.87,1.76-1.92.38c-2.12.41-4,.8-5.64,1.14C249.05,269.22,246,269.87,243.11,269.87Z"/><path class="cls-2" d="M278.21,267a40.44,40.44,0,0,1-5.71-.56,79.67,79.67,0,0,0-8.38-.85l-2-.09.6-1.86c.56-1.76,1-3.31,1.44-4.69,2.74-9.08,3.48-11.52,13.53-17.55a41.14,41.14,0,0,1,16.39-5.94c5.45-.55,9.46.82,11.29,3.86l-2.58,1.54c-1.17-2-4.24-2.84-8.4-2.42a38.14,38.14,0,0,0-15.16,5.53c-9,5.44-9.53,7-12.2,15.84-.26.89-.55,1.85-.87,2.89,2.69.2,4.89.51,6.72.77,5.75.82,8.64,1.24,16.12-3.26,5.46-3.28,10-7.5,12.48-11.56l2.56,1.55c-2.71,4.47-7.63,9.06-13.5,12.59C285.1,266,281.64,267,278.21,267Z"/><path class="cls-2" d="M243,234.21c-3.34,0-6.35-1.12-11.85-4.34a56.23,56.23,0,0,1-7.77-5.46l2-2.25a54.24,54.24,0,0,0,7.31,5.12c8.17,4.79,9.63,4.48,17.7,2.79l2.49-.52c-1-2.14-1.65-4-2.23-5.5-1.82-4.87-2.74-7.32-9.48-11.26-9.92-5.81-19.07-6-21.08-2.61-1.11,1.91-.28,5.55,2,8.66l-2.43,1.77c-3-4.16-3.89-9-2.15-11.94,3.23-5.52,14.29-4.85,25.19,1.53,7.66,4.48,8.83,7.61,10.77,12.8a72.23,72.23,0,0,0,2.94,7l.87,1.76-1.93.38c-1.63.31-3.06.61-4.33.88A40.43,40.43,0,0,1,243,234.21Z"/><path class="cls-2" d="M276.17,232.86a44,44,0,0,1-6.26-.61,86.81,86.81,0,0,0-9.22-.94l-2-.08.59-1.87c.62-1.94,1.13-3.64,1.59-5.16,3-9.93,3.81-12.6,14.81-19.21,6-3.64,12.43-6,18-6.51,5.94-.6,10.29.88,12.27,4.17s1.24,7.83-2.08,12.79c-3.09,4.62-8.12,9.17-14.17,12.81S279.92,232.86,276.17,232.86Zm-13.41-4.44c3,.21,5.41.55,7.58.86,6.36.91,9.55,1.36,17.81-3.6,5.68-3.42,10.38-7.65,13.23-11.91,2.59-3.88,3.32-7.37,2-9.58s-4.75-3.2-9.39-2.73a42.1,42.1,0,0,0-16.73,6.1c-10,6-10.53,7.77-13.47,17.51C263.47,226.1,263.14,227.21,262.76,228.42Z"/><path class="cls-2" d="M244.77,196.1c-3.4,0-6.46-1.14-12.06-4.41a38,38,0,0,1-12-10.63c-2.87-4.19-3.53-8.07-1.86-10.92s5.38-4.17,10.43-3.72a37.75,37.75,0,0,1,15.17,5.29c7.79,4.56,9,7.74,11,13a74.33,74.33,0,0,0,3,7.11l.87,1.76-1.92.38c-1.67.32-3.12.62-4.42.9A41.86,41.86,0,0,1,244.77,196.1Zm-17.4-26.77c-3,0-5.09.82-6,2.32-1,1.77-.4,4.58,1.75,7.71a34.79,34.79,0,0,0,11.08,9.74c8.33,4.88,9.81,4.57,18.05,2.84.79-.17,1.64-.35,2.56-.53-1-2.2-1.69-4.06-2.28-5.63-1.86-5-2.79-7.46-9.67-11.48h0A34.87,34.87,0,0,0,229,169.4C228.42,169.35,227.88,169.33,227.37,169.33Z"/><path class="cls-2" d="M270.91,194.62a38.46,38.46,0,0,1-5.28-.51,71.29,71.29,0,0,0-7.67-.78l-2-.09.59-1.87c.52-1.61.94-3,1.33-4.3,2.52-8.37,3.2-10.62,12.47-16.18,11-6.62,22.24-7.43,25.58-1.87s-2.65,15.1-13.65,21.72h0C277.26,193.77,274.07,194.62,270.91,194.62ZM260,190.44c2.4.18,4.38.46,6,.7,5.25.75,7.89,1.12,14.71-3h0c10.05-6,14.72-14.12,12.63-17.59s-11.42-3.15-21.47,2.89c-8.27,5-8.71,6.42-11.14,14.48C260.56,188.71,260.3,189.55,260,190.44Z"/><path class="cls-2" d="M243,166.69c-3.12,0-5.94-1-11.07-4.05-10.19-6-15.79-14.69-12.76-19.87s13.39-4.58,23.58,1.39c7.16,4.19,8.25,7.11,10.07,12a65.72,65.72,0,0,0,2.73,6.49l.87,1.76-1.93.37c-1.52.3-2.84.58-4,.83A37.89,37.89,0,0,1,243,166.69Zm-15.86-24.45c-2.67,0-4.6.72-5.38,2-1.84,3.15,2.5,10.4,11.68,15.77,7.57,4.43,8.75,4.19,16.4,2.58.68-.14,1.41-.3,2.19-.45-.88-2-1.5-3.61-2-5-1.69-4.51-2.54-6.77-8.78-10.42h0C235.87,143.63,230.79,142.24,227.11,142.24Z"/><path class="cls-2" d="M266.88,165.34a35.05,35.05,0,0,1-4.85-.47,66.37,66.37,0,0,0-7-.72l-2-.08.59-1.87c.47-1.47.86-2.77,1.21-3.93,2.32-7.68,2.95-9.75,11.46-14.86,10.11-6.08,20.46-6.81,23.55-1.66s-2.41,13.94-12.52,20h0C272.71,164.56,269.78,165.34,266.88,165.34Zm-9.79-4.07c2.13.16,3.89.42,5.36.63,4.77.68,7.17,1,13.37-2.7h0c9.11-5.48,13.37-12.78,11.49-15.91S277,140.5,267.87,146c-7.52,4.52-7.87,5.67-10.13,13.16C257.54,159.8,257.33,160.51,257.09,161.27Z"/><path class="cls-2" d="M240.82,133.6c-2.8,0-5.32-.94-9.93-3.63a31.19,31.19,0,0,1-9.89-8.74c-2.41-3.51-2.95-6.77-1.53-9.19,2.75-4.7,12.07-4.18,21.22,1.17,6.43,3.77,7.47,6.54,9.05,10.75a57.23,57.23,0,0,0,2.42,5.76l.87,1.76-1.93.38c-1.35.26-2.53.51-3.58.73A34.28,34.28,0,0,1,240.82,133.6Zm-14.13-21.81c-2.3,0-4,.63-4.63,1.76-.79,1.34-.27,3.52,1.41,6a28.19,28.19,0,0,0,8.93,7.85c6.69,3.91,7.73,3.69,14.5,2.27l1.75-.36c-.74-1.66-1.27-3.08-1.72-4.28-1.54-4.11-2.24-6-7.75-9.21C234.44,113,229.93,111.79,226.69,111.79Z"/><path class="cls-2" d="M262.08,132.38a30.25,30.25,0,0,1-4.29-.41,57.34,57.34,0,0,0-6.22-.64l-2-.08.59-1.87c.42-1.31.77-2.47,1.08-3.5,2.08-6.89,2.64-8.74,10.28-13.33,9.09-5.47,18.4-6.09,21.21-1.43,1.44,2.41.94,5.68-1.42,9.21a31.12,31.12,0,0,1-9.79,8.85C267.39,131.69,264.69,132.38,262.08,132.38Zm-8.44-3.92c1.81.14,3.31.36,4.57.54,4.35.62,6.33.9,11.8-2.39a28.13,28.13,0,0,0,8.84-8c1.66-2.47,2.15-4.66,1.35-6-1.64-2.72-9.06-2.38-17.1,2.45-6.64,4-7,5-9,11.63Z"/><path class="cls-2" d="M240.52,106.81c-2.46,0-4.67-.83-8.72-3.19-8.18-4.79-12.47-11.6-10-15.85,1.27-2.17,4-3.18,7.8-2.85a27.57,27.57,0,0,1,10.91,3.8c5.64,3.31,6.56,5.75,7.94,9.44a51,51,0,0,0,2.1,5l.87,1.76-1.93.38c-1.17.22-2.2.44-3.11.63A29.94,29.94,0,0,1,240.52,106.81Zm-12.3-19c-1.91,0-3.28.5-3.82,1.43-1.34,2.29,2.19,7.8,8.92,11.74,5.75,3.36,6.64,3.17,12.45,2l1.28-.26c-.59-1.35-1-2.52-1.4-3.51-1.32-3.52-1.92-5.13-6.65-7.9a24.24,24.24,0,0,0-9.66-3.4C229,87.88,228.58,87.86,228.22,87.86Z"/><path class="cls-2" d="M259,105.75a25.55,25.55,0,0,1-3.76-.37,53.13,53.13,0,0,0-5.39-.55l-2-.08.59-1.87c.37-1.14.67-2.14.94-3,1.83-6,2.32-7.67,9-11.69,8.12-4.89,16.16-5.39,18.69-1.17s-1.68,11.08-9.81,16C263.67,105.14,261.3,105.75,259,105.75ZM251.92,102c1.47.13,2.7.3,3.75.45,3.72.54,5.43.78,10.12-2,6.68-4,10.15-9.57,8.78-11.85s-7.9-1.82-14.58,2.2c-5.71,3.43-6,4.3-7.69,10C252.18,101.11,252.06,101.52,251.92,102Z"/><path class="cls-2" d="M239,84.16c-2.46,0-4.68-.83-8.72-3.19-8.18-4.79-12.48-11.6-10-15.85,1.27-2.17,4-3.19,7.8-2.85A27.31,27.31,0,0,1,239,66.07h0c5.64,3.31,6.55,5.75,7.94,9.44a49.61,49.61,0,0,0,2.1,5l.86,1.76-1.92.37-3.12.64A29.75,29.75,0,0,1,239,84.16Zm-12.3-19c-1.91,0-3.28.5-3.82,1.43-1.34,2.29,2.18,7.8,8.91,11.74,5.75,3.36,6.64,3.17,12.46,2l1.28-.27c-.6-1.35-1-2.51-1.4-3.5-1.32-3.52-1.92-5.13-6.65-7.9h0a24.24,24.24,0,0,0-9.66-3.4C227.4,65.23,227,65.21,226.67,65.21Z"/><path class="cls-2" d="M257.45,83.09a27.06,27.06,0,0,1-3.76-.36,52.59,52.59,0,0,0-5.38-.55l-2-.08.59-1.87c.36-1.14.67-2.14.94-3,1.82-6,2.31-7.67,9-11.69a27.2,27.2,0,0,1,10.87-3.93c3.75-.38,6.53.6,7.83,2.76s.85,5.07-1.24,8.2a27.38,27.38,0,0,1-8.57,7.76C262.12,82.49,259.75,83.09,257.45,83.09Zm-7.08-3.78c1.47.12,2.7.3,3.75.45,3.72.53,5.42.78,10.12-2.05a24.3,24.3,0,0,0,7.61-6.84c1.4-2.09,1.82-3.91,1.16-5s-2.46-1.57-4.95-1.32a24.27,24.27,0,0,0-9.62,3.52c-5.71,3.43-6,4.3-7.69,10C250.63,78.45,250.5,78.87,250.37,79.31Z"/><path class="cls-2" d="M245.38,67.62l-1.93-.37c-1.17-.23-2.21-.41-3.13-.58-6.21-1.11-7.88-1.41-12.66-7.59a27.33,27.33,0,0,1-5.16-10.34c-.82-3.68-.17-6.55,1.83-8.09s4.94-1.44,8.29.27a27.25,27.25,0,0,1,8.7,7.61h0c4,5.18,3.93,7.78,3.83,11.72a51.24,51.24,0,0,0,.08,5.42ZM227.74,42.56a2.53,2.53,0,0,0-1.58.46c-1,.78-1.27,2.63-.73,5.08A24.21,24.21,0,0,0,230,57.25c4.06,5.26,5,5.42,10.81,6.47l1.29.23c0-1.47,0-2.72,0-3.77.1-3.77.14-5.48-3.21-9.82h0a24.23,24.23,0,0,0-7.68-6.77A8.21,8.21,0,0,0,227.74,42.56Z"/><path class="cls-2" d="M246.62,68.22l.3-1.94c.18-1.18.33-2.22.46-3.15.87-6.25,1.1-7.93,7.1-12.94a27.37,27.37,0,0,1,10.13-5.56c3.65-1,6.55-.41,8.16,1.52s1.63,4.88,0,8.3a27.26,27.26,0,0,1-7.27,9h0c-5,4.2-7.62,4.23-11.57,4.28a50.28,50.28,0,0,0-5.4.29Zm21.28-21a9.91,9.91,0,0,0-2.53.37,24.24,24.24,0,0,0-9,5c-5.11,4.27-5.23,5.17-6,11.06-.06.41-.12.84-.19,1.29,1.48-.1,2.72-.12,3.78-.13,3.76,0,5.48-.07,9.68-3.58a24.3,24.3,0,0,0,6.47-7.94c1.06-2.28,1.19-4.14.38-5.11A3.25,3.25,0,0,0,267.9,47.17Z"/><path class="cls-2" d="M245.75,56.89,245,55.08c-.46-1.1-.89-2.06-1.26-2.91-2.55-5.78-3.24-7.33-.77-14.75,3-9,8.76-14.6,13.43-13s5.93,9.5,2.94,18.5c-2.06,6.2-4.26,7.6-7.58,9.72a48.45,48.45,0,0,0-4.45,3.09Zm9.05-29.78c-2.6,0-6.74,4.44-9,11.26-2.1,6.31-1.74,7.15.66,12.58.17.38.34.78.53,1.2,1.19-.86,2.24-1.53,3.13-2.09,3.18-2,4.63-3,6.36-8.14h0c2.46-7.4,1.48-13.87-1-14.71A2.2,2.2,0,0,0,254.8,27.11Z"/><path class="cls-1" d="M213,314.27q-4.78-11.56-9.42-22.83l2.77-1.14,9.42,22.82Z"/><rect class="cls-1" x="196.18" y="258.18" width="3" height="30.12" transform="translate(-89.23 95.98) rotate(-22.41)"/><path class="cls-1" d="M187.81,253.22q-6.08-14.72-11.78-28.5l2.77-1.15q5.7,13.77,11.78,28.51Z"/><path class="cls-1" d="M173.29,218.12q-4.35-10.47-8.44-20.27l2.77-1.16q4.09,9.8,8.44,20.28Z"/><path class="cls-1" d="M161.19,189.08c-3.15-7.5-6.17-14.66-9-21.41l2.75-1.17c2.88,6.75,5.9,13.91,9,21.42Z"/><path class="cls-1" d="M147.85,157.62q-3.28-7.63-6.27-14.43l2.75-1.21c2,4.53,4.08,9.36,6.27,14.45Z"/><path class="cls-1" d="M137.77,134.57c-2-4.48-3.88-8.59-5.57-12.22l2.72-1.27c1.7,3.64,3.58,7.77,5.59,12.27Z"/><path class="cls-1" d="M128.88,115.36c-1.09-2.24-2.11-4.28-3-6.06l2.66-1.38c.94,1.8,2,3.87,3.07,6.13Z"/><path class="cls-1" d="M122.27,116.51c-6.14-17.43-5.25-19.35-3.33-20.14,1.34-.56,3.26-.15,7.36,7.06l-2.61,1.48a31.62,31.62,0,0,0-3.09-4.67c.27,1.94,1.28,6.15,4.5,15.27Z"/><path class="cls-1" d="M129.84,136.66c-1.65-4.21-3.14-8.08-4.42-11.5l2.81-1c1.28,3.4,2.76,7.26,4.4,11.46Z"/><path class="cls-1" d="M139.51,160.79c-2.06-5-4-9.85-5.81-14.38l2.78-1.11q2.72,6.78,5.8,14.36Z"/><path class="cls-1" d="M151.2,189.14q-3.88-9.33-7.41-17.88l2.78-1.15q3.51,8.55,7.4,17.88Z"/><path class="cls-1" d="M161.9,214.76q-2.79-6.66-5.45-13l2.76-1.15,5.46,13Z"/><rect class="cls-1" x="174.56" y="226.93" width="3" height="35.35" transform="translate(-80.99 87.28) rotate(-22.79)"/><path class="cls-1" d="M193.93,291.06q-6-14.21-11.67-27.81l2.77-1.16q5.7,13.57,11.66,27.82Z"/><path class="cls-1" d="M259.14,449l-9.77-24.09c-11.6-28.62-24.74-61.07-38.42-94.15-4.56-11-9.24-22.26-14.3-34.38l2.76-1.16c5.07,12.12,9.75,23.38,14.31,34.4,13.68,33.09,26.83,65.54,38.43,94.17,3.38,8.33,6.64,16.38,9.77,24.08Z"/><path class="cls-1" d="M310.61,561.78a2.27,2.27,0,0,1-.89-.19c-4.47-1.86-16.08-27.32-46-100.88l2.78-1.13c12,29.56,36.32,89.24,43.33,98.2-1.32-12.07-28.9-79.21-41.05-108.79l2.77-1.14c42.66,103.85,43.52,112.26,39.86,113.78A2.12,2.12,0,0,1,310.61,561.78Z"/><path class="cls-1" d="M264,437.12c-7.12-17.29-14.91-35.95-23.15-55.71-7.72-18.49-15.69-37.61-23.76-57.11l2.77-1.15c8.07,19.5,16,38.62,23.76,57.1,8.24,19.77,16,38.43,23.16,55.73Z"/><path class="cls-2" d="M192.44,337.56a45.73,45.73,0,0,1-9.16-1.22c-14.08-2.95-23.95-10.8-22.47-17.88s13.67-10.3,27.76-7.34c9.91,2.07,12.31,5,16.3,9.95a79.79,79.79,0,0,0,5.77,6.56L212,329l-1.71,1c-1.66.94-3.11,1.79-4.41,2.54C200.22,335.87,197.32,337.56,192.44,337.56ZM178.37,313c-8.26,0-13.9,2.61-14.63,6.07-1,4.67,6.89,11.54,20.16,14.32,10.74,2.25,12.23,1.38,20.49-3.45l2.76-1.62c-1.93-2.06-3.39-3.87-4.62-5.37-3.8-4.69-5.71-7-14.58-8.91A47.09,47.09,0,0,0,178.37,313Z"/><path class="cls-2" d="M213,326.74l0-2c0-1.91-.07-3.59-.12-5.09-.29-9.81-.37-12.45,7.51-21.68a42.82,42.82,0,0,1,14.15-11.22c5.16-2.33,9.53-2.3,12.31.07s3.49,6.69,2,12.15A42.71,42.71,0,0,1,240,314.75c-6.58,7.7-10.33,8.39-16.55,9.53a80.42,80.42,0,0,0-8.52,1.92Zm28.48-38.67a14.35,14.35,0,0,0-5.73,1.46A39.63,39.63,0,0,0,222.67,300c-7.13,8.35-7.07,10.08-6.79,19.64,0,1,.06,2,.09,3.2,2.74-.71,5-1.13,6.93-1.47,5.94-1.09,8.92-1.64,14.81-8.53A39.67,39.67,0,0,0,246,298.22c1.15-4.21.76-7.52-1.06-9.07A5.09,5.09,0,0,0,241.51,288.07Z"/><path class="cls-2" d="M179.54,304.2a51.45,51.45,0,0,1-10.28-1.38c-15.8-3.31-26.88-12.07-25.23-19.95s15.31-11.46,31.12-8.15h0c11.12,2.33,13.82,5.66,18.29,11.17a91.46,91.46,0,0,0,6.53,7.42l1.38,1.4-1.71,1c-1.88,1.07-3.51,2-5,2.88C188.28,302.29,185,304.2,179.54,304.2Zm-15.79-27.7c-9,0-15.87,2.61-16.78,7-1.27,6,9.22,13.53,22.9,16.4,12.21,2.56,13.9,1.57,23.28-3.93l3.33-1.94c-2.24-2.37-3.89-4.41-5.37-6.24-4.32-5.33-6.5-8-16.58-10.12h0A52.62,52.62,0,0,0,163.75,276.5Z"/><path class="cls-2" d="M202,293.09l0-2c0-1.84-.08-3.46-.12-4.9-.29-9.47-.36-12,7.25-20.94,9-10.57,20.27-15.29,25.59-10.75s2.42,16.38-6.61,27h0c-6.35,7.44-10,8.1-16,9.2a80.48,80.48,0,0,0-8.21,1.85Zm27.49-37.31c-4.51,0-11.58,3.82-18.1,11.45-6.86,8-6.81,9.7-6.53,18.9,0,.93,0,1.93.08,3,2.61-.67,4.8-1.07,6.62-1.41,5.72-1,8.59-1.57,14.25-8.2h0c8.46-9.92,10.42-19.76,6.94-22.73A4.88,4.88,0,0,0,229.53,255.78Z"/><path class="cls-2" d="M169.38,270.24a40.56,40.56,0,0,1-8-1.07c-12.36-2.59-21-9.52-19.69-15.77s12-9.13,24.36-6.54h0c8.69,1.82,10.8,4.41,14.28,8.72a72.41,72.41,0,0,0,5,5.69l1.38,1.39-1.71,1c-1.44.81-2.7,1.55-3.83,2.21C176.2,268.75,173.66,270.24,169.38,270.24Zm-12.1-21.33c-7.11,0-12.07,2.22-12.67,5.1-.81,3.89,6.12,9.87,17.37,12.22,9.27,1.95,10.55,1.19,17.68-3l2.19-1.28c-1.6-1.72-2.83-3.23-3.86-4.5-3.27-4.05-4.92-6.08-12.56-7.68A40.07,40.07,0,0,0,157.28,248.91Z"/><path class="cls-2" d="M187.92,261.71l0-2c0-2-.08-3.81-.13-5.4-.31-10.37-.39-13.16,7.94-22.92,4.58-5.37,9.9-9.58,15-11.87,5.44-2.45,10-2.43,13,.06s3.67,7,2.1,12.78c-1.47,5.37-4.8,11.29-9.38,16.65-7,8.15-10.92,8.87-17.49,10.08a86.23,86.23,0,0,0-9,2Zm30.1-41a15.3,15.3,0,0,0-6.11,1.54c-4.68,2.11-9.63,6.05-13.93,11.09-7.58,8.88-7.52,10.71-7.22,20.88,0,1.08.07,2.24.1,3.51,2.91-.76,5.3-1.2,7.45-1.59,6.32-1.16,9.49-1.74,15.75-9.07,4.3-5,7.41-10.54,8.76-15.49,1.23-4.51.81-8.05-1.14-9.72A5.53,5.53,0,0,0,218,220.75Z"/><path class="cls-2" d="M158.85,233.57a41.53,41.53,0,0,1-8.15-1.09,38,38,0,0,1-14.79-6.26c-4-3.07-5.91-6.53-5.24-9.77s3.78-5.66,8.72-6.84a38.1,38.1,0,0,1,16.06.2c8.84,1.85,11,4.5,14.53,8.87a74,74,0,0,0,5.09,5.8l1.38,1.39-1.71,1c-1.47.83-2.75,1.58-3.89,2.25C165.78,232.06,163.21,233.57,158.85,233.57Zm-12.39-21.73a27.61,27.61,0,0,0-6.38.69c-3.69.88-6.05,2.53-6.47,4.54s1.08,4.46,4.11,6.75a35,35,0,0,0,13.6,5.72c9.44,2,10.75,1.21,18-3l2.26-1.32c-1.64-1.76-2.89-3.31-3.94-4.61-3.35-4.12-5-6.19-12.82-7.82A41.41,41.41,0,0,0,146.46,211.84Z"/><path class="cls-2" d="M173.27,226.56l0-2c0-1.69-.07-3.17-.1-4.49-.27-8.74-.34-11.09,6.68-19.31a38,38,0,0,1,12.59-10c4.63-2.09,8.57-2.06,11.08.09s3.16,6,1.83,10.93a38.23,38.23,0,0,1-7.88,14c-5.87,6.87-9.21,7.48-14.76,8.5a72.14,72.14,0,0,0-7.52,1.69Zm25.38-34.29a12.64,12.64,0,0,0-5,1.27,34.83,34.83,0,0,0-11.54,9.2c-6.27,7.34-6.23,8.85-6,17.27,0,.81.05,1.67.08,2.61,2.33-.59,4.29-1,5.93-1.25,5.22-1,7.84-1.44,13-7.49A34.93,34.93,0,0,0,202.42,201c1-3.67.68-6.53-.88-7.86A4.33,4.33,0,0,0,198.65,192.27Z"/><path class="cls-2" d="M148.2,206.19a37.59,37.59,0,0,1-7.5-1,34.79,34.79,0,0,1-13.56-5.75c-3.75-2.83-5.47-6-4.84-9.05s3.5-5.26,8.06-6.35a34.83,34.83,0,0,1,14.74.18h0c8.12,1.7,10.09,4.13,13.35,8.15a65.3,65.3,0,0,0,4.65,5.29l1.38,1.39-1.71,1c-1.34.76-2.51,1.44-3.56,2.06C154.56,204.8,152.19,206.19,148.2,206.19Zm-11.34-19.86a25,25,0,0,0-5.8.63c-3.33.79-5.45,2.26-5.82,4s1,4,3.7,6.05a31.72,31.72,0,0,0,12.38,5.2c8.58,1.8,9.62,1.19,16.37-2.76l1.93-1.13c-1.45-1.56-2.56-2.94-3.5-4.1-3-3.74-4.56-5.62-11.64-7.1h0A37.45,37.45,0,0,0,136.86,186.33Z"/><path class="cls-2" d="M161.23,199.82l0-2c0-1.54-.06-2.9-.1-4.11-.23-8-.3-10.18,6.15-17.73a34.61,34.61,0,0,1,11.55-9.15c4.27-1.94,7.92-1.9,10.26.1s2.94,5.59,1.71,10.11a34.84,34.84,0,0,1-7.23,12.85h0c-5.39,6.31-8.46,6.87-13.56,7.8a65.49,65.49,0,0,0-6.86,1.55Zm23.32-31.37A11.3,11.3,0,0,0,180,169.6a31.79,31.79,0,0,0-10.5,8.37c-5.7,6.67-5.66,7.87-5.43,15.69,0,.69.05,1.43.07,2.23,2.07-.52,3.81-.84,5.27-1.11,4.74-.87,7.12-1.3,11.82-6.8h0a31.69,31.69,0,0,0,6.61-11.69c.9-3.29.62-5.86-.76-7A3.83,3.83,0,0,0,184.55,168.45Z"/><path class="cls-2" d="M136.1,175.42a33.67,33.67,0,0,1-6.72-.9,31,31,0,0,1-12.16-5.15c-3.39-2.56-4.94-5.48-4.36-8.23s3.16-4.8,7.3-5.78a31.35,31.35,0,0,1,13.2.16h0c7.29,1.53,9.16,3.84,12,7.32a60.12,60.12,0,0,0,4.14,4.7l1.37,1.39-1.7,1c-1.2.68-2.24,1.29-3.17,1.83C141.81,174.17,139.68,175.42,136.1,175.42ZM126,157.73a22.23,22.23,0,0,0-5.13.55c-2.89.69-4.74,2-5.06,3.48s.86,3.42,3.24,5.22a28.18,28.18,0,0,0,11,4.61c7.59,1.58,8.5,1,14.47-2.45l1.54-.9c-1.22-1.33-2.18-2.51-3-3.51-2.76-3.41-4-5-10.27-6.27A33.08,33.08,0,0,0,126,157.73Z"/><path class="cls-2" d="M147.54,169.8l0-2c0-1.37-.06-2.58-.09-3.65-.22-7.2-.27-9.14,5.51-15.91,6.89-8.07,15.52-11.62,19.66-8.08s2,12.61-4.89,20.68h0c-4.84,5.67-7.76,6.2-12.18,7a60.94,60.94,0,0,0-6.1,1.37Zm20.93-28c-3.23,0-8.5,2.85-13.26,8.43-5,5.89-5,6.95-4.79,13.87,0,.55,0,1.15.05,1.78,1.76-.44,3.25-.71,4.51-.94,4.32-.79,6.29-1.15,10.43-6h0c6.09-7.13,7.65-14.39,5.24-16.45A3.31,3.31,0,0,0,168.47,141.79Z"/><path class="cls-2" d="M127.78,150a30,30,0,0,1-5.9-.78,27.48,27.48,0,0,1-10.64-4.51c-3-2.28-4.38-4.88-3.86-7.35s2.82-4.3,6.49-5.17a27,27,0,0,1,11.55.14h0c6.4,1.34,8,3.36,10.52,6.42a51.84,51.84,0,0,0,3.58,4.07l1.38,1.39-1.71,1c-1,.59-1.94,1.12-2.75,1.59C132.78,148.94,130.92,150,127.78,150ZM119,134.66a19.56,19.56,0,0,0-4.41.47c-2.44.59-4,1.63-4.25,2.88s.74,2.82,2.74,4.33a24.09,24.09,0,0,0,9.45,4c6.51,1.36,7.3.9,12.43-2.1l1.12-.66c-1-1.09-1.77-2.05-2.44-2.88-2.37-2.92-3.45-4.25-8.81-5.38h0A28.61,28.61,0,0,0,119,134.66Z"/><path class="cls-2" d="M137.5,145.21l0-2c0-1.2,0-2.25-.08-3.18-.19-6.31-.24-8,4.84-13.95,6.15-7.21,13.61-10.24,17.35-7s1.92,11-4.23,18.24c-4.25,5-6.81,5.45-10.69,6.16a49.28,49.28,0,0,0-5.28,1.19Zm18.41-24.39c-2.76,0-7.38,2.55-11.39,7.25-4.33,5.06-4.3,6-4.12,11.91,0,.41,0,.85,0,1.31,1.43-.35,2.65-.57,3.69-.76,3.7-.68,5.39-1,9-5.15,5.06-5.94,6.58-12.3,4.56-14A2.6,2.6,0,0,0,155.91,120.82Z"/><path class="cls-2" d="M119.11,129.05a29.27,29.27,0,0,1-5.89-.79c-9.28-1.95-15.51-7-14.51-11.86s8.77-7,18.05-5c6.4,1.34,8,3.36,10.52,6.43a51.93,51.93,0,0,0,3.58,4.06l1.38,1.4-1.71,1c-1,.59-1.94,1.12-2.75,1.59C124.12,128,122.26,129.05,119.11,129.05Zm-8.73-15.36c-4.84,0-8.33,1.43-8.73,3.33-.54,2.6,4.55,6.7,12.18,8.3,6.52,1.37,7.31.91,12.43-2.1l1.13-.66c-1-1.09-1.77-2-2.44-2.87-2.37-2.93-3.45-4.26-8.81-5.38A28.09,28.09,0,0,0,110.38,113.69Z"/><path class="cls-2" d="M128.84,124.22l0-2c0-1.19-.05-2.24-.07-3.18-.19-6.31-.24-8,4.83-14,6.16-7.21,13.62-10.23,17.36-7,1.91,1.63,2.42,4.54,1.43,8.18a27.31,27.31,0,0,1-5.66,10.06h0c-4.25,5-6.81,5.45-10.69,6.16a51.27,51.27,0,0,0-5.28,1.19Zm18.4-24.38c-2.75,0-7.38,2.54-11.39,7.24-4.32,5.06-4.29,6-4.12,11.92,0,.41,0,.84,0,1.3,1.43-.35,2.66-.57,3.7-.76,3.7-.68,5.39-1,8.94-5.15h0a24.17,24.17,0,0,0,5.05-8.91c.66-2.42.49-4.28-.48-5.11A2.62,2.62,0,0,0,147.24,99.84Z"/><path class="cls-2" d="M113.05,112.06c-2.78,0-5-.87-9.23-3.73-7.88-5.28-11.75-12.34-9-16.43s10.74-3.19,18.62,2.09c5.43,3.64,6.2,6.13,7.35,9.9a50,50,0,0,0,1.8,5.1l.76,1.81-2,.26-3.14.45A38.34,38.34,0,0,1,113.05,112.06ZM100.58,92.38c-1.59,0-2.76.41-3.29,1.19-1.47,2.21,1.72,7.92,8.2,12.26,5.53,3.71,6.43,3.58,12.31,2.71l1.29-.19c-.51-1.38-.87-2.57-1.18-3.58-1.11-3.6-1.61-5.24-6.16-8.29h0C107.59,93.69,103.42,92.38,100.58,92.38Z"/><path class="cls-2" d="M124.7,111l-.34-1.93c-.2-1.18-.39-2.21-.56-3.13-1.16-6.2-1.47-7.87,2.63-14.53a27.29,27.29,0,0,1,7.84-8.48c3.16-2.06,6.08-2.47,8.22-1.15s3.09,4.11,2.67,7.86a27.25,27.25,0,0,1-4,10.82h0c-3.43,5.57-5.89,6.43-9.61,7.73a48.92,48.92,0,0,0-5,2Zm15-27a7.34,7.34,0,0,0-3.77,1.42A24.31,24.31,0,0,0,129,93c-3.49,5.67-3.32,6.57-2.23,12.41q.1.61.24,1.29c1.36-.57,2.53-1,3.53-1.32,3.55-1.25,5.18-1.81,8-6.47h0a24.36,24.36,0,0,0,3.61-9.59c.28-2.49-.18-4.3-1.26-5A2.35,2.35,0,0,0,139.68,84Z"/><path class="cls-2" d="M120.27,100.51,119,99c-.79-.9-1.49-1.67-2.12-2.37-4.25-4.67-5.4-5.92-5.41-13.74a27.17,27.17,0,0,1,2.21-11.34c1.6-3.41,3.87-5.29,6.38-5.3h0c4.92,0,8.64,7.14,8.65,16.61,0,6.54-1.62,8.56-4.11,11.63a51.59,51.59,0,0,0-3.23,4.34ZM120,69.29h0c-1.27,0-2.61,1.31-3.68,3.58a24.17,24.17,0,0,0-1.92,10.06c0,6.66.63,7.33,4.63,11.72l.87,1c.87-1.19,1.65-2.16,2.31-3,2.37-2.93,3.45-4.26,3.44-9.73C125.68,75.11,122.7,69.29,120,69.29Z"/><path class="cls-1" d="M324.86,298.27l-2.77-1.15,9.5-22.79,2.77,1.15Q329.68,286.72,324.86,298.27Z"/><rect class="cls-1" x="325.24" y="255.8" width="30.12" height="3" transform="translate(-27.98 472.65) rotate(-67.41)"/><path class="cls-1" d="M350.25,237.31l-2.77-1.15q6.13-14.68,11.89-28.47l2.76,1.16C358.3,218,354.33,227.52,350.25,237.31Z"/><path class="cls-1" d="M364.89,202.26l-2.76-1.16q4.38-10.46,8.51-20.24L373.4,182Q369.28,191.8,364.89,202.26Z"/><path class="cls-1" d="M377.1,173.27l-2.76-1.17q4.77-11.25,9.12-21.39l2.76,1.18Q381.87,162,377.1,173.27Z"/><path class="cls-1" d="M390.55,141.85l-2.75-1.19q3.31-7.64,6.32-14.43l2.74,1.21Q393.86,134.22,390.55,141.85Z"/><path class="cls-1" d="M400.71,118.84,398,117.61c2-4.52,3.94-8.64,5.64-12.25l2.71,1.28C404.63,110.23,402.74,114.34,400.71,118.84Z"/><path class="cls-1" d="M409.67,99.66,407,98.34c1.11-2.25,2.15-4.31,3.1-6.12l2.66,1.39C411.79,95.4,410.76,97.44,409.67,99.66Z"/><path class="cls-1" d="M416.28,100.83l-2.83-1c3.24-9.11,4.27-13.32,4.55-15.26a31.72,31.72,0,0,0-3.1,4.66l-2.61-1.49c4.12-7.19,6-7.6,7.38-7C421.59,81.51,422.48,83.42,416.28,100.83Z"/><path class="cls-1" d="M408.63,121l-2.78-1.11c1.63-4.12,3.12-8,4.43-11.44l2.81,1.06C411.77,113,410.27,116.82,408.63,121Z"/><path class="cls-1" d="M398.88,145.06l-2.78-1.15q3.12-7.56,5.86-14.34l2.78,1.13Q402,137.48,398.88,145.06Z"/><path class="cls-1" d="M387.09,173.37l-2.77-1.17q3.92-9.3,7.46-17.85l2.77,1.15Q391,164,387.09,173.37Z"/><path class="cls-1" d="M376.3,198.94l-2.77-1.17q2.82-6.65,5.5-13l2.76,1.17Q379.12,192.29,376.3,198.94Z"/><rect class="cls-1" x="344.36" y="227.24" width="35.35" height="3" transform="translate(10.05 472.66) rotate(-67.01)"/><path class="cls-1" d="M344,275.14,341.24,274q6-14.21,11.76-27.78l2.76,1.18Q350,260.91,344,275.14Z"/><path class="cls-1" d="M226.37,545.44a1.89,1.89,0,0,1-.78-.16,2.11,2.11,0,0,1-1.16-1.2c-2.74-6.7,22.77-68.2,71.92-185.44,7-16.62,14.19-33.86,21.56-51.51l2.77,1.16c-7.38,17.65-14.6,34.89-21.57,51.5C277.92,410.36,259.62,454,246.58,486.7c-14.66,36.74-18.87,50.35-19.39,54.74,6.73-8.53,29.55-64.23,55.73-128.12,12.31-30,26.26-64.08,41.15-99.72,4.58-11,9.43-22.52,14.43-34.35l2.76,1.17c-5,11.83-9.84,23.38-14.42,34.33C312,350.39,298,384.43,285.7,414.46c-35.53,86.7-52.86,128.48-58.44,130.8A2.35,2.35,0,0,1,226.37,545.44Z"/><path class="cls-2" d="M345.4,321.64c-4.93,0-7.82-1.71-13.52-5.08-1.29-.76-2.74-1.61-4.4-2.56l-1.7-1,1.38-1.39A81,81,0,0,0,333,305.1c4-4.9,6.42-7.85,16.34-9.89h0c14.09-2.9,26.27.37,27.73,7.44s-8.44,14.9-22.53,17.8A46.81,46.81,0,0,1,345.4,321.64Zm-14.76-9.28L333.4,314c8.24,4.87,9.73,5.74,20.48,3.53,13.28-2.73,21.16-9.58,20.2-14.25s-10.92-7.85-24.19-5.12h0C341,300,339.1,302.32,335.28,307,334.05,308.5,332.58,310.3,330.64,312.36Z"/><path class="cls-2" d="M324.77,310.74l-1.89-.55a84.1,84.1,0,0,0-8.51-1.95c-6.22-1.16-10-1.86-16.52-9.59h0a42.5,42.5,0,0,1-8.8-15.76c-1.47-5.47-.75-9.78,2-12.14,5.51-4.67,17.12.27,26.42,11.24,7.85,9.26,7.76,11.9,7.43,21.7-.05,1.5-.1,3.18-.14,5.09Zm-24.63-14c5.86,6.92,8.84,7.48,14.78,8.58,1.9.36,4.19.79,6.93,1.5,0-1.15.06-2.21.1-3.2.31-9.56.37-11.28-6.73-19.66C306.46,273.59,296.67,270,293,273c-1.83,1.54-2.22,4.85-1.09,9.07a39.7,39.7,0,0,0,8.2,14.6Z"/><path class="cls-2" d="M358.43,288.32c-5.54,0-8.79-1.92-15.2-5.7-1.45-.86-3.09-1.83-5-2.9l-1.71-1,1.39-1.39A92.5,92.5,0,0,0,344.5,270c4.49-5.5,7.2-8.82,18.34-11.11h0c15.81-3.26,29.46.37,31.08,8.26.82,4-1.51,8.23-6.56,12-4.73,3.54-11.38,6.33-18.73,7.84A51.63,51.63,0,0,1,358.43,288.32Zm-17-10.24,3.33,2c9.36,5.52,11.05,6.52,23.26,4,6.93-1.42,13.16-4,17.54-7.3,4-3,6-6.29,5.43-9-1.25-6-13.86-8.74-27.55-5.92h0c-10.09,2.07-12.27,4.74-16.61,10.06C345.34,273.69,343.68,275.72,341.43,278.08Z"/><path class="cls-2" d="M335.87,277.13l-1.88-.55a81.6,81.6,0,0,0-8.2-1.88c-6-1.12-9.63-1.8-16-9.26a41.21,41.21,0,0,1-8.5-15.23c-1.43-5.29-.72-9.46,2-11.76,5.33-4.52,16.56.25,25.55,10.85,7.58,8.95,7.49,11.49,7.18,21-.05,1.44-.11,3.06-.14,4.9Zm-27.37-37.4a4.91,4.91,0,0,0-3.24,1c-1.75,1.48-2.12,4.65-1,8.69a38.27,38.27,0,0,0,7.9,14.07h0c5.64,6.65,8.5,7.19,14.22,8.25,1.82.34,4,.75,6.61,1.43,0-1.08.07-2.08.1-3,.3-9.21.36-10.87-6.47-18.93C320.08,243.57,313,239.73,308.5,239.73Z"/><path class="cls-2" d="M368.68,254.4c-4.32,0-6.84-1.49-11.84-4.44-1.12-.67-2.38-1.41-3.82-2.23l-1.7-1,1.38-1.39a71.35,71.35,0,0,0,5-5.67c3.5-4.29,5.62-6.88,14.31-8.67a37.26,37.26,0,0,1,15.79-.15c4.86,1.18,7.9,3.58,8.55,6.77s-1.18,6.6-5.18,9.6a37.42,37.42,0,0,1-14.56,6.11A41.06,41.06,0,0,1,368.68,254.4Zm-12.5-8.31,2.19,1.28c7.11,4.2,8.39,5,17.66,3a34.33,34.33,0,0,0,13.37-5.57c3-2.23,4.45-4.63,4.05-6.59s-2.71-3.59-6.33-4.46a34.35,34.35,0,0,0-14.47.16c-7.65,1.58-9.31,3.6-12.6,7.64C359,242.86,357.79,244.37,356.18,246.09Z"/><path class="cls-2" d="M350.11,245.8l-1.88-.55a88.56,88.56,0,0,0-9-2.07c-6.57-1.22-10.54-2-17.46-10.13h0c-4.56-5.39-7.87-11.31-9.32-16.68-1.54-5.76-.78-10.3,2.14-12.78s7.53-2.49,13,0c5.06,2.31,10.36,6.54,14.93,11.93,8.29,9.79,8.2,12.58,7.85,22.95-.05,1.59-.11,3.36-.14,5.39Zm-30-41.07a5.48,5.48,0,0,0-3.63,1.15c-2,1.66-2.39,5.2-1.18,9.71,1.33,4.95,4.43,10.46,8.71,15.52h0c6.23,7.35,9.4,7.94,15.72,9.12,2.15.41,4.53.85,7.45,1.62,0-1.27.07-2.43.11-3.5.34-10.17.4-12-7.15-20.91-4.29-5.06-9.22-9-13.89-11.14A15.36,15.36,0,0,0,320.12,204.73Z"/><path class="cls-2" d="M379.34,217.76c-4.39,0-7-1.52-12-4.52-1.15-.67-2.42-1.43-3.89-2.26l-1.71-1,1.39-1.39a71.55,71.55,0,0,0,5.11-5.77c3.57-4.36,5.72-7,14.56-8.82a38.08,38.08,0,0,1,16.07-.15c4.93,1.2,8,3.64,8.68,6.88s-1.2,6.7-5.26,9.74a37.88,37.88,0,0,1-14.82,6.21A41.18,41.18,0,0,1,379.34,217.76Zm-12.78-8.43,2.26,1.33c7.25,4.28,8.55,5.05,18,3.1a34.81,34.81,0,0,0,13.62-5.67c3-2.27,4.54-4.73,4.13-6.74s-2.77-3.67-6.46-4.56a34.86,34.86,0,0,0-14.75.17h0c-7.8,1.6-9.48,3.67-12.84,7.78C369.47,206,368.21,207.57,366.56,209.33Z"/><path class="cls-2" d="M364.88,210.7l-1.88-.55a73.31,73.31,0,0,0-7.52-1.72c-5.54-1-8.89-1.66-14.72-8.55a37.91,37.91,0,0,1-7.84-14c-1.31-4.91-.65-8.78,1.87-10.92,4.95-4.2,15.33.18,23.63,10,7,8.25,6.91,10.59,6.62,19.33,0,1.32-.09,2.81-.12,4.5Zm-25.32-34.35a4.24,4.24,0,0,0-2.83.88c-1.56,1.32-1.89,4.18-.91,7.85A35,35,0,0,0,343,197.94h0c5.15,6.08,7.77,6.57,13,7.54,1.64.31,3.6.67,5.93,1.28,0-.94.06-1.81.08-2.62.28-8.41.33-9.93-5.91-17.29C350.24,179.9,343.65,176.35,339.56,176.35Z"/><path class="cls-2" d="M390.09,190.42c-4,0-6.39-1.39-11.06-4.15-1-.61-2.21-1.3-3.55-2.07l-1.71-1,1.39-1.39a68.06,68.06,0,0,0,4.67-5.27c3.27-4,5.25-6.43,13.37-8.1a34.78,34.78,0,0,1,14.74-.14c4.56,1.11,7.42,3.37,8,6.38,1.21,5.89-6.9,12.36-18.46,14.74A37.91,37.91,0,0,1,390.09,190.42Zm-11.46-7.86,1.93,1.13c6.73,4,7.77,4.59,16.36,2.82,10.41-2.14,16.85-7.62,16.12-11.19-.37-1.78-2.48-3.27-5.8-4.07a31.77,31.77,0,0,0-13.43.16h0c-7.08,1.45-8.61,3.33-11.66,7.06C381.21,179.62,380.09,181,378.63,182.56Z"/><path class="cls-2" d="M377,184l-1.88-.55a65.69,65.69,0,0,0-6.86-1.57c-5.09-.95-8.16-1.53-13.53-7.85-7.63-9-10-19.1-5.43-23,2.34-2,6-2,10.26-.07a34.72,34.72,0,0,1,11.51,9.2c6.42,7.57,6.35,9.73,6.08,17.75,0,1.21-.08,2.56-.11,4.11Zm-23.22-31.46a3.83,3.83,0,0,0-2.54.8c-2.79,2.35-1.09,10.63,5.78,18.75,4.68,5.51,7.05,6,11.79,6.84,1.46.27,3.21.6,5.28,1.13,0-.8,0-1.54.07-2.23.26-7.82.3-9-5.38-15.71a31.66,31.66,0,0,0-10.47-8.41A11.28,11.28,0,0,0,353.79,152.55Z"/><path class="cls-2" d="M402.29,159.7c-3.62,0-5.74-1.26-9.92-3.73-.93-.55-2-1.16-3.16-1.84l-1.71-1,1.39-1.39a58.27,58.27,0,0,0,4.14-4.68c2.84-3.48,4.72-5.78,12-7.28h0c10.39-2.14,19.38.36,20.48,5.69s-6.18,11.18-16.57,13.32A33.71,33.71,0,0,1,402.29,159.7Zm-9.93-7.22,1.54.91c6,3.52,6.86,4.05,14.46,2.49,9.18-1.89,14.87-6.67,14.23-9.77s-7.76-5.25-16.94-3.36h0c-6.25,1.29-7.52,2.84-10.29,6.23C394.55,150,393.59,151.15,392.36,152.48Z"/><path class="cls-2" d="M390.82,154l-1.89-.55a61,61,0,0,0-6.09-1.39c-4.42-.83-7.33-1.37-12.15-7.05h0a31.18,31.18,0,0,1-6.43-11.53c-1.11-4.1-.53-7.36,1.61-9.18s5.45-1.84,9.31-.08a31.15,31.15,0,0,1,10.32,8.24c5.76,6.79,5.69,8.73,5.45,15.92,0,1.08-.07,2.29-.1,3.66ZM370,126a3.22,3.22,0,0,0-2.15.67c-1.19,1-1.43,3.23-.66,6.11A28.25,28.25,0,0,0,373,143.1h0c4.13,4.87,6.09,5.23,10.41,6,1.26.23,2.75.51,4.51,1,0-.64,0-1.23.05-1.79.24-6.91.27-8-4.74-13.88a28.16,28.16,0,0,0-9.27-7.45A10.06,10.06,0,0,0,370,126Z"/><path class="cls-2" d="M410.7,134.34c-3.18,0-5-1.1-8.71-3.27l-2.74-1.6-1.71-1,1.39-1.39a52.44,52.44,0,0,0,3.59-4c2.49-3,4.14-5.07,10.55-6.39h0a27.3,27.3,0,0,1,11.55-.1c3.66.89,6,2.73,6.47,5.2s-.87,5.07-3.89,7.33a27.27,27.27,0,0,1-10.65,4.47A29.4,29.4,0,0,1,410.7,134.34Zm-8.31-6.51,1.13.66c5.11,3,5.9,3.49,12.42,2.15a24.34,24.34,0,0,0,9.46-3.94c2-1.5,3-3.08,2.75-4.32s-1.8-2.3-4.24-2.89a24.29,24.29,0,0,0-10.24.12h0c-5.36,1.1-6.45,2.43-8.83,5.35C404.17,125.78,403.39,126.74,402.39,127.83Z"/><path class="cls-2" d="M400.94,129.48l-1.89-.55a52.05,52.05,0,0,0-5.28-1.21c-3.87-.72-6.43-1.2-10.66-6.19a27.31,27.31,0,0,1-5.63-10.09c-1-3.64-.46-6.54,1.46-8.17s4.87-1.66,8.3-.1a27.36,27.36,0,0,1,9,7.2c5.06,6,5,7.66,4.79,14,0,.94-.07,2-.09,3.18ZM382.63,105a2.65,2.65,0,0,0-1.75.54c-1,.82-1.15,2.68-.5,5.1a24.19,24.19,0,0,0,5,8.93c3.54,4.18,5.23,4.49,8.92,5.19,1.05.19,2.27.42,3.7.77,0-.46,0-.89,0-1.31.2-5.93.23-6.85-4.08-11.93a24.27,24.27,0,0,0-8-6.41A8.59,8.59,0,0,0,382.63,105Z"/><path class="cls-2" d="M419.43,113.38c-3.17,0-5-1.09-8.7-3.26-.8-.48-1.71-1-2.75-1.6l-1.7-1,1.38-1.39a50.68,50.68,0,0,0,3.6-4.06c2.49-3,4.14-5.07,10.54-6.38,9.29-1.92,17,.28,18,5.09s-5.26,9.89-14.55,11.81A29.84,29.84,0,0,1,419.43,113.38Zm-8.3-6.51,1.13.67c5.11,3,5.9,3.48,12.42,2.14,7.64-1.57,12.75-5.66,12.21-8.26s-6.84-4.34-14.48-2.77h0c-5.36,1.11-6.45,2.44-8.83,5.35C412.91,104.82,412.12,105.78,411.13,106.87Z"/><path class="cls-2" d="M409.67,108.52l-1.88-.54a49.46,49.46,0,0,0-5.28-1.21c-3.87-.73-6.43-1.2-10.66-6.19a27.24,27.24,0,0,1-5.63-10.09c-1-3.65-.46-6.55,1.46-8.18,3.75-3.18,11.2-.12,17.33,7.11,5.05,6,5,7.66,4.79,14,0,.93-.07,2-.09,3.17ZM391.34,84.07a2.64,2.64,0,0,0-1.72.53c-1,.82-1.15,2.69-.5,5.11a24.13,24.13,0,0,0,5,8.93c3.53,4.17,5.22,4.49,8.92,5.18,1,.19,2.26.42,3.7.77,0-.46,0-.89,0-1.3.2-5.94.23-6.85-4.08-11.93C398.72,86.64,394.1,84.07,391.34,84.07Z"/><path class="cls-2" d="M425.55,96.42a37.87,37.87,0,0,1-5.23-.57c-.92-.14-2-.3-3.14-.46l-1.94-.26.76-1.81a50.44,50.44,0,0,0,1.81-5.1c1.17-3.77,1.95-6.26,7.39-9.88h0a27.37,27.37,0,0,1,10.68-4.41c3.73-.55,6.55.3,7.94,2.4s1.09,5-.86,8.25a27.32,27.32,0,0,1-8.21,8.14C430.5,95.54,428.31,96.42,425.55,96.42Zm-6.07-3.73,1.29.19c5.88.89,6.78,1,12.32-2.66a24.19,24.19,0,0,0,7.3-7.19c1.3-2.14,1.64-4,.94-5s-2.53-1.46-5-1.09a24.36,24.36,0,0,0-9.46,3.94h0c-4.56,3-5.07,4.67-6.18,8.27C420.36,90.12,420,91.3,419.48,92.69Z"/><path class="cls-2" d="M413.87,95.29l-1.78-.83a51.11,51.11,0,0,0-5-2c-3.72-1.31-6.17-2.18-9.58-7.76h0C392.54,76.6,392,68.57,396.17,66s11.09,1.61,16,9.69c4.08,6.67,3.76,8.34,2.58,14.54-.17.92-.37,2-.58,3.13ZM400,83.12c2.85,4.68,4.47,5.25,8,6.5,1,.35,2.17.77,3.53,1.34.08-.45.17-.88.24-1.29,1.11-5.83,1.28-6.73-2.19-12.41-4.06-6.66-9.64-10.08-11.9-8.7S396,76.47,400,83.12Z"/><path class="cls-2" d="M418.33,84.84l-1.08-1.64A50,50,0,0,0,414,78.85c-2.47-3.08-4.1-5.11-4.06-11.65h0c0-9.46,3.78-16.58,8.69-16.58h0c2.52,0,4.78,1.91,6.37,5.33a27.36,27.36,0,0,1,2.17,11.35c0,7.81-1.19,9.06-5.45,13.72-.64.69-1.35,1.46-2.14,2.35Zm.33-31.22c-2.66,0-5.65,5.81-5.69,13.6,0,5.48,1,6.81,3.4,9.75.66.82,1.44,1.79,2.3,3l.89-1c4-4.38,4.63-5,4.66-11.71a24.29,24.29,0,0,0-1.89-10.07c-1.05-2.27-2.39-3.58-3.66-3.59Z"/></svg>