<svg id="Layer_1" data-name="Layer 1" xmlns="http://www.w3.org/2000/svg" width="200mm" height="200mm" viewBox="0 0 566.93 566.93"><defs><style>.cls-1{fill:#f9cc3d;}.cls-2{fill:#ff7f00;}.cls-3{fill:#fa0;}.cls-4{fill:#407700;}.cls-5{fill:#aa7100;}</style></defs><path class="cls-1" d="M343.06,305.36l-2-.48c-47.77-11.25-70.14-29.7-98.47-53.06-5.41-4.46-11-9.07-17-13.84l-.09-.08c-1.45-1.34-2.85-3.88-1.28-8.36,6.82-19.49,66-61.82,83.9-63.14,3.77-.27,5.38,1.21,6.06,2.51,10.3,22.41,20.89,54.14,28.74,134.36Zm-115.63-69.7c6,4.78,11.62,9.39,17,13.85,27.62,22.77,49.51,40.83,95.2,52-7.78-78.24-18.17-109.33-28.24-131.23-.45-.84-2-.93-3.15-.84-16.69,1.22-74.84,42.7-81.29,61.13C225.77,234,227,235.23,227.43,235.66Z"/><path class="cls-1" d="M351.69,306.91l-.68-2c-15.91-46.42-12.21-75.18-7.53-111.59.89-7,1.82-14.15,2.65-21.79v-.12c.37-1.94,1.77-4.48,6.4-5.54,20.12-4.61,87.46,22.93,98.12,37.39,2.24,3,1.84,5.2,1.1,6.46-13.47,20.66-34.69,46.52-98.41,95.89Zm-2.59-135c-.83,7.65-1.75,14.84-2.64,21.79-4.57,35.5-8.19,63.65,6.72,108.25,62.07-48.26,82.85-73.61,96-93.8.47-.82-.26-2.15-1-3.11-9.92-13.47-76-40.59-95-36.25C349.64,169.62,349.22,171.29,349.1,171.92Z"/><path class="cls-1" d="M495.8,340.9c-24.54,0-58-3.78-133-29.34l-2-.68,1.28-1.65c30-38.86,56-51.61,89-67.75,6.29-3.08,12.81-6.27,19.64-9.79l.1-.05c1.83-.77,4.72-1,8.15,2.29,14.93,14.26,29,85.63,22.83,102.49-1.31,3.55-3.32,4.39-4.79,4.48Zm-130-31.5c74.47,25.24,107,28.6,131.18,28.5.95-.06,1.65-1.4,2.07-2.52,5.77-15.7-8-85.8-22.09-99.28-2.65-2.53-4.27-2-4.86-1.71-6.84,3.52-13.35,6.7-19.64,9.78C420.3,259.91,394.81,272.39,365.79,309.4Z"/><path class="cls-1" d="M407.21,451.3a4.83,4.83,0,0,1-4.2-1.91c-13.24-20.81-28-50.82-46.66-129.24l-.48-2,2.09.2c48.84,4.68,73.51,19.94,104.73,39.25,6,3.69,12.13,7.5,18.75,11.41l.1.06c1.62,1.14,3.35,3.47,2.4,8.12-4.12,20.23-57,70.17-74.58,73.9A10.52,10.52,0,0,1,407.21,451.3ZM359.76,321.51c18.3,76.46,32.79,105.86,45.74,126.2.55.77,2.07.65,3.23.41,16.37-3.48,68.38-52.44,72.28-71.57.73-3.59-.63-4.66-1.15-5-6.62-3.91-12.79-7.72-18.75-11.41C430.67,341.28,406.53,326.35,359.76,321.51Z"/><path class="cls-1" d="M350.86,459.48c-27.57,0-79.19-14.63-89.73-25.49-2.63-2.72-2.52-4.9-2-6.26,10.57-22.28,28.11-50.76,84.6-108.27l1.47-1.49.94,1.87c22,43.85,22.23,72.85,22.49,109.56.05,7,.1,14.27.31,22v.12c-.1,2-1.15,4.68-5.59,6.35C360.34,459,356,459.48,350.86,459.48Zm-6.43-136.41c-55,56.18-72.19,84.09-82.52,105.87-.36.88.55,2.1,1.38,3,11.65,12,80.78,30,99,23.11,3.43-1.29,3.62-3,3.65-3.64-.21-7.69-.26-14.94-.31-21.95C365.42,393.63,365.21,365.25,344.43,323.07Z"/><path class="cls-1" d="M237.57,402.33a9,9,0,0,1-5.39-2.13c-16.45-12.48-38.54-81.79-34.29-99.25.9-3.67,2.81-4.74,4.25-5,24.5-2.92,57.94-3.24,136.69,14l2.05.44-1.08,1.8c-25.39,42-49.82,57.61-80.75,77.38-5.91,3.78-12,7.69-18.41,12l-.1.06A6.05,6.05,0,0,1,237.57,402.33Zm-9.85-104.9a205.79,205.79,0,0,0-25.15,1.5c-.93.16-1.48,1.58-1.76,2.73-4,16.26,17.63,84.35,33.18,96.15,2.92,2.21,4.47,1.46,5,1.15,6.4-4.27,12.5-8.18,18.41-11.95,30.16-19.28,54.07-34.57,78.71-74.62C282.55,300.79,250.39,297.43,227.72,297.43Z"/><path class="cls-2" d="M350.37,482.76c-96.61,0-175.2-78.6-175.2-175.2s78.59-175.19,175.2-175.19S525.56,211,525.56,307.56,447,482.76,350.37,482.76Zm0-347.39c-95,0-172.2,77.25-172.2,172.19s77.25,172.2,172.2,172.2,172.19-77.25,172.19-172.2S445.31,135.37,350.37,135.37Z"/><path class="cls-2" d="M349,469.68c-88,0-159.53-71.56-159.53-159.52S261,150.63,349,150.63,508.51,222.2,508.51,310.16,437,469.68,349,469.68Zm0-316c-86.31,0-156.53,70.22-156.53,156.53S262.69,466.68,349,466.68s156.51-70.22,156.51-156.52S435.3,153.63,349,153.63Z"/><path class="cls-3" d="M378,137.18a172.89,172.89,0,0,0-94.69-60.89l.7-2.92a175.94,175.94,0,0,1,96.35,62Z"/><path class="cls-3" d="M210.09,74.55l-.57-3c1.44-.27,2.88-.53,4.33-.77l.49,3C212.92,74,211.5,74.28,210.09,74.55Z"/><path class="cls-3" d="M213.6,416.45A175.24,175.24,0,0,1,203.32,72.91l.67,2.92C125.4,93.88,70.5,162.89,70.5,243.66A171.56,171.56,0,0,0,214.1,413.49Z"/><path class="cls-4" d="M209.33,84.71H207l1-2.15a119.88,119.88,0,0,0,4.78-11.44c1.49-4.13,2.61-7.9,3.59-11.22,4.47-15.07,6.93-23.38,31.95-30.7,10-3.78,29.58-4.52,50.31-5.31,25.17-1,51.21-1.95,62.23-8.32l5.18-3-3.24,5.23c-7.33,11.81-29.61,47.76-79,58.39a271.69,271.69,0,0,1-57.6,5.73,63.94,63.94,0,0,0-9.89,1.61A46,46,0,0,1,209.33,84.71Zm148.31-64.4c-13.17,4.84-36.38,5.72-58.93,6.58-20.51.78-39.88,1.51-49.41,5.14l-.11,0c-23.51,6.87-25.67,14.16-30,28.7-1,3.35-2.13,7.16-3.65,11.38-1.14,3.17-2.37,6.21-3.73,9.23,1.14-.22,2.5-.5,3.84-.78,3.76-.78,8-1.67,10.5-1.67a267.72,267.72,0,0,0,57-5.67C326.5,63.92,348.47,34.5,357.64,20.31Z"/><path class="cls-5" d="M207.24,86.32a3.42,3.42,0,0,1-2.14-.72c-1.87-1.47-2.16-4.67-2.6-9.52a75.1,75.1,0,0,0-2.06-13.27h0c-1.28-4.73-3.77-8.84-5.78-12.14-2.38-3.92-4.1-6.75-3.14-9.22.52-1.33,1.72-2.26,3.68-2.83a4.15,4.15,0,0,1,3.26.42c3.35,1.89,6.49,8.61,9.87,21.16,2.77,10.29,3.35,21.69,1.25,24.89a2.49,2.49,0,0,1-1.69,1.18A5,5,0,0,1,207.24,86.32ZM203.33,62a78.42,78.42,0,0,1,2.16,13.78c.3,3.32.61,6.76,1.46,7.43a.37.37,0,0,0,.21.07c.91-1.69,1.39-10.75-1.73-22.33-4-14.95-7-18.52-8.44-19.32a1.12,1.12,0,0,0-1-.16c-.56.16-1.52.51-1.72,1-.43,1.09,1.27,3.88,2.9,6.57,2.11,3.46,4.73,7.77,6.11,12.92Z"/></svg>