<svg id="Layer_1" data-name="Layer 1" xmlns="http://www.w3.org/2000/svg" width="200mm" height="200mm" viewBox="0 0 566.93 566.93"><defs><style>.cls-1{fill:#af7948;}.cls-2{fill:#a67c52;}</style></defs><path class="cls-1" d="M185.63,478,102.77,307.26c-4.36-9-14.53-72.08-19.42-102.4-1.16-7.19-2-12.43-2.42-14.75L42.47,86.3l70.88-31.43,28.19-4.22,35.79,22.4,58.38,28.28-1.3,2.7L175.8,75.64,140.89,53.78l-26.69,4L46.26,87.9,83.84,189.32l0,.13c.41,2.28,1.27,7.58,2.45,14.93,4.49,27.82,15,93,19.16,101.57l82.86,170.78Z"/><polygon class="cls-1" points="229.68 147.39 219.58 122.06 169.9 69.45 236.22 101.57 239.75 110.02 236.98 111.18 233.89 103.78 183.3 79.28 222.16 120.41 232.46 146.28 229.68 147.39"/><path class="cls-1" d="M202.46,505.6l-16.6-27.08L103,307.73c-4.36-9-14.53-72.08-19.42-102.4-1.16-7.19-2-12.43-2.42-14.75l-38-102.49L46,87l81.45,205.57L202,474.85,199.2,476,124.65,293.71,84.52,192.41c.47,2.81,1.16,7.08,2,12.44,4.48,27.83,15,93,19.15,101.58l82.83,170.71L205,504Z"/><path class="cls-1" d="M391.42,564.14h-1l-182.53-.47-9-93.71L199.44,257c0-11.18,20.83-79.78,30.83-112.74,2.38-7.83,4.11-13.52,4.83-16.06L247.41,4.82,334.14,8l.19.06,30.21,9.54,25,40.14,45.29,57.7,0,.57L423.34,311,413,448.23l-5.53,77.62Zm-180.81-3.47,178.82.46,15.08-36L410,448l10.35-137.2,11.43-194.39-44.73-57L362.58,20.15l-29-9.14-83.5-3.09L238.06,128.8l0,.13c-.71,2.49-2.46,8.25-4.88,16.23C223.19,178,202.47,246.3,202.44,257l-.55,212.85Z"/><path class="cls-2" d="M391.43,564.14h-7l4.49-15.8,22.84-411.88-27.4-85.34,50.51,64.34,0,.57L423.34,311,413,448.23l-5.53,77.62-.09.23Zm-3.06-3h1.06l15.08-36L410,448,420.35,310.8l11.43-194.38L392.31,66.13l22.45,69.94,0,.28L391.87,548.84Z"/><path class="cls-2" d="M207.76,562.9l-8.87-92.36.55-212.92c0-11.18,20.83-79.78,30.83-112.74,2.38-7.83,4.1-13.52,4.83-16.06l12.17-122,3,.27L231.17,254.36l-20.42,308.5Zm-5.87-92.42L209,544.21l19.2-290.07,9.55-123.57c-.85,2.88-2.45,8.17-4.58,15.18-9.95,32.83-30.68,101.14-30.7,111.88Z"/></svg>