<svg id="Layer_1" data-name="Layer 1" xmlns="http://www.w3.org/2000/svg" width="188.82mm" height="186.39mm" viewBox="0 0 535.24 528.36"><defs><style>.cls-1{fill:#fff;}</style></defs><path class="cls-1" d="M406.75,523.09H129.87a121.15,121.15,0,0,1-121-121V125.2a121.16,121.16,0,0,1,121-121H406.75a121.16,121.16,0,0,1,121,121V402.08A121.16,121.16,0,0,1,406.75,523.09ZM129.87,7.18a118.15,118.15,0,0,0-118,118V402.08a118.14,118.14,0,0,0,118,118H406.75a118.15,118.15,0,0,0,118-118V125.2a118.15,118.15,0,0,0-118-118Z"/><path class="cls-1" d="M229.45,451.75c-46.72,0-74.79-8.29-93.32-26.68-26.43-26.23-35.06-74.32-29.77-166l3,.17c-5.23,90.71,3.14,138.14,28.89,163.69,22,21.84,58.33,29,125.37,24.59l.19,3C251.35,451.34,239.93,451.75,229.45,451.75Z"/><path class="cls-1" d="M436.33,300.69l-3-.18c5.84-95.91-3.18-146.42-31.13-174.35C377.08,101.07,336.66,93.18,258,98l-.19-3c66.39-4.11,116.7-.75,146.47,29C433,152.65,442.22,203.83,436.33,300.69Z"/></svg>