<svg id="Layer_1" data-name="Layer 1" xmlns="http://www.w3.org/2000/svg" width="140.28mm" height="186.39mm" viewBox="0 0 397.64 528.36"><path d="M198.07,520.09c-51.39,0-99.67-26.64-136-75S6,332.76,6,264.59,25.93,132.31,62.11,84.08s84.57-75,136-75,99.66,26.63,136,75,56.11,112.34,56.11,180.51S370.2,396.86,334,445.09,249.45,520.09,198.07,520.09Zm0-508C93.81,12.09,9,125.36,9,264.59s84.81,252.5,189.07,252.5,189.06-113.27,189.06-252.5S302.32,12.09,198.07,12.09Z"/><path d="M203.73,421.16c-19.49,0-38.39-10.07-54.14-29.71C125.33,361.2,112.47,313,114.31,259.21l1.75.18c-1.8,52.75,10.79,100,34.56,129.64,15.45,19.25,34,29.13,53.11,29.13,11.87,0,24-3.81,35.67-11.55l.63,2.8C228.12,417.28,215.81,421.16,203.73,421.16Z"/><path d="M281.6,291.17l-1.75-.27c2.74-52.63-9-100.51-32.26-131.36-24.47-32.49-57.53-40.76-88.42-22.14l-.59-2.83c31.46-19,65.14-10.51,90.08,22.6C272.38,188.66,284.39,237.49,281.6,291.17Z"/></svg>