<svg id="Layer_1" data-name="Layer 1" xmlns="http://www.w3.org/2000/svg" width="133mm" height="186.39mm" viewBox="0 0 377.01 528.36"><path d="M251.63,523.27H126.42a121.16,121.16,0,0,1-121-121V125a121.15,121.15,0,0,1,121-121H251.63a121.15,121.15,0,0,1,121,121V402.25A121.16,121.16,0,0,1,251.63,523.27ZM126.42,7a118.14,118.14,0,0,0-118,118V402.25a118.15,118.15,0,0,0,118,118H251.63a118.15,118.15,0,0,0,118-118V125a118.14,118.14,0,0,0-118-118Z"/><path d="M161.46,451.89c-27.48,0-45.62-5.73-58.57-18C78.12,410.33,70.08,361.34,74.24,259.1l3,.13C73.12,360.48,80.89,408.83,105,431.68c15.77,15,39.9,19.75,80.69,16l.27,3C177,451.47,168.9,451.89,161.46,451.89Z"/><path d="M308.08,300.69l-3-.13c4.61-107.37-3.84-159-30.13-184.15-18.13-17.34-45.11-22.69-93.12-18.48l-.26-3c49-4.3,76.63,1.3,95.46,19.31C304,140.07,312.74,192.34,308.08,300.69Z"/></svg>