<svg id="Layer_1" data-name="Layer 1" xmlns="http://www.w3.org/2000/svg" width="216.47mm" height="186.39mm" viewBox="0 0 613.61 528.36"><defs><style>.cls-1{fill:#fff;}</style></defs><path class="cls-1" d="M381.83,398.39l-1.49-2.6c139.34-79.51,149.39-166.5,147.24-200.21-2.42-37.85-22.6-70-51.44-81.88-23-9.5-48.18-4.34-69,14.13l-2-2.25c21.76-19.26,48.06-24.6,72.17-14.66,29.89,12.33,50.81,45.48,53.29,84.47,2.06,32.27-8.15,66.45-29.53,98.84C475.66,332.69,435.55,367.74,381.83,398.39Z"/><path class="cls-1" d="M304.92,518.83C271.7,496.39,241.05,477,211.4,458.19,133.62,408.91,72.18,370,37.45,320.55.65,268.17-4.22,205.81,21.66,118.35c7.13-24.07,24-48.83,46.32-67.92C92,29.92,120.86,16.9,149.4,13.78c28.31-3.09,55.59,3.11,81.06,18.43,29,17.41,54.73,46.3,76.62,85.84l-2.63,1.45C264.19,46.75,209.23,10.26,149.73,16.76,88.35,23.47,37.88,74.12,24.54,119.2-29.55,302,56.61,356.56,213,455.65c29.66,18.79,60.33,38.23,93.59,60.69Z"/><path class="cls-1" d="M306.6,518.83l-1.68-2.49c33.27-22.46,63.94-41.89,93.6-60.69C554.92,356.57,641.08,302,587,119.2,572.89,71.57,513.23,17.86,446.88,13.82c-59-3.59-108.66,33.9-139.74,105.55l-2.75-1.19c16.91-39,38.87-67.94,65.26-86a121,121,0,0,1,77.41-21.36c67.61,4.11,128.42,58.92,142.81,107.52,25.87,87.46,21,149.82-15.8,202.2-34.72,49.43-96.16,88.36-174,137.64C370.48,477,339.83,496.39,306.6,518.83Z"/><path class="cls-1" d="M202,366.46c-28.62-7.54-52.28-22.53-70.34-44.55-15.9-19.39-26.9-43.93-31.8-71s-3.46-55.89,4.09-81.08c7.84-26.14,21.37-46.62,39.13-59.2,18.66-13.22,50.53-23.5,96.37,2.59l-1.48,2.6c-35.2-20-67.41-21-93.15-2.74-34.91,24.73-52.18,81.18-42,137.29,10.5,57.94,46.93,99.17,100,113.15Z"/></svg>