<svg id="Layer_1" data-name="Layer 1" xmlns="http://www.w3.org/2000/svg" width="193.19mm" height="186.39mm" viewBox="0 0 547.62 528.36"><defs><style>.cls-1{fill:#fff;}</style></defs><path class="cls-1" d="M175.37,442.31a12.08,12.08,0,0,1-6.58-1.73c-10.5-6.53-9.38-31.74-6.92-87l.45-10.15,3,.13-.45,10.16c-2.34,52.38-3.51,78.68,5.5,84.28,7.71,4.8,24.35-4.34,54.57-20.94,4.95-2.71,10.25-5.63,15.95-8.71l1.43,2.63q-8.53,4.64-15.93,8.71C200.74,433.81,185.26,442.31,175.37,442.31Z"/><path class="cls-1" d="M130.22,519.39a34.57,34.57,0,0,1-34-40.16l20.74-125.78a31.53,31.53,0,0,0-9.24-27.84L15.84,237.22a34.51,34.51,0,0,1,18.75-59l126-19.14a31.51,31.51,0,0,0,23.62-17.39L239.91,27A34.3,34.3,0,0,1,270.74,7.59H271a34.29,34.29,0,0,1,30.84,19L359,140.57a31.52,31.52,0,0,0,23.84,17.09l126.27,17.52a34.51,34.51,0,0,1,19.5,58.75l-90.7,89.56a31.5,31.5,0,0,0-8.89,28l22.36,125.49a34.52,34.52,0,0,1-49.85,36.71L288.28,455.06a31.5,31.5,0,0,0-29.33.19l-112.45,60A34.47,34.47,0,0,1,130.22,519.39ZM271,10.59h-.22a30.9,30.9,0,0,0-28.15,17.75L186.93,143a34.48,34.48,0,0,1-25.87,19L35,181.19A31.34,31.34,0,0,0,9.73,202.81a30.93,30.93,0,0,0,8.19,32.25l91.85,88.39a34.53,34.53,0,0,1,10.12,30.49L99.15,479.71a31.51,31.51,0,0,0,45.94,32.93l112.45-60a34.52,34.52,0,0,1,32.12-.21L402.87,511A30.92,30.92,0,0,0,436,508.37a31.31,31.31,0,0,0,12.34-30.9L426,352a34.5,34.5,0,0,1,9.73-30.61l90.71-89.57,1,1.07-1-1.07a31.52,31.52,0,0,0-17.81-53.64L382.39,160.63a34.54,34.54,0,0,1-26.11-18.71L299.13,28A30.9,30.9,0,0,0,271,10.59Z"/><path class="cls-1" d="M320.19,195.71l-4.2-9.27c-21.64-47.76-32.51-71.73-43.08-72.65-9-.8-19.74,14.91-39.17,43.39q-4.77,7-10.27,15l-2.47-1.7q5.52-8,10.26-15c20.72-30.38,31.14-45.62,41.91-44.69,12.32,1.07,22.73,24,45.56,74.41l4.2,9.26Z"/><path class="cls-1" d="M374.12,440c-12.21,0-33.54-13.55-73.07-38.66l-8.58-5.45,1.6-2.53,8.59,5.45C346.92,426.9,369.14,441,378.49,436c8-4.29,8.36-23.28,9-57.75.11-5.64.22-11.69.38-18.17l3,.07c-.16,6.48-.27,12.53-.38,18.16-.71,36.76-1.06,55.21-10.61,60.34A12,12,0,0,1,374.12,440Z"/><path class="cls-1" d="M375.92,310l-2.13-2.11,7.18-7.21c37-37.15,55.58-55.8,52.7-66-2.47-8.74-20.93-13.19-54.45-21.28q-8.22-2-17.66-4.29l.72-2.92c6.29,1.56,12.17,3,17.64,4.3,35.75,8.62,53.69,12.95,56.63,23.37,3.36,11.9-14.44,29.78-53.46,68.95Z"/><path class="cls-1" d="M128.74,295.5q-5.48-8-10.28-15c-20.87-30.28-31.34-45.47-26.58-55.2,5.44-11.11,30.63-12.54,85.82-15.68l10.15-.58.17,3-10.15.58c-52.35,3-78.63,4.48-83.3,14-4,8.15,6.79,23.79,26.36,52.17q4.8,7,10.29,15Z"/></svg>