<svg id="Layer_1" data-name="Layer 1" xmlns="http://www.w3.org/2000/svg" width="133mm" height="186.39mm" viewBox="0 0 377.01 528.36"><defs><style>.cls-1{fill:#fff;}</style></defs><path class="cls-1" d="M251.63,523.81H126.42a121.15,121.15,0,0,1-121-121V125.56a121.15,121.15,0,0,1,121-121H251.63a121.15,121.15,0,0,1,121,121V402.8A121.15,121.15,0,0,1,251.63,523.81ZM126.42,7.55a118.14,118.14,0,0,0-118,118V402.8a118.14,118.14,0,0,0,118,118H251.63a118.14,118.14,0,0,0,118-118V125.56a118.14,118.14,0,0,0-118-118Z"/><path class="cls-1" d="M161.46,452.43c-27.48,0-45.62-5.73-58.57-18-24.77-23.52-32.81-72.52-28.65-174.75l3,.12C73.12,361,80.89,409.38,105,432.23c15.77,15,39.9,19.75,80.69,16l.27,3C177,452,168.9,452.43,161.46,452.43Z"/><path class="cls-1" d="M308.09,301.24l-3-.13C309.7,193.73,301.25,142.1,275,117c-18.13-17.34-45.11-22.7-93.12-18.49l-.26-3c49-4.29,76.63,1.3,95.46,19.31C304,140.61,312.74,192.89,308.09,301.24Z"/></svg>