<svg id="Layer_1" data-name="Layer 1" xmlns="http://www.w3.org/2000/svg" width="185.91mm" height="186.39mm" viewBox="0 0 526.98 528.36"><defs><style>.cls-1{fill:#fff;}</style></defs><path class="cls-1" d="M265,521.59A255.51,255.51,0,0,1,84.34,85.42,255.5,255.5,0,0,1,445.68,446.75,253.83,253.83,0,0,1,265,521.59Zm0-508c-139.23,0-252.5,113.27-252.5,252.5S125.78,518.59,265,518.59s252.5-113.27,252.5-252.5S404.24,13.59,265,13.59Z"/><path class="cls-1" d="M278.14,410.44a156.48,156.48,0,0,1-92.56-29.71c-41.48-30.25-63.47-78.45-60.32-132.24l3,.18c-3.08,52.75,18.46,100,59.1,129.63,26.4,19.26,58.11,29.13,90.79,29.14a169,169,0,0,0,61-11.56l1.08,2.8A172,172,0,0,1,278.14,410.44Z"/><path class="cls-1" d="M411.28,280.44l-3-.26c4.67-52.64-15.44-100.52-55.17-131.36-41.84-32.49-98.36-40.77-151.18-22.15l-1-2.83c53.79-19,111.37-10.51,154,22.61C395.52,177.93,416.05,226.77,411.28,280.44Z"/></svg>