<svg id="Layer_1" data-name="Layer 1" xmlns="http://www.w3.org/2000/svg" viewBox="0 0 125.86 158.69"><defs><style>.cls-1{fill:#364b3e;}</style></defs><path class="cls-1" d="M111.7,32.8H92.83V31.14a31.14,31.14,0,1,0-62.27,0V32.8H14.16A14.2,14.2,0,0,0,0,47v97.58a14.2,14.2,0,0,0,14.16,14.16H111.7a14.2,14.2,0,0,0,14.16-14.16V47A14.2,14.2,0,0,0,111.7,32.8Zm-66.44-.65a16.5,16.5,0,0,1,33-1V32.8h-33Zm64.3,109.55H14.26v-94h16.3v15a7.31,7.31,0,0,0,14.62,0l0-15h33v15a7.31,7.31,0,0,0,14.62,0v-15h16.73Z"/></svg>