<svg id="Layer_1" data-name="Layer 1" xmlns="http://www.w3.org/2000/svg" viewBox="0 0 93.8 93.75"><defs><style>.cls-1{fill:#364b3e;}</style></defs><path class="cls-1" d="M93.79,11.59C92.32,21.09,90.62,32,88.92,43c-1.9,12.24-3.69,24.49-5.75,36.7C81.93,87.05,77,89.91,70,87.45c-4.76-1.66-9.43-3.63-14-5.76-3.85-1.8-6.66-1.54-9,2.38A41.39,41.39,0,0,1,41,91.2,7.74,7.74,0,0,1,32,93a8.32,8.32,0,0,1-5.53-7.44c-.22-3.9-.23-7.83-.12-11.74a5.69,5.69,0,0,0-3.94-6c-4.83-2-9.57-4.15-14.43-6C4,60.22.54,58.22.05,53.47c-.52-5.07,2.87-7.68,6.66-9.88Q33.59,28,60.5,12.58C66.86,8.91,73.18,5.19,79.59,1.63,87.15-2.58,94,1.57,93.79,11.59Zm-9-.31C85,8.44,83,10,81.51,10.83Q67.92,18.56,54.38,26.37,34.28,38,14.22,49.64c-1.31.77-3.61,1.16-3.38,3,.22,1.73,2.5,1.79,3.93,2.43,3.41,1.53,6.94,2.82,10.35,4.37a5.48,5.48,0,0,0,6.67-1C38,52.72,44.38,47.12,50.72,41.52,55.85,37,61,32.53,66.17,28c1.43-1.24,3-2.29,4.8-.89S72.05,30.34,71,32c-.69,1.1-1.41,2.19-2.15,3.27-6.56,9.52-13,19.1-19.75,28.52-2.37,3.34-1.81,5,2,6.38,6.26,2.32,12.41,5,18.54,7.59,3.49,1.5,5.12.53,5.58-3.26.72-5.81,1.7-11.59,2.58-17.39C80.09,42.1,82.36,27.13,84.77,11.28Z"/></svg>