<svg id="Layer_1" data-name="Layer 1" xmlns="http://www.w3.org/2000/svg" viewBox="0 0 93.75 89.92"><defs><style>.cls-1{fill:#364b3e;}</style></defs><path class="cls-1" d="M47.08,0c11,0,22,0,33.08,0,9.75,0,13.55,3.71,13.56,13.26q0,31.65,0,63.28c0,9.58-3.79,13.27-13.52,13.31-6.83,0-13.67-.09-20.51,0-3.24.07-4.5-1.19-4.44-4.41.14-7.21.19-14.43,0-21.64-.1-3.74,1.48-4.78,5-4.73,7.5.09,7.5,0,8.43-7.49.13-1.1.2-2.21.43-3.29.52-2.38-.5-3.41-2.82-3.42a32.34,32.34,0,0,1-4.18-.07c-2.68-.35-6.5,1.57-6.81-3.62-.53-8.85.9-12,6.27-12.88.28,0,.56-.05.83-.08,8.3-1,9.07-2.06,7.93-10.26-.21-1.52-.64-2.85-2.35-2.94-4.84-.26-9.6-1.58-14.55-.34-9,2.26-14.56,8.79-14.89,18.13q-.13,4.17,0,8.33c.07,2.67-1.2,3.81-3.81,3.69-.84,0-1.68,0-2.51,0-7,0-7,0-7,7.2s0,7.06,7.15,7.09c6.2,0,6.21,0,6.21,6.32,0,6.66-.09,13.32,0,20,.06,3.19-1.14,4.49-4.41,4.43-7.39-.13-14.79.06-22.19-.07C4.24,89.71.13,85.8.09,78.26Q-.09,45,.09,11.65C.13,4.1,4.24.15,11.91.07,23.63-.06,35.36,0,47.08,0Z"/></svg>