<svg id="Layer_1" data-name="Layer 1" xmlns="http://www.w3.org/2000/svg" viewBox="0 0 94.29 93.75"><defs><style>.cls-1{fill:#364b3e;}</style></defs><path class="cls-1" d="M94.27,47.27c0,11.29,0,22.57,0,33.86,0,8.67-3.85,12.56-12.47,12.58q-34.71.08-69.42,0C4,93.68.06,89.78,0,81.42Q0,46.9,0,12.4C.06,4,4,.07,12.29.05Q47.23,0,82.14.05c8.11,0,12,4,12.1,12.07C94.33,23.83,94.27,35.55,94.27,47.27ZM13.1,44.9c0,5.79-.14,10,0,14.17.52,13.05,6.1,19.76,18.85,21.22a133.17,133.17,0,0,0,30.46,0c12-1.39,17-6.34,18.33-18.32a132.17,132.17,0,0,0,0-30.28c-1.39-11.92-6.39-16.91-18.42-18.22a133.53,133.53,0,0,0-30.89.08c-11.5,1.42-16,6.36-17.94,17.81C12.65,36.38,13.29,41.45,13.1,44.9Z"/><path class="cls-1" d="M19.35,46.81c-.54-5.23.52-10.39.94-15.56C20.88,24,24.1,21,31.33,20.12a129.23,129.23,0,0,1,31.75,0c7.08.86,10,3.79,10.94,10.79a124.56,124.56,0,0,1,0,32c-.89,6.86-3.74,9.71-10.6,10.62a124,124,0,0,1-32.61,0C24,72.63,21,69.71,20.34,62.8,19.84,57.49,18.84,52.19,19.35,46.81ZM47.44,64.24A17.36,17.36,0,1,0,29.69,46.71C29.58,56.46,37.42,64.2,47.44,64.24Z"/><path class="cls-1" d="M58.36,46.84c0,5.5-5.64,11.16-11.18,11.19S36,52.43,35.93,46.91s5.64-11.17,11.18-11.19S58.34,41.34,58.36,46.84Z"/></svg>