<svg id="Layer_1" data-name="Layer 1" xmlns="http://www.w3.org/2000/svg" viewBox="0 0 174.72 22.37"><defs><style>.cls-1{fill:#364b3e;}</style></defs><path class="cls-1" d="M10.81,22.37a10.93,10.93,0,0,1-7.88-2.81Q0,16.76,0,11.24A10,10,0,0,1,3,3.58,10.73,10.73,0,0,1,10.72.7a7.91,7.91,0,0,1,.83,0l.37,0,.37,0,.34.06.3.05a2.26,2.26,0,0,1,.56.17,2.87,2.87,0,0,0,.49.18l.47.2.23.11.17.09.07,0,.13.08.17.09.29.16,1.12-.84h.17V8.44h-.46q-2-6.94-5.62-6.94c-1.32,0-2.42.8-3.3,2.41S6.08,8,6.08,11.24c0,3.57.45,6.17,1.37,7.83s2,2.5,3.36,2.5q3.51,0,5.61-7.24h.46v7.52h-.17L15.59,21a.91.91,0,0,1-.28.17l-.16.09-.14.07-.07,0-.17.09-.24.12-.46.19-.48.17a2.87,2.87,0,0,1-.57.17l-.3.06a2.2,2.2,0,0,1-.33.07l-.76.08A7.82,7.82,0,0,1,10.81,22.37Z"/><path class="cls-1" d="M33.74,18.76a5.32,5.32,0,0,0,.3,2,1.07,1.07,0,0,0,1.15.6v.4L29,22l-.15-.14V19.56Q26.06,22.13,24,22.13a3.61,3.61,0,0,1-2.69-.94,3.39,3.39,0,0,1-.95-2.6V11.42a5,5,0,0,0-.28-2A.94.94,0,0,0,19,9l-.06-.39,1.8-.32,4.5-.86V18.21q0,1.32,1.2,1.32a4.69,4.69,0,0,0,2.41-.94V11.42a4.84,4.84,0,0,0-.28-2A.94.94,0,0,0,27.48,9l-.06-.39,1.81-.32,4.51-.86Z"/><path class="cls-1" d="M57.24,19l.28.14a4.22,4.22,0,0,1-4.36,3A2.63,2.63,0,0,1,51,21.25a3.23,3.23,0,0,1-.71-2.18V8.15H48.89V7.52a6.13,6.13,0,0,0,1.26-.12A9.42,9.42,0,0,0,51.68,7a2.89,2.89,0,0,0,1.46-1,2.85,2.85,0,0,0,.54-1.77,3.52,3.52,0,0,0-1.12-2.65,4.73,4.73,0,0,0-3.26-1Q45,.57,45,4.65a4.61,4.61,0,0,0,1.71,3.9v3.32l-.39,0a10.42,10.42,0,0,0-2.19-2.95,3.62,3.62,0,0,0-2.4-1.09,1.24,1.24,0,0,0-1,.37,1.64,1.64,0,0,0-.33,1.1,2,2,0,0,0,.77,1.45,9.25,9.25,0,0,0,1.89,1.39c.94.55,1.69,1,2.24,1.37a7.55,7.55,0,0,1,1.89,1.75A3.65,3.65,0,0,1,48,17.47,4,4,0,0,1,46.32,21a7.31,7.31,0,0,1-4.13,1.13A18.52,18.52,0,0,1,37,21.28V17h.43a9.65,9.65,0,0,0,2,3.18,3.81,3.81,0,0,0,2.76,1.44,1.82,1.82,0,0,0,1.37-.49A1.75,1.75,0,0,0,44,19.79a2.15,2.15,0,0,0-.75-1.52A8.31,8.31,0,0,0,41.45,17q-1-.52-2.13-1.26A6.46,6.46,0,0,1,37.51,14a3.62,3.62,0,0,1-.74-2.19,4.28,4.28,0,0,1,1.4-3.4,5.37,5.37,0,0,1,3.61-1.2,9.55,9.55,0,0,1,3,.47l.14-.14A4.87,4.87,0,0,1,43.1,4.26a3.5,3.5,0,0,1,1.75-3.2A8.51,8.51,0,0,1,49.33,0a6.85,6.85,0,0,1,4,1.23,3.69,3.69,0,0,1,1.84,3V7.52h2.13v.63H55.14V19c0,.67.28,1,.84,1a1.32,1.32,0,0,0,.74-.32A1.67,1.67,0,0,0,57.24,19Z"/><path class="cls-1" d="M65.71,22.13a6.9,6.9,0,0,1-5.35-2,7.71,7.71,0,0,1-1.85-5.42,7.75,7.75,0,0,1,1.85-5.44,6.86,6.86,0,0,1,5.35-2,6.88,6.88,0,0,1,5.36,2,7.87,7.87,0,0,1,1.8,5.44,7.83,7.83,0,0,1-1.8,5.42A6.92,6.92,0,0,1,65.71,22.13Zm0-.56c.72,0,1.25-.54,1.61-1.61a20.44,20.44,0,0,0,.49-5.28,20.57,20.57,0,0,0-.49-5.3C67,8.32,66.43,7.8,65.71,7.8s-1.28.52-1.6,1.58a19,19,0,0,0-.52,5.3A18.9,18.9,0,0,0,64.11,20C64.44,21,65,21.57,65.71,21.57Z"/><path class="cls-1" d="M97.33,18.76a5.11,5.11,0,0,0,.31,2,1.11,1.11,0,0,0,1.14.65v.41H91v-.41a1.11,1.11,0,0,0,1.14-.65,5.11,5.11,0,0,0,.31-2v-7.6q0-1.32-1.2-1.32a4.4,4.4,0,0,0-2.25.85v8.07a6,6,0,0,0,.25,2,.91.91,0,0,0,.92.65v.41h-7v-.41a.91.91,0,0,0,.91-.65,6.16,6.16,0,0,0,.26-2v-7.6q0-1.32-1.2-1.32a4.74,4.74,0,0,0-2.27.8v8.12a5.11,5.11,0,0,0,.31,2,1.12,1.12,0,0,0,1.15.65v.41h-7.8v-.41a1.13,1.13,0,0,0,1.15-.65,5.21,5.21,0,0,0,.32-2V11.42a4.92,4.92,0,0,0-.29-2A.94.94,0,0,0,74.55,9l0-.39,1.8-.32,4.51-.86V9.67q2.68-2.43,4.62-2.43c2,0,3.14.86,3.46,2.6,1.82-1.74,3.41-2.6,4.78-2.6a3.76,3.76,0,0,1,2.71.91,3.56,3.56,0,0,1,1,2.63Z"/><path class="cls-1" d="M100.06,21.85v-.41a1.13,1.13,0,0,0,1.15-.65,5.21,5.21,0,0,0,.32-2V11.42a4.72,4.72,0,0,0-.3-2A.93.93,0,0,0,100.14,9l0-.39,1.8-.32,4.51-.86V18.76a5.11,5.11,0,0,0,.31,2,1.12,1.12,0,0,0,1.14.65v.41ZM104,5.91a2.71,2.71,0,0,1-2-.83,2.66,2.66,0,0,1-.83-2,2.67,2.67,0,0,1,.83-2,2.88,2.88,0,0,1,4,0,2.75,2.75,0,0,1,.77,2,2.68,2.68,0,0,1-.79,2A2.71,2.71,0,0,1,104,5.91Z"/><path class="cls-1" d="M120.73,17.47A4,4,0,0,1,119,21a7.29,7.29,0,0,1-4.13,1.13,18.52,18.52,0,0,1-5.19-.85V17h.43a9.52,9.52,0,0,0,2,3.18,3.78,3.78,0,0,0,2.75,1.44,1.86,1.86,0,0,0,1.38-.49,1.78,1.78,0,0,0,.46-1.29,2.17,2.17,0,0,0-.74-1.52A8.4,8.4,0,0,0,114.14,17q-1-.52-2.13-1.26a6.29,6.29,0,0,1-1.8-1.66,3.56,3.56,0,0,1-.75-2.19,4.28,4.28,0,0,1,1.4-3.4,5.38,5.38,0,0,1,3.62-1.2,9.17,9.17,0,0,1,4,.93l.8-.65h.17v4.35H119a9.91,9.91,0,0,0-2.24-2.93,3.82,3.82,0,0,0-2.35-1.14,1.2,1.2,0,0,0-1,.37,1.59,1.59,0,0,0-.34,1.1,2.06,2.06,0,0,0,.77,1.45,9.25,9.25,0,0,0,1.89,1.39c.94.55,1.69,1,2.24,1.37A7.55,7.55,0,0,1,120,15.23,3.65,3.65,0,0,1,120.73,17.47Z"/><path class="cls-1" d="M130.66,18.3a5.44,5.44,0,0,0,2.7-.63,3.89,3.89,0,0,0,1.58-1.46l.36.11a7.8,7.8,0,0,1-2.14,4.08,6.08,6.08,0,0,1-4.48,1.67,5.67,5.67,0,0,1-4.59-2.14,7.82,7.82,0,0,1-1.8-5.27,7.68,7.68,0,0,1,1.9-5.28,6.79,6.79,0,0,1,7.28-1.7,5.84,5.84,0,0,1,1.75,1.15,8,8,0,0,1,1.2,1.56,7.7,7.7,0,0,1,.72,1.63,6.09,6.09,0,0,1,.19,1.49h-8.51A6.49,6.49,0,0,0,127.89,17,3.19,3.19,0,0,0,130.66,18.3ZM129,7.89c-.7,0-1.23.5-1.61,1.49a9.73,9.73,0,0,0-.63,3.41h4a15.66,15.66,0,0,0-.43-3.41C130.13,8.39,129.68,7.89,129,7.89Z"/><path class="cls-1" d="M160.65,1.67c-.57,0-1.05.37-1.44,1.12a5.79,5.79,0,0,0-.6,2.73v12a5.57,5.57,0,0,0,.6,2.69c.38.77.86,1.15,1.44,1.15v.46h-9.4v-.46c.57,0,1.05-.38,1.45-1.15a5.74,5.74,0,0,0,.58-2.69V4.48l-5.83,17.37h-1.07L139.49,6.26V17.55a5.57,5.57,0,0,0,.6,2.69c.37.77.86,1.15,1.44,1.15v.46h-5.11v-.46c.57,0,1.06-.38,1.46-1.15a5.87,5.87,0,0,0,.57-2.69V4.1a8.19,8.19,0,0,0-1.37-1.75,2,2,0,0,0-1.23-.68V1.2h7.34L149,14.08l4.3-12.88h7.37Z"/><path class="cls-1" d="M170.05,18.3a5.44,5.44,0,0,0,2.7-.63,3.89,3.89,0,0,0,1.58-1.46l.36.11a7.8,7.8,0,0,1-2.14,4.08,6.08,6.08,0,0,1-4.48,1.67,5.67,5.67,0,0,1-4.59-2.14,7.82,7.82,0,0,1-1.8-5.27,7.68,7.68,0,0,1,1.9-5.28,6.79,6.79,0,0,1,7.28-1.7,5.84,5.84,0,0,1,1.75,1.15,8,8,0,0,1,1.2,1.56,7.7,7.7,0,0,1,.72,1.63,6.09,6.09,0,0,1,.19,1.49h-8.51A6.49,6.49,0,0,0,167.28,17,3.19,3.19,0,0,0,170.05,18.3ZM168.42,7.89c-.7,0-1.23.5-1.61,1.49a9.73,9.73,0,0,0-.63,3.41h4a15.66,15.66,0,0,0-.43-3.41C169.52,8.39,169.07,7.89,168.42,7.89Z"/></svg>